SplineFontDB: 3.2
FontName: Reijima-LightItalic
FullName: Reijima Light Italic
FamilyName: Reijima Light
Weight: Light
Copyright: Copyright (c) 2019 by Coji Morishita. All rights reserved.
Version: 1.000
ItalicAngle: -9
UnderlinePosition: -100
UnderlineWidth: 50
Ascent: 860
Descent: 140
InvalidEm: 0
LayerCount: 2
Layer: 0 0 "Back" 1
Layer: 1 0 "Fore" 0
FSType: 8
OS2Version: 0
OS2_WeightWidthSlopeOnly: 0
OS2_UseTypoMetrics: 0
CreationTime: 1707357829
ModificationTime: 1707357829
OS2TypoAscent: 0
OS2TypoAOffset: 1
OS2TypoDescent: 0
OS2TypoDOffset: 1
OS2TypoLinegap: 0
OS2WinAscent: 0
OS2WinAOffset: 1
OS2WinDescent: 0
OS2WinDOffset: 1
HheadAscent: 0
HheadAOffset: 1
HheadDescent: 0
HheadDOffset: 1
OS2Vendor: 'PfEd'
DEI: 91125
Encoding: UnicodeFull
Compacted: 1
UnicodeInterp: none
NameList: AGL For New Fonts
DisplaySize: -48
AntiAlias: 1
FitToEm: 0
WinInfo: 0 27 9
BeginPrivate: 3
BlueValues 24 [-10 0 520 530 730 750 ]
OtherBlues 12 [-220 -220 ]
BlueShift 1 9
EndPrivate
BeginChars: 1114125 955

StartChar: .notdef
Encoding: 1114112 -1 0
Width: 477
LayerCount: 2
Fore
SplineSet
328 -140 m 1
 17 -140 l 1
 176 860 l 1
 487 860 l 1
 328 -140 l 1
239 793 m 1
 234 760 l 1
 297 760 l 1
 291 723 l 1
 227 723 l 1
 221 690 l 1
 384 690 l 1
 389 723 l 1
 325 723 l 1
 331 760 l 1
 395 760 l 1
 400 793 l 1
 239 793 l 1
217 664 m 1
 201 560 l 1
 364 560 l 1
 369 594 l 1
 304 594 l 1
 315 664 l 1
 217 664 l 1
271 594 m 1
 239 594 l 1
 244 630 l 1
 277 630 l 1
 271 594 l 1
197 533 m 1
 191 500 l 1
 256 500 l 1
 250 463 l 1
 185 463 l 1
 180 430 l 1
 278 430 l 1
 289 500 l 1
 354 500 l 1
 359 533 l 1
 197 533 l 1
317 473 m 1
 307 407 l 1
 177 407 l 1
 171 373 l 1
 334 373 l 1
 350 473 l 1
 317 473 l 1
232 351 m 1
 224 295 l 1
 257 295 l 1
 261 318 l 1
 293 318 l 1
 285 271 l 1
 187 271 l 1
 200 351 l 1
 168 351 l 1
 150 238 l 1
 313 238 l 1
 330 351 l 1
 232 351 l 1
140 178 m 1
 122 65 l 1
 285 65 l 1
 303 178 l 1
 140 178 l 1
258 98 m 1
 160 98 l 1
 167 145 l 1
 265 145 l 1
 258 98 l 1
119 42 m 1
 114 9 l 1
 182 9 l 1
 106 -38 l 1
 101 -71 l 1
 264 -71 l 1
 269 -38 l 1
 169 -38 l 1
 245 9 l 1
 276 9 l 1
 281 42 l 1
 119 42 l 1
EndSplineSet
EndChar

StartChar: A
Encoding: 65 65 2
Width: 641
Flags: W
LayerCount: 2
Fore
SplineSet
527 0 m 1
 481 219 l 1
 138 219 l 1
 23 0 l 1
 -30 0 l 1
 357 730 l 1
 425 730 l 1
 581 0 l 1
 527 0 l 1
163 266 m 1
 472 266 l 1
 385 686 l 1
 383 686 l 1
 163 266 l 1
EndSplineSet
EndChar

StartChar: Aacute
Encoding: 193 193 3
Width: 657
Flags: W
LayerCount: 2
Fore
SplineSet
527 0 m 1
 481 219 l 1
 138 219 l 1
 23 0 l 1
 -30 0 l 1
 357 730 l 1
 425 730 l 1
 581 0 l 1
 527 0 l 1
163 266 m 1
 472 266 l 1
 385 686 l 1
 383 686 l 1
 163 266 l 1
393 770 m 1
 342 770 l 1
 486 980 l 1
 546 980 l 1
 393 770 l 1
EndSplineSet
EndChar

StartChar: Abreve
Encoding: 258 258 4
Width: 657
Flags: W
LayerCount: 2
Fore
SplineSet
527 0 m 1
 481 219 l 1
 138 219 l 1
 23 0 l 1
 -30 0 l 1
 357 730 l 1
 425 730 l 1
 581 0 l 1
 527 0 l 1
163 266 m 1
 472 266 l 1
 385 686 l 1
 383 686 l 1
 163 266 l 1
279 836 m 0
 252 860 239 893 240 934 c 1
 290 934 l 1
 291 905 300 882 319 865 c 0
 338 848 363 840 395 840 c 0
 427 840 455 848 479 865 c 0
 503 882 520 905 530 934 c 1
 581 934 l 1
 569 893 545 860 510 836 c 0
 475 810 434 798 389 798 c 0
 344 798 307 810 279 836 c 0
EndSplineSet
EndChar

StartChar: uni1EAE
Encoding: 7854 7854 5
Width: 657
Flags: W
LayerCount: 2
Fore
SplineSet
527 0 m 1
 481 219 l 1
 138 219 l 1
 23 0 l 1
 -30 0 l 1
 357 730 l 1
 425 730 l 1
 581 0 l 1
 527 0 l 1
163 266 m 1
 472 266 l 1
 385 686 l 1
 383 686 l 1
 163 266 l 1
279 836 m 0
 252 860 239 893 240 934 c 1
 290 934 l 1
 291 905 300 882 319 865 c 0
 338 848 363 840 395 840 c 0
 427 840 455 848 479 865 c 0
 503 882 520 905 530 934 c 1
 581 934 l 1
 569 893 545 860 510 836 c 0
 475 810 434 798 389 798 c 0
 344 798 307 810 279 836 c 0
417 920 m 1
 366 920 l 1
 510 1130 l 1
 570 1130 l 1
 417 920 l 1
EndSplineSet
EndChar

StartChar: uni1EB6
Encoding: 7862 7862 6
Width: 657
Flags: W
LayerCount: 2
Fore
SplineSet
527 0 m 1
 481 219 l 1
 138 219 l 1
 23 0 l 1
 -30 0 l 1
 357 730 l 1
 425 730 l 1
 581 0 l 1
 527 0 l 1
163 266 m 1
 472 266 l 1
 385 686 l 1
 383 686 l 1
 163 266 l 1
236 -104 m 1
 316 -104 l 1
 303 -186 l 1
 223 -186 l 1
 236 -104 l 1
279 836 m 0
 252 860 239 893 240 934 c 1
 290 934 l 1
 291 905 300 882 319 865 c 0
 338 848 363 840 395 840 c 0
 427 840 455 848 479 865 c 0
 503 882 520 905 530 934 c 1
 581 934 l 1
 569 893 545 860 510 836 c 0
 475 810 434 798 389 798 c 0
 344 798 307 810 279 836 c 0
EndSplineSet
EndChar

StartChar: uni1EB0
Encoding: 7856 7856 7
Width: 657
Flags: W
LayerCount: 2
Fore
SplineSet
527 0 m 1
 481 219 l 1
 138 219 l 1
 23 0 l 1
 -30 0 l 1
 357 730 l 1
 425 730 l 1
 581 0 l 1
 527 0 l 1
163 266 m 1
 472 266 l 1
 385 686 l 1
 383 686 l 1
 163 266 l 1
279 836 m 0
 252 860 239 893 240 934 c 1
 290 934 l 1
 291 905 300 882 319 865 c 0
 338 848 363 840 395 840 c 0
 427 840 455 848 479 865 c 0
 503 882 520 905 530 934 c 1
 581 934 l 1
 569 893 545 860 510 836 c 0
 475 810 434 798 389 798 c 0
 344 798 307 810 279 836 c 0
309 1130 m 1
 370 1130 l 1
 446 920 l 1
 396 920 l 1
 309 1130 l 1
EndSplineSet
EndChar

StartChar: uni1EB2
Encoding: 7858 7858 8
Width: 641
Flags: W
LayerCount: 2
Fore
SplineSet
488 862 m 0
 512 878 528 898 539 925 c 1
 491 925 l 1
 496 935 502 948 508 964 c 0
 514 980 518 994 520 1005 c 0
 523 1024 518 1036 507 1043 c 0
 496 1050 472 1053 437 1053 c 0
 400 1053 360 1048 317 1037 c 1
 317 1078 l 1
 364 1089 410 1095 453 1095 c 0
 502 1095 536 1090 554 1078 c 0
 571 1068 578 1048 573 1019 c 0
 571 1007 568 993 562 978 c 0
 558 962 552 947 546 934 c 1
 594 934 l 1
 582 893 558 860 523 836 c 0
 488 810 447 798 402 798 c 0
 356 798 319 810 292 836 c 0
 265 860 252 893 253 934 c 1
 304 934 l 1
 305 905 314 882 332 865 c 0
 351 848 376 840 408 840 c 0
 439 840 466 848 488 862 c 0
527 0 m 1
 481 219 l 1
 138 219 l 1
 23 0 l 1
 -30 0 l 1
 357 730 l 1
 425 730 l 1
 581 0 l 1
 527 0 l 1
163 266 m 1
 472 266 l 1
 385 686 l 1
 383 686 l 1
 163 266 l 1
EndSplineSet
EndChar

StartChar: uni1EB4
Encoding: 7860 7860 9
Width: 657
Flags: W
LayerCount: 2
Fore
SplineSet
527 0 m 1
 481 219 l 1
 138 219 l 1
 23 0 l 1
 -30 0 l 1
 357 730 l 1
 425 730 l 1
 581 0 l 1
 527 0 l 1
163 266 m 1
 472 266 l 1
 385 686 l 1
 383 686 l 1
 163 266 l 1
279 836 m 0
 252 860 239 893 240 934 c 1
 290 934 l 1
 291 905 300 882 319 865 c 0
 338 848 363 840 395 840 c 0
 427 840 455 848 479 865 c 0
 503 882 520 905 530 934 c 1
 581 934 l 1
 569 893 545 860 510 836 c 0
 475 810 434 798 389 798 c 0
 344 798 307 810 279 836 c 0
472 1002 m 0
 454 1012 438 1024 422 1040 c 0
 397 1066 374 1079 353 1079 c 0
 342 1079 332 1073 326 1061 c 0
 318 1049 313 1028 308 999 c 1
 261 999 l 1
 274 1084 307 1127 360 1127 c 0
 376 1127 393 1122 410 1114 c 0
 427 1104 444 1092 459 1076 c 0
 484 1050 508 1037 529 1037 c 0
 540 1037 550 1043 556 1055 c 0
 564 1067 569 1088 574 1117 c 1
 621 1117 l 1
 608 1032 574 989 521 989 c 0
 505 989 488 994 472 1002 c 0
EndSplineSet
EndChar

StartChar: Acircumflex
Encoding: 194 194 10
Width: 657
Flags: W
LayerCount: 2
Fore
SplineSet
527 0 m 1
 481 219 l 1
 138 219 l 1
 23 0 l 1
 -30 0 l 1
 357 730 l 1
 425 730 l 1
 581 0 l 1
 527 0 l 1
163 266 m 1
 472 266 l 1
 385 686 l 1
 383 686 l 1
 163 266 l 1
379 980 m 1
 462 980 l 1
 572 770 l 1
 514 770 l 1
 417 954 l 1
 415 954 l 1
 261 770 l 1
 203 770 l 1
 379 980 l 1
EndSplineSet
EndChar

StartChar: uni1EA4
Encoding: 7844 7844 11
Width: 657
Flags: W
LayerCount: 2
Fore
SplineSet
527 0 m 1
 481 219 l 1
 138 219 l 1
 23 0 l 1
 -30 0 l 1
 357 730 l 1
 425 730 l 1
 581 0 l 1
 527 0 l 1
163 266 m 1
 472 266 l 1
 385 686 l 1
 383 686 l 1
 163 266 l 1
379 980 m 1
 462 980 l 1
 572 770 l 1
 514 770 l 1
 417 954 l 1
 415 954 l 1
 261 770 l 1
 203 770 l 1
 379 980 l 1
592 950 m 1
 541 950 l 1
 685 1160 l 1
 745 1160 l 1
 592 950 l 1
EndSplineSet
EndChar

StartChar: uni1EAC
Encoding: 7852 7852 12
Width: 657
Flags: W
LayerCount: 2
Fore
SplineSet
527 0 m 1
 481 219 l 1
 138 219 l 1
 23 0 l 1
 -30 0 l 1
 357 730 l 1
 425 730 l 1
 581 0 l 1
 527 0 l 1
163 266 m 1
 472 266 l 1
 385 686 l 1
 383 686 l 1
 163 266 l 1
236 -104 m 1
 316 -104 l 1
 303 -186 l 1
 223 -186 l 1
 236 -104 l 1
379 980 m 1
 462 980 l 1
 572 770 l 1
 514 770 l 1
 417 954 l 1
 415 954 l 1
 261 770 l 1
 203 770 l 1
 379 980 l 1
EndSplineSet
EndChar

StartChar: uni1EA6
Encoding: 7846 7846 13
Width: 657
Flags: W
LayerCount: 2
Fore
SplineSet
527 0 m 1
 481 219 l 1
 138 219 l 1
 23 0 l 1
 -30 0 l 1
 357 730 l 1
 425 730 l 1
 581 0 l 1
 527 0 l 1
163 266 m 1
 472 266 l 1
 385 686 l 1
 383 686 l 1
 163 266 l 1
379 980 m 1
 462 980 l 1
 572 770 l 1
 514 770 l 1
 417 954 l 1
 415 954 l 1
 261 770 l 1
 203 770 l 1
 379 980 l 1
144 1160 m 1
 205 1160 l 1
 281 950 l 1
 231 950 l 1
 144 1160 l 1
EndSplineSet
EndChar

StartChar: uni1EA8
Encoding: 7848 7848 14
Width: 657
Flags: W
LayerCount: 2
Fore
SplineSet
527 0 m 1
 481 219 l 1
 138 219 l 1
 23 0 l 1
 -30 0 l 1
 357 730 l 1
 425 730 l 1
 581 0 l 1
 527 0 l 1
163 266 m 1
 472 266 l 1
 385 686 l 1
 383 686 l 1
 163 266 l 1
379 980 m 1
 462 980 l 1
 572 770 l 1
 514 770 l 1
 417 954 l 1
 415 954 l 1
 261 770 l 1
 203 770 l 1
 379 980 l 1
592 977 m 0
 598 993 602 1007 604 1018 c 0
 607 1037 602 1049 591 1056 c 0
 580 1063 556 1066 521 1066 c 0
 484 1066 444 1061 401 1050 c 1
 401 1091 l 1
 448 1102 494 1108 537 1108 c 0
 586 1108 620 1102 638 1092 c 0
 655 1080 662 1061 657 1032 c 0
 655 1019 651 1003 645 985 c 0
 639 967 633 951 626 938 c 1
 576 938 l 1
 581 948 587 961 592 977 c 0
EndSplineSet
EndChar

StartChar: uni1EAA
Encoding: 7850 7850 15
Width: 657
Flags: W
LayerCount: 2
Fore
SplineSet
527 0 m 1
 481 219 l 1
 138 219 l 1
 23 0 l 1
 -30 0 l 1
 357 730 l 1
 425 730 l 1
 581 0 l 1
 527 0 l 1
163 266 m 1
 472 266 l 1
 385 686 l 1
 383 686 l 1
 163 266 l 1
379 980 m 1
 462 980 l 1
 572 770 l 1
 514 770 l 1
 417 954 l 1
 415 954 l 1
 261 770 l 1
 203 770 l 1
 379 980 l 1
472 1002 m 0
 454 1012 438 1024 422 1040 c 0
 397 1066 374 1079 353 1079 c 0
 342 1079 332 1073 326 1061 c 0
 318 1049 313 1028 308 999 c 1
 261 999 l 1
 274 1084 307 1127 360 1127 c 0
 376 1127 393 1122 410 1114 c 0
 427 1104 444 1092 459 1076 c 0
 484 1050 508 1037 529 1037 c 0
 540 1037 550 1043 556 1055 c 0
 564 1067 569 1088 574 1117 c 1
 621 1117 l 1
 608 1032 574 989 521 989 c 0
 505 989 488 994 472 1002 c 0
EndSplineSet
EndChar

StartChar: uni0200
Encoding: 512 512 16
Width: 657
Flags: W
LayerCount: 2
Fore
SplineSet
527 0 m 1
 481 219 l 1
 138 219 l 1
 23 0 l 1
 -30 0 l 1
 357 730 l 1
 425 730 l 1
 581 0 l 1
 527 0 l 1
163 266 m 1
 472 266 l 1
 385 686 l 1
 383 686 l 1
 163 266 l 1
199 980 m 1
 260 980 l 1
 337 770 l 1
 287 770 l 1
 199 980 l 1
390 980 m 1
 451 980 l 1
 528 770 l 1
 478 770 l 1
 390 980 l 1
EndSplineSet
EndChar

StartChar: Adieresis
Encoding: 196 196 17
Width: 657
Flags: W
LayerCount: 2
Fore
SplineSet
527 0 m 1
 481 219 l 1
 138 219 l 1
 23 0 l 1
 -30 0 l 1
 357 730 l 1
 425 730 l 1
 581 0 l 1
 527 0 l 1
163 266 m 1
 472 266 l 1
 385 686 l 1
 383 686 l 1
 163 266 l 1
297 916 m 1
 377 916 l 1
 364 834 l 1
 284 834 l 1
 297 916 l 1
537 916 m 1
 616 916 l 1
 603 834 l 1
 524 834 l 1
 537 916 l 1
EndSplineSet
EndChar

StartChar: uni1EA0
Encoding: 7840 7840 18
Width: 657
Flags: W
LayerCount: 2
Fore
SplineSet
527 0 m 1
 481 219 l 1
 138 219 l 1
 23 0 l 1
 -30 0 l 1
 357 730 l 1
 425 730 l 1
 581 0 l 1
 527 0 l 1
163 266 m 1
 472 266 l 1
 385 686 l 1
 383 686 l 1
 163 266 l 1
236 -104 m 1
 316 -104 l 1
 303 -186 l 1
 223 -186 l 1
 236 -104 l 1
EndSplineSet
EndChar

StartChar: Agrave
Encoding: 192 192 19
Width: 657
Flags: W
LayerCount: 2
Fore
SplineSet
527 0 m 1
 481 219 l 1
 138 219 l 1
 23 0 l 1
 -30 0 l 1
 357 730 l 1
 425 730 l 1
 581 0 l 1
 527 0 l 1
163 266 m 1
 472 266 l 1
 385 686 l 1
 383 686 l 1
 163 266 l 1
285 980 m 1
 346 980 l 1
 422 770 l 1
 372 770 l 1
 285 980 l 1
EndSplineSet
EndChar

StartChar: uni1EA2
Encoding: 7842 7842 20
Width: 657
Flags: W
LayerCount: 2
Fore
SplineSet
527 0 m 1
 481 219 l 1
 138 219 l 1
 23 0 l 1
 -30 0 l 1
 357 730 l 1
 425 730 l 1
 581 0 l 1
 527 0 l 1
163 266 m 1
 472 266 l 1
 385 686 l 1
 383 686 l 1
 163 266 l 1
518 847 m 0
 524 863 528 877 530 888 c 0
 533 907 528 919 517 926 c 0
 506 933 482 936 447 936 c 0
 410 936 370 931 327 920 c 1
 327 961 l 1
 374 972 420 978 463 978 c 0
 512 978 546 972 564 962 c 0
 581 950 588 931 583 902 c 0
 581 889 577 873 571 855 c 0
 565 837 559 821 552 808 c 1
 502 808 l 1
 507 818 513 831 518 847 c 0
EndSplineSet
EndChar

StartChar: uni0202
Encoding: 514 514 21
Width: 657
Flags: W
LayerCount: 2
Fore
SplineSet
527 0 m 1
 481 219 l 1
 138 219 l 1
 23 0 l 1
 -30 0 l 1
 357 730 l 1
 425 730 l 1
 581 0 l 1
 527 0 l 1
163 266 m 1
 472 266 l 1
 385 686 l 1
 383 686 l 1
 163 266 l 1
522 914 m 0
 550 890 563 857 562 816 c 1
 511 816 l 1
 510 845 501 868 482 885 c 0
 463 902 438 910 406 910 c 0
 374 910 346 902 322 885 c 0
 299 868 282 845 272 816 c 1
 221 816 l 1
 233 857 256 890 292 914 c 0
 326 940 367 952 413 952 c 0
 458 952 495 940 522 914 c 0
EndSplineSet
EndChar

StartChar: Amacron
Encoding: 256 256 22
Width: 657
Flags: W
LayerCount: 2
Fore
SplineSet
527 0 m 1
 481 219 l 1
 138 219 l 1
 23 0 l 1
 -30 0 l 1
 357 730 l 1
 425 730 l 1
 581 0 l 1
 527 0 l 1
163 266 m 1
 472 266 l 1
 385 686 l 1
 383 686 l 1
 163 266 l 1
235 896 m 1
 577 896 l 1
 570 854 l 1
 228 854 l 1
 235 896 l 1
EndSplineSet
EndChar

StartChar: Aogonek
Encoding: 260 260 23
Width: 647
Flags: W
LayerCount: 2
Fore
SplineSet
635 -198 m 1
 602 -212 566 -219 529 -219 c 0
 480 -219 447 -210 428 -192 c 0
 410 -175 403 -153 407 -127 c 0
 411 -103 423 -80 444 -56 c 0
 464 -34 491 -12 526 9 c 1
 481 219 l 1
 138 219 l 1
 23 0 l 1
 -30 0 l 1
 357 730 l 1
 425 730 l 1
 581 0 l 1
 543 -19 513 -40 492 -60 c 0
 470 -82 457 -102 454 -121 c 0
 451 -141 457 -155 474 -164 c 0
 490 -173 511 -177 538 -177 c 0
 571 -177 601 -171 630 -158 c 1
 635 -198 l 1
163 266 m 1
 472 266 l 1
 385 686 l 1
 383 686 l 1
 163 266 l 1
EndSplineSet
EndChar

StartChar: Aring
Encoding: 197 197 24
Width: 641
Flags: W
LayerCount: 2
Fore
SplineSet
481 219 m 1
 138 219 l 1
 23 0 l 1
 -30 0 l 1
 350 718 l 1
 325 727 305 743 292 766 c 0
 279 789 274 816 279 845 c 0
 283 869 292 891 307 912 c 0
 322 932 340 948 362 960 c 0
 384 972 407 978 430 978 c 0
 454 978 475 972 493 960 c 0
 511 948 524 932 533 912 c 0
 542 891 544 869 540 845 c 0
 535 815 523 788 502 765 c 0
 481 742 457 726 428 718 c 1
 581 0 l 1
 527 0 l 1
 481 219 l 1
334 779 m 0
 350 761 369 752 394 752 c 0
 419 752 442 761 464 779 c 0
 484 797 497 819 501 845 c 0
 505 871 500 893 484 911 c 0
 470 929 449 938 424 938 c 0
 399 938 376 929 356 911 c 0
 334 893 322 871 318 845 c 0
 314 819 320 797 334 779 c 0
163 266 m 1
 472 266 l 1
 385 686 l 1
 383 686 l 1
 163 266 l 1
EndSplineSet
EndChar

StartChar: Aringacute
Encoding: 506 506 25
Width: 641
Flags: W
LayerCount: 2
Fore
SplineSet
481 219 m 1
 138 219 l 1
 23 0 l 1
 -30 0 l 1
 350 718 l 1
 325 727 305 743 292 766 c 0
 279 789 274 816 279 845 c 0
 282 867 290 888 303 906 c 0
 316 926 331 941 350 953 c 1
 490 1157 l 1
 550 1157 l 1
 419 978 l 1
 430 978 l 2
 454 978 475 972 493 960 c 0
 511 948 524 932 533 912 c 0
 542 891 544 869 540 845 c 0
 535 815 523 788 502 765 c 0
 481 742 457 726 428 718 c 1
 581 0 l 1
 527 0 l 1
 481 219 l 1
334 779 m 0
 350 761 369 752 394 752 c 0
 419 752 442 761 464 779 c 0
 484 797 497 819 501 845 c 0
 505 871 500 893 484 911 c 0
 470 929 449 938 424 938 c 0
 399 938 376 929 356 911 c 0
 334 893 322 871 318 845 c 0
 314 819 320 797 334 779 c 0
163 266 m 1
 472 266 l 1
 385 686 l 1
 383 686 l 1
 163 266 l 1
EndSplineSet
EndChar

StartChar: Atilde
Encoding: 195 195 26
Width: 657
Flags: W
LayerCount: 2
Fore
SplineSet
527 0 m 1
 481 219 l 1
 138 219 l 1
 23 0 l 1
 -30 0 l 1
 357 730 l 1
 425 730 l 1
 581 0 l 1
 527 0 l 1
163 266 m 1
 472 266 l 1
 385 686 l 1
 383 686 l 1
 163 266 l 1
442 820 m 0
 426 828 409 841 393 857 c 0
 368 883 345 896 324 896 c 0
 313 896 304 890 296 878 c 0
 290 866 284 845 279 816 c 1
 232 816 l 1
 245 901 278 944 331 944 c 0
 347 944 364 940 381 930 c 0
 398 922 415 909 430 893 c 0
 455 867 479 854 500 854 c 0
 511 854 520 860 528 872 c 0
 534 884 540 905 545 934 c 1
 592 934 l 1
 579 849 545 806 492 806 c 0
 476 806 460 810 442 820 c 0
EndSplineSet
EndChar

StartChar: AE
Encoding: 198 198 27
Width: 799
Flags: W
LayerCount: 2
Fore
SplineSet
800 684 m 1
 514 684 l 1
 471 410 l 1
 737 410 l 1
 730 365 l 1
 463 365 l 1
 413 46 l 1
 699 46 l 1
 692 0 l 1
 358 0 l 1
 392 219 l 1
 158 219 l 1
 24 0 l 1
 -30 0 l 1
 421 730 l 1
 807 730 l 1
 800 684 l 1
187 266 m 1
 400 266 l 1
 466 687 l 1
 445 687 l 1
 187 266 l 1
EndSplineSet
EndChar

StartChar: AEacute
Encoding: 508 508 28
Width: 822
Flags: W
LayerCount: 2
Fore
SplineSet
800 684 m 1
 514 684 l 1
 471 410 l 1
 737 410 l 1
 730 365 l 1
 463 365 l 1
 413 46 l 1
 699 46 l 1
 692 0 l 1
 358 0 l 1
 392 219 l 1
 158 219 l 1
 24 0 l 1
 -30 0 l 1
 421 730 l 1
 807 730 l 1
 800 684 l 1
187 266 m 1
 400 266 l 1
 466 687 l 1
 445 687 l 1
 187 266 l 1
511 770 m 1
 460 770 l 1
 604 980 l 1
 664 980 l 1
 511 770 l 1
EndSplineSet
EndChar

StartChar: B
Encoding: 66 66 29
Width: 602
Flags: W
LayerCount: 2
Fore
SplineSet
532 328 m 0
 556 296 564 255 556 202 c 0
 545 133 513 82 459 50 c 0
 405 16 327 0 226 0 c 2
 37 0 l 1
 153 730 l 1
 341 730 l 2
 429 730 492 716 532 686 c 0
 570 658 585 613 575 554 c 0
 568 511 551 475 524 448 c 0
 496 421 458 402 410 391 c 1
 410 389 l 1
 467 379 508 358 532 328 c 0
194 684 m 1
 151 410 l 1
 291 410 l 2
 364 410 419 421 457 444 c 0
 495 466 518 501 525 548 c 0
 532 595 521 629 490 651 c 0
 459 673 407 684 334 684 c 2
 194 684 l 1
428 84 m 0
 471 110 497 150 506 205 c 0
 515 260 501 301 465 326 c 0
 429 352 369 365 284 365 c 2
 144 365 l 1
 93 46 l 1
 233 46 l 2
 319 46 384 59 428 84 c 0
EndSplineSet
EndChar

StartChar: C
Encoding: 67 67 30
Width: 665
Flags: W
LayerCount: 2
Fore
SplineSet
166 36 m 0
 118 67 84 110 65 166 c 0
 46 223 42 289 54 365 c 0
 66 441 91 507 128 564 c 0
 166 620 214 663 271 694 c 0
 328 725 393 740 464 740 c 0
 549 740 621 718 678 675 c 1
 650 634 l 1
 596 674 532 694 459 694 c 0
 398 694 342 680 292 654 c 0
 242 626 201 588 168 539 c 0
 135 490 114 432 103 365 c 0
 92 298 96 240 112 191 c 0
 130 142 159 104 200 76 c 0
 241 50 293 36 354 36 c 0
 428 36 498 56 565 96 c 1
 580 55 l 1
 509 12 431 -10 345 -10 c 0
 274 -10 214 5 166 36 c 0
EndSplineSet
EndChar

StartChar: Cacute
Encoding: 262 262 31
Width: 686
Flags: W
LayerCount: 2
Fore
SplineSet
166 36 m 0
 118 67 84 110 65 166 c 0
 46 223 42 289 54 365 c 0
 66 441 91 507 128 564 c 0
 166 620 214 663 271 694 c 0
 328 725 393 740 464 740 c 0
 549 740 621 718 678 675 c 1
 650 634 l 1
 596 674 532 694 459 694 c 0
 398 694 342 680 292 654 c 0
 242 626 201 588 168 539 c 0
 135 490 114 432 103 365 c 0
 92 298 96 240 112 191 c 0
 130 142 159 104 200 76 c 0
 241 50 293 36 354 36 c 0
 428 36 498 56 565 96 c 1
 580 55 l 1
 509 12 431 -10 345 -10 c 0
 274 -10 214 5 166 36 c 0
444 770 m 1
 393 770 l 1
 537 980 l 1
 597 980 l 1
 444 770 l 1
EndSplineSet
EndChar

StartChar: Ccaron
Encoding: 268 268 32
Width: 686
Flags: W
LayerCount: 2
Fore
SplineSet
166 36 m 0
 118 67 84 110 65 166 c 0
 46 223 42 289 54 365 c 0
 66 441 91 507 128 564 c 0
 166 620 214 663 271 694 c 0
 328 725 393 740 464 740 c 0
 549 740 621 718 678 675 c 1
 650 634 l 1
 596 674 532 694 459 694 c 0
 398 694 342 680 292 654 c 0
 242 626 201 588 168 539 c 0
 135 490 114 432 103 365 c 0
 92 298 96 240 112 191 c 0
 130 142 159 104 200 76 c 0
 241 50 293 36 354 36 c 0
 428 36 498 56 565 96 c 1
 580 55 l 1
 509 12 431 -10 345 -10 c 0
 274 -10 214 5 166 36 c 0
288 980 m 1
 346 980 l 1
 442 796 l 1
 444 796 l 1
 599 980 l 1
 657 980 l 1
 480 770 l 1
 398 770 l 1
 288 980 l 1
EndSplineSet
EndChar

StartChar: Ccedilla
Encoding: 199 199 33
Width: 665
Flags: W
LayerCount: 2
Fore
SplineSet
580 55 m 1
 515 16 444 -6 369 -9 c 1
 412 -48 430 -87 424 -128 c 0
 420 -154 406 -176 382 -194 c 0
 357 -211 321 -220 273 -220 c 0
 235 -220 201 -213 172 -199 c 1
 189 -159 l 1
 215 -172 244 -178 276 -178 c 0
 303 -178 326 -174 345 -165 c 0
 364 -156 375 -142 378 -122 c 0
 381 -103 375 -84 362 -65 c 0
 349 -46 328 -27 300 -8 c 1
 238 -2 187 17 146 50 c 0
 105 82 77 125 61 178 c 0
 45 232 43 294 54 365 c 0
 66 441 91 507 128 564 c 0
 166 620 214 663 271 694 c 0
 328 725 393 740 464 740 c 0
 549 740 621 718 678 675 c 1
 650 634 l 1
 596 674 532 694 459 694 c 0
 398 694 342 680 292 654 c 0
 242 626 201 588 168 539 c 0
 135 490 114 432 103 365 c 0
 92 298 96 240 112 191 c 0
 130 142 159 104 200 76 c 0
 241 50 293 36 354 36 c 0
 428 36 498 56 565 96 c 1
 580 55 l 1
EndSplineSet
EndChar

StartChar: Ccircumflex
Encoding: 264 264 34
Width: 686
Flags: W
LayerCount: 2
Fore
SplineSet
166 36 m 0
 118 67 84 110 65 166 c 0
 46 223 42 289 54 365 c 0
 66 441 91 507 128 564 c 0
 166 620 214 663 271 694 c 0
 328 725 393 740 464 740 c 0
 549 740 621 718 678 675 c 1
 650 634 l 1
 596 674 532 694 459 694 c 0
 398 694 342 680 292 654 c 0
 242 626 201 588 168 539 c 0
 135 490 114 432 103 365 c 0
 92 298 96 240 112 191 c 0
 130 142 159 104 200 76 c 0
 241 50 293 36 354 36 c 0
 428 36 498 56 565 96 c 1
 580 55 l 1
 509 12 431 -10 345 -10 c 0
 274 -10 214 5 166 36 c 0
431 980 m 1
 514 980 l 1
 624 770 l 1
 566 770 l 1
 469 954 l 1
 467 954 l 1
 313 770 l 1
 255 770 l 1
 431 980 l 1
EndSplineSet
EndChar

StartChar: Cdotaccent
Encoding: 266 266 35
Width: 686
Flags: W
LayerCount: 2
Fore
SplineSet
166 36 m 0
 118 67 84 110 65 166 c 0
 46 223 42 289 54 365 c 0
 66 441 91 507 128 564 c 0
 166 620 214 663 271 694 c 0
 328 725 393 740 464 740 c 0
 549 740 621 718 678 675 c 1
 650 634 l 1
 596 674 532 694 459 694 c 0
 398 694 342 680 292 654 c 0
 242 626 201 588 168 539 c 0
 135 490 114 432 103 365 c 0
 92 298 96 240 112 191 c 0
 130 142 159 104 200 76 c 0
 241 50 293 36 354 36 c 0
 428 36 498 56 565 96 c 1
 580 55 l 1
 509 12 431 -10 345 -10 c 0
 274 -10 214 5 166 36 c 0
449 916 m 1
 529 916 l 1
 516 834 l 1
 436 834 l 1
 449 916 l 1
EndSplineSet
EndChar

StartChar: D
Encoding: 68 68 36
Width: 653
Flags: W
LayerCount: 2
Fore
SplineSet
321 730 m 2
 441 730 527 699 578 638 c 0
 629 577 645 486 626 365 c 0
 607 244 562 153 492 92 c 0
 421 31 326 0 205 0 c 2
 37 0 l 1
 153 730 l 1
 321 730 l 2
461 125 m 0
 520 178 559 258 576 365 c 0
 593 472 580 552 538 605 c 0
 494 658 421 684 316 684 c 2
 194 684 l 1
 93 46 l 1
 215 46 l 2
 320 46 402 72 461 125 c 0
EndSplineSet
EndChar

StartChar: uni01C4
Encoding: 452 452 37
Width: 1263
Flags: W
LayerCount: 2
Fore
SplineSet
321 730 m 2
 441 730 527 699 578 638 c 0
 629 577 645 486 626 365 c 0
 607 244 562 153 492 92 c 0
 421 31 326 0 205 0 c 2
 37 0 l 1
 153 730 l 1
 321 730 l 2
461 125 m 0
 520 178 559 258 576 365 c 0
 593 472 580 552 538 605 c 0
 494 658 421 684 316 684 c 2
 194 684 l 1
 93 46 l 1
 215 46 l 2
 320 46 402 72 461 125 c 0
657 46 m 1
 1177 682 l 1
 1177 684 l 1
 758 684 l 1
 765 730 l 1
 1245 730 l 1
 1238 684 l 1
 718 48 l 1
 718 46 l 1
 1137 46 l 1
 1130 0 l 1
 650 0 l 1
 657 46 l 1
854 980 m 1
 912 980 l 1
 1008 796 l 1
 1010 796 l 1
 1165 980 l 1
 1223 980 l 1
 1046 770 l 1
 964 770 l 1
 854 980 l 1
EndSplineSet
EndChar

StartChar: Eth
Encoding: 208 208 38
Width: 705
Flags: W
LayerCount: 2
Fore
SplineSet
630 638 m 0
 680 577 696 486 677 365 c 0
 658 244 613 153 542 92 c 0
 472 31 377 0 257 0 c 2
 89 0 l 1
 144 343 l 1
 36 343 l 1
 43 387 l 1
 150 387 l 1
 205 730 l 1
 372 730 l 2
 493 730 578 699 630 638 c 0
514 125 m 0
 573 178 611 258 628 365 c 0
 645 472 632 552 590 605 c 0
 546 658 473 684 368 684 c 2
 246 684 l 1
 199 387 l 1
 447 387 l 1
 440 343 l 1
 192 343 l 1
 144 46 l 1
 267 46 l 2
 372 46 454 72 514 125 c 0
EndSplineSet
EndChar

StartChar: Dcaron
Encoding: 270 270 39
Width: 676
Flags: W
LayerCount: 2
Fore
SplineSet
321 730 m 2
 441 730 527 699 578 638 c 0
 629 577 645 486 626 365 c 0
 607 244 562 153 492 92 c 0
 421 31 326 0 205 0 c 2
 37 0 l 1
 153 730 l 1
 321 730 l 2
461 125 m 0
 520 178 559 258 576 365 c 0
 593 472 580 552 538 605 c 0
 494 658 421 684 316 684 c 2
 194 684 l 1
 93 46 l 1
 215 46 l 2
 320 46 402 72 461 125 c 0
247 980 m 1
 305 980 l 1
 401 796 l 1
 403 796 l 1
 558 980 l 1
 616 980 l 1
 439 770 l 1
 357 770 l 1
 247 980 l 1
EndSplineSet
EndChar

StartChar: Dcroat
Encoding: 272 272 40
Width: 725
Flags: W
LayerCount: 2
Fore
SplineSet
630 638 m 0
 680 577 696 486 677 365 c 0
 658 244 613 153 542 92 c 0
 472 31 377 0 257 0 c 2
 89 0 l 1
 144 343 l 1
 36 343 l 1
 43 387 l 1
 150 387 l 1
 205 730 l 1
 372 730 l 2
 493 730 578 699 630 638 c 0
514 125 m 0
 573 178 611 258 628 365 c 0
 645 472 632 552 590 605 c 0
 546 658 473 684 368 684 c 2
 246 684 l 1
 199 387 l 1
 447 387 l 1
 440 343 l 1
 192 343 l 1
 144 46 l 1
 267 46 l 2
 372 46 454 72 514 125 c 0
EndSplineSet
EndChar

StartChar: uni01C5
Encoding: 453 453 41
Width: 1157
Flags: W
LayerCount: 2
Fore
SplineSet
321 730 m 2
 441 730 527 699 578 638 c 0
 629 577 645 486 626 365 c 0
 607 244 562 153 492 92 c 0
 421 31 326 0 205 0 c 2
 37 0 l 1
 153 730 l 1
 321 730 l 2
461 125 m 0
 520 178 559 258 576 365 c 0
 593 472 580 552 538 605 c 0
 494 658 421 684 316 684 c 2
 194 684 l 1
 93 46 l 1
 215 46 l 2
 320 46 402 72 461 125 c 0
675 43 m 1
 1051 475 l 1
 1052 477 l 1
 744 477 l 1
 751 520 l 1
 1117 520 l 1
 1111 477 l 1
 734 45 l 1
 734 43 l 1
 1042 43 l 1
 1035 0 l 1
 668 0 l 1
 675 43 l 1
787 770 m 1
 845 770 l 1
 941 586 l 1
 943 586 l 1
 1098 770 l 1
 1156 770 l 1
 979 560 l 1
 897 560 l 1
 787 770 l 1
EndSplineSet
EndChar

StartChar: E
Encoding: 69 69 42
Width: 567
Flags: W
LayerCount: 2
Fore
SplineSet
153 730 m 1
 576 730 l 1
 569 684 l 1
 194 684 l 1
 151 410 l 1
 506 410 l 1
 498 365 l 1
 144 365 l 1
 93 46 l 1
 468 46 l 1
 460 0 l 1
 37 0 l 1
 153 730 l 1
EndSplineSet
EndChar

StartChar: Eacute
Encoding: 201 201 43
Width: 590
Flags: W
LayerCount: 2
Fore
SplineSet
153 730 m 1
 576 730 l 1
 569 684 l 1
 194 684 l 1
 151 410 l 1
 506 410 l 1
 498 365 l 1
 144 365 l 1
 93 46 l 1
 468 46 l 1
 460 0 l 1
 37 0 l 1
 153 730 l 1
374 770 m 1
 323 770 l 1
 467 980 l 1
 527 980 l 1
 374 770 l 1
EndSplineSet
EndChar

StartChar: Ebreve
Encoding: 276 276 44
Width: 590
Flags: W
LayerCount: 2
Fore
SplineSet
153 730 m 1
 576 730 l 1
 569 684 l 1
 194 684 l 1
 151 410 l 1
 506 410 l 1
 498 365 l 1
 144 365 l 1
 93 46 l 1
 468 46 l 1
 460 0 l 1
 37 0 l 1
 153 730 l 1
261 836 m 0
 234 860 221 893 222 934 c 1
 272 934 l 1
 273 905 282 882 301 865 c 0
 320 848 345 840 377 840 c 0
 409 840 437 848 461 865 c 0
 485 882 502 905 512 934 c 1
 563 934 l 1
 551 893 527 860 492 836 c 0
 457 810 416 798 371 798 c 0
 326 798 289 810 261 836 c 0
EndSplineSet
EndChar

StartChar: Ecaron
Encoding: 282 282 45
Width: 590
Flags: W
LayerCount: 2
Fore
SplineSet
153 730 m 1
 576 730 l 1
 569 684 l 1
 194 684 l 1
 151 410 l 1
 506 410 l 1
 498 365 l 1
 144 365 l 1
 93 46 l 1
 468 46 l 1
 460 0 l 1
 37 0 l 1
 153 730 l 1
218 980 m 1
 276 980 l 1
 372 796 l 1
 374 796 l 1
 529 980 l 1
 587 980 l 1
 410 770 l 1
 328 770 l 1
 218 980 l 1
EndSplineSet
EndChar

StartChar: Ecircumflex
Encoding: 202 202 46
Width: 590
Flags: W
LayerCount: 2
Fore
SplineSet
153 730 m 1
 576 730 l 1
 569 684 l 1
 194 684 l 1
 151 410 l 1
 506 410 l 1
 498 365 l 1
 144 365 l 1
 93 46 l 1
 468 46 l 1
 460 0 l 1
 37 0 l 1
 153 730 l 1
361 980 m 1
 444 980 l 1
 554 770 l 1
 496 770 l 1
 399 954 l 1
 397 954 l 1
 243 770 l 1
 185 770 l 1
 361 980 l 1
EndSplineSet
EndChar

StartChar: uni1EBE
Encoding: 7870 7870 47
Width: 590
Flags: W
LayerCount: 2
Fore
SplineSet
153 730 m 1
 576 730 l 1
 569 684 l 1
 194 684 l 1
 151 410 l 1
 506 410 l 1
 498 365 l 1
 144 365 l 1
 93 46 l 1
 468 46 l 1
 460 0 l 1
 37 0 l 1
 153 730 l 1
361 980 m 1
 444 980 l 1
 554 770 l 1
 496 770 l 1
 399 954 l 1
 397 954 l 1
 243 770 l 1
 185 770 l 1
 361 980 l 1
574 950 m 1
 523 950 l 1
 667 1160 l 1
 727 1160 l 1
 574 950 l 1
EndSplineSet
EndChar

StartChar: uni1EC6
Encoding: 7878 7878 48
Width: 590
Flags: W
LayerCount: 2
Fore
SplineSet
153 730 m 1
 576 730 l 1
 569 684 l 1
 194 684 l 1
 151 410 l 1
 506 410 l 1
 498 365 l 1
 144 365 l 1
 93 46 l 1
 468 46 l 1
 460 0 l 1
 37 0 l 1
 153 730 l 1
218 -104 m 1
 298 -104 l 1
 285 -186 l 1
 205 -186 l 1
 218 -104 l 1
361 980 m 1
 444 980 l 1
 554 770 l 1
 496 770 l 1
 399 954 l 1
 397 954 l 1
 243 770 l 1
 185 770 l 1
 361 980 l 1
EndSplineSet
EndChar

StartChar: uni1EC0
Encoding: 7872 7872 49
Width: 590
Flags: W
LayerCount: 2
Fore
SplineSet
153 730 m 1
 576 730 l 1
 569 684 l 1
 194 684 l 1
 151 410 l 1
 506 410 l 1
 498 365 l 1
 144 365 l 1
 93 46 l 1
 468 46 l 1
 460 0 l 1
 37 0 l 1
 153 730 l 1
361 980 m 1
 444 980 l 1
 554 770 l 1
 496 770 l 1
 399 954 l 1
 397 954 l 1
 243 770 l 1
 185 770 l 1
 361 980 l 1
126 1160 m 1
 187 1160 l 1
 263 950 l 1
 213 950 l 1
 126 1160 l 1
EndSplineSet
EndChar

StartChar: uni1EC2
Encoding: 7874 7874 50
Width: 590
Flags: W
LayerCount: 2
Fore
SplineSet
153 730 m 1
 576 730 l 1
 569 684 l 1
 194 684 l 1
 151 410 l 1
 506 410 l 1
 498 365 l 1
 144 365 l 1
 93 46 l 1
 468 46 l 1
 460 0 l 1
 37 0 l 1
 153 730 l 1
361 980 m 1
 444 980 l 1
 554 770 l 1
 496 770 l 1
 399 954 l 1
 397 954 l 1
 243 770 l 1
 185 770 l 1
 361 980 l 1
574 977 m 0
 580 993 584 1007 586 1018 c 0
 589 1037 584 1049 573 1056 c 0
 562 1063 538 1066 503 1066 c 0
 466 1066 426 1061 383 1050 c 1
 383 1091 l 1
 430 1102 476 1108 519 1108 c 0
 568 1108 602 1102 620 1092 c 0
 637 1080 644 1061 639 1032 c 0
 637 1019 633 1003 627 985 c 0
 621 967 615 951 608 938 c 1
 558 938 l 1
 563 948 569 961 574 977 c 0
EndSplineSet
EndChar

StartChar: uni1EC4
Encoding: 7876 7876 51
Width: 590
Flags: W
LayerCount: 2
Fore
SplineSet
153 730 m 1
 576 730 l 1
 569 684 l 1
 194 684 l 1
 151 410 l 1
 506 410 l 1
 498 365 l 1
 144 365 l 1
 93 46 l 1
 468 46 l 1
 460 0 l 1
 37 0 l 1
 153 730 l 1
361 980 m 1
 444 980 l 1
 554 770 l 1
 496 770 l 1
 399 954 l 1
 397 954 l 1
 243 770 l 1
 185 770 l 1
 361 980 l 1
454 1002 m 0
 436 1012 420 1024 404 1040 c 0
 379 1066 356 1079 335 1079 c 0
 324 1079 314 1073 308 1061 c 0
 300 1049 295 1028 290 999 c 1
 243 999 l 1
 256 1084 289 1127 342 1127 c 0
 358 1127 375 1122 392 1114 c 0
 409 1104 426 1092 441 1076 c 0
 466 1050 490 1037 511 1037 c 0
 522 1037 532 1043 538 1055 c 0
 546 1067 551 1088 556 1117 c 1
 603 1117 l 1
 590 1032 556 989 503 989 c 0
 487 989 470 994 454 1002 c 0
EndSplineSet
EndChar

StartChar: uni0204
Encoding: 516 516 52
Width: 590
Flags: W
LayerCount: 2
Fore
SplineSet
153 730 m 1
 576 730 l 1
 569 684 l 1
 194 684 l 1
 151 410 l 1
 506 410 l 1
 498 365 l 1
 144 365 l 1
 93 46 l 1
 468 46 l 1
 460 0 l 1
 37 0 l 1
 153 730 l 1
181 980 m 1
 242 980 l 1
 319 770 l 1
 269 770 l 1
 181 980 l 1
372 980 m 1
 433 980 l 1
 510 770 l 1
 460 770 l 1
 372 980 l 1
EndSplineSet
EndChar

StartChar: Edieresis
Encoding: 203 203 53
Width: 590
Flags: W
LayerCount: 2
Fore
SplineSet
153 730 m 1
 576 730 l 1
 569 684 l 1
 194 684 l 1
 151 410 l 1
 506 410 l 1
 498 365 l 1
 144 365 l 1
 93 46 l 1
 468 46 l 1
 460 0 l 1
 37 0 l 1
 153 730 l 1
279 916 m 1
 359 916 l 1
 346 834 l 1
 266 834 l 1
 279 916 l 1
519 916 m 1
 598 916 l 1
 585 834 l 1
 506 834 l 1
 519 916 l 1
EndSplineSet
EndChar

StartChar: Edotaccent
Encoding: 278 278 54
Width: 590
Flags: W
LayerCount: 2
Fore
SplineSet
153 730 m 1
 576 730 l 1
 569 684 l 1
 194 684 l 1
 151 410 l 1
 506 410 l 1
 498 365 l 1
 144 365 l 1
 93 46 l 1
 468 46 l 1
 460 0 l 1
 37 0 l 1
 153 730 l 1
379 916 m 1
 459 916 l 1
 446 834 l 1
 366 834 l 1
 379 916 l 1
EndSplineSet
EndChar

StartChar: uni1EB8
Encoding: 7864 7864 55
Width: 590
Flags: W
LayerCount: 2
Fore
SplineSet
153 730 m 1
 576 730 l 1
 569 684 l 1
 194 684 l 1
 151 410 l 1
 506 410 l 1
 498 365 l 1
 144 365 l 1
 93 46 l 1
 468 46 l 1
 460 0 l 1
 37 0 l 1
 153 730 l 1
218 -104 m 1
 298 -104 l 1
 285 -186 l 1
 205 -186 l 1
 218 -104 l 1
EndSplineSet
EndChar

StartChar: Egrave
Encoding: 200 200 56
Width: 590
Flags: W
LayerCount: 2
Fore
SplineSet
153 730 m 1
 576 730 l 1
 569 684 l 1
 194 684 l 1
 151 410 l 1
 506 410 l 1
 498 365 l 1
 144 365 l 1
 93 46 l 1
 468 46 l 1
 460 0 l 1
 37 0 l 1
 153 730 l 1
267 980 m 1
 328 980 l 1
 404 770 l 1
 354 770 l 1
 267 980 l 1
EndSplineSet
EndChar

StartChar: uni1EBA
Encoding: 7866 7866 57
Width: 590
Flags: W
LayerCount: 2
Fore
SplineSet
153 730 m 1
 576 730 l 1
 569 684 l 1
 194 684 l 1
 151 410 l 1
 506 410 l 1
 498 365 l 1
 144 365 l 1
 93 46 l 1
 468 46 l 1
 460 0 l 1
 37 0 l 1
 153 730 l 1
500 847 m 0
 505 863 509 877 511 888 c 0
 514 907 509 919 498 926 c 0
 487 933 463 936 428 936 c 0
 391 936 351 931 308 920 c 1
 308 961 l 1
 355 972 401 978 444 978 c 0
 493 978 527 972 544 962 c 0
 562 950 569 931 564 902 c 0
 562 889 558 873 552 855 c 0
 546 837 540 821 533 808 c 1
 483 808 l 1
 488 818 494 831 500 847 c 0
EndSplineSet
EndChar

StartChar: uni0206
Encoding: 518 518 58
Width: 590
Flags: W
LayerCount: 2
Fore
SplineSet
153 730 m 1
 576 730 l 1
 569 684 l 1
 194 684 l 1
 151 410 l 1
 506 410 l 1
 498 365 l 1
 144 365 l 1
 93 46 l 1
 468 46 l 1
 460 0 l 1
 37 0 l 1
 153 730 l 1
504 914 m 0
 532 890 545 857 544 816 c 1
 493 816 l 1
 492 845 483 868 464 885 c 0
 445 902 420 910 388 910 c 0
 356 910 328 902 304 885 c 0
 281 868 264 845 254 816 c 1
 203 816 l 1
 215 857 238 890 274 914 c 0
 308 940 349 952 395 952 c 0
 440 952 477 940 504 914 c 0
EndSplineSet
EndChar

StartChar: Emacron
Encoding: 274 274 59
Width: 590
Flags: W
LayerCount: 2
Fore
SplineSet
153 730 m 1
 576 730 l 1
 569 684 l 1
 194 684 l 1
 151 410 l 1
 506 410 l 1
 498 365 l 1
 144 365 l 1
 93 46 l 1
 468 46 l 1
 460 0 l 1
 37 0 l 1
 153 730 l 1
217 896 m 1
 559 896 l 1
 552 854 l 1
 210 854 l 1
 217 896 l 1
EndSplineSet
EndChar

StartChar: Eogonek
Encoding: 280 280 60
Width: 573
Flags: W
LayerCount: 2
Fore
SplineSet
514 -198 m 1
 481 -212 445 -219 408 -219 c 0
 359 -219 326 -210 308 -192 c 0
 289 -175 282 -153 286 -127 c 0
 289 -105 300 -83 318 -62 c 0
 336 -41 360 -20 391 0 c 1
 37 0 l 1
 153 730 l 1
 576 730 l 1
 569 684 l 1
 194 684 l 1
 151 410 l 1
 506 410 l 1
 498 365 l 1
 144 365 l 1
 93 46 l 1
 468 46 l 1
 460 0 l 1
 422 -19 392 -40 370 -60 c 0
 349 -82 336 -102 333 -121 c 0
 330 -141 336 -155 352 -164 c 0
 369 -173 391 -177 418 -177 c 0
 451 -177 481 -171 510 -158 c 1
 514 -198 l 1
EndSplineSet
EndChar

StartChar: uni1EBC
Encoding: 7868 7868 61
Width: 590
Flags: W
LayerCount: 2
Fore
SplineSet
153 730 m 1
 576 730 l 1
 569 684 l 1
 194 684 l 1
 151 410 l 1
 506 410 l 1
 498 365 l 1
 144 365 l 1
 93 46 l 1
 468 46 l 1
 460 0 l 1
 37 0 l 1
 153 730 l 1
424 820 m 0
 408 828 391 841 375 857 c 0
 350 883 327 896 306 896 c 0
 295 896 286 890 278 878 c 0
 272 866 266 845 261 816 c 1
 214 816 l 1
 227 901 260 944 313 944 c 0
 329 944 346 940 363 930 c 0
 380 922 397 909 412 893 c 0
 437 867 461 854 482 854 c 0
 493 854 502 860 510 872 c 0
 516 884 522 905 527 934 c 1
 574 934 l 1
 561 849 527 806 474 806 c 0
 458 806 442 810 424 820 c 0
EndSplineSet
EndChar

StartChar: F
Encoding: 70 70 62
Width: 552
Flags: W
LayerCount: 2
Fore
SplineSet
153 730 m 1
 576 730 l 1
 569 684 l 1
 194 684 l 1
 150 405 l 1
 505 405 l 1
 498 359 l 1
 143 359 l 1
 86 0 l 1
 37 0 l 1
 153 730 l 1
EndSplineSet
EndChar

StartChar: G
Encoding: 71 71 63
Width: 752
Flags: W
LayerCount: 2
Fore
SplineSet
703 409 m 1
 645 45 l 1
 608 28 564 15 516 5 c 0
 466 -5 419 -10 373 -10 c 0
 294 -10 229 5 177 35 c 0
 125 65 88 108 67 164 c 0
 46 221 41 288 54 365 c 0
 66 442 92 509 130 566 c 0
 170 622 220 665 282 695 c 0
 343 725 413 740 491 740 c 0
 584 740 660 720 719 679 c 1
 692 639 l 1
 637 676 567 694 484 694 c 0
 380 694 294 665 228 608 c 0
 160 550 119 469 103 365 c 0
 86 261 102 180 151 122 c 0
 200 65 276 36 380 36 c 0
 418 36 456 40 496 47 c 0
 534 54 570 64 601 77 c 1
 647 364 l 1
 361 364 l 1
 368 409 l 1
 703 409 l 1
EndSplineSet
EndChar

StartChar: Gbreve
Encoding: 286 286 64
Width: 776
Flags: W
LayerCount: 2
Fore
SplineSet
703 409 m 1
 645 45 l 1
 608 28 564 15 516 5 c 0
 466 -5 419 -10 373 -10 c 0
 294 -10 229 5 177 35 c 0
 125 65 88 108 67 164 c 0
 46 221 41 288 54 365 c 0
 66 442 92 509 130 566 c 0
 170 622 220 665 282 695 c 0
 343 725 413 740 491 740 c 0
 584 740 660 720 719 679 c 1
 692 639 l 1
 637 676 567 694 484 694 c 0
 380 694 294 665 228 608 c 0
 160 550 119 469 103 365 c 0
 86 261 102 180 151 122 c 0
 200 65 276 36 380 36 c 0
 418 36 456 40 496 47 c 0
 534 54 570 64 601 77 c 1
 647 364 l 1
 361 364 l 1
 368 409 l 1
 703 409 l 1
359 836 m 0
 332 860 319 893 320 934 c 1
 370 934 l 1
 371 905 380 882 399 865 c 0
 418 848 443 840 475 840 c 0
 507 840 535 848 559 865 c 0
 583 882 600 905 610 934 c 1
 661 934 l 1
 649 893 625 860 590 836 c 0
 555 810 514 798 469 798 c 0
 424 798 387 810 359 836 c 0
EndSplineSet
EndChar

StartChar: Gcaron
Encoding: 486 486 65
Width: 776
Flags: W
LayerCount: 2
Fore
SplineSet
703 409 m 1
 645 45 l 1
 608 28 564 15 516 5 c 0
 466 -5 419 -10 373 -10 c 0
 294 -10 229 5 177 35 c 0
 125 65 88 108 67 164 c 0
 46 221 41 288 54 365 c 0
 66 442 92 509 130 566 c 0
 170 622 220 665 282 695 c 0
 343 725 413 740 491 740 c 0
 584 740 660 720 719 679 c 1
 692 639 l 1
 637 676 567 694 484 694 c 0
 380 694 294 665 228 608 c 0
 160 550 119 469 103 365 c 0
 86 261 102 180 151 122 c 0
 200 65 276 36 380 36 c 0
 418 36 456 40 496 47 c 0
 534 54 570 64 601 77 c 1
 647 364 l 1
 361 364 l 1
 368 409 l 1
 703 409 l 1
317 980 m 1
 375 980 l 1
 471 796 l 1
 473 796 l 1
 628 980 l 1
 686 980 l 1
 509 770 l 1
 427 770 l 1
 317 980 l 1
EndSplineSet
EndChar

StartChar: Gcircumflex
Encoding: 284 284 66
Width: 776
Flags: W
LayerCount: 2
Fore
SplineSet
703 409 m 1
 645 45 l 1
 608 28 564 15 516 5 c 0
 466 -5 419 -10 373 -10 c 0
 294 -10 229 5 177 35 c 0
 125 65 88 108 67 164 c 0
 46 221 41 288 54 365 c 0
 66 442 92 509 130 566 c 0
 170 622 220 665 282 695 c 0
 343 725 413 740 491 740 c 0
 584 740 660 720 719 679 c 1
 692 639 l 1
 637 676 567 694 484 694 c 0
 380 694 294 665 228 608 c 0
 160 550 119 469 103 365 c 0
 86 261 102 180 151 122 c 0
 200 65 276 36 380 36 c 0
 418 36 456 40 496 47 c 0
 534 54 570 64 601 77 c 1
 647 364 l 1
 361 364 l 1
 368 409 l 1
 703 409 l 1
460 980 m 1
 543 980 l 1
 653 770 l 1
 595 770 l 1
 498 954 l 1
 496 954 l 1
 342 770 l 1
 284 770 l 1
 460 980 l 1
EndSplineSet
EndChar

StartChar: uni0122
Encoding: 290 290 67
Width: 776
Flags: W
LayerCount: 2
Fore
SplineSet
703 409 m 1
 645 45 l 1
 608 28 564 15 516 5 c 0
 466 -5 419 -10 373 -10 c 0
 294 -10 229 5 177 35 c 0
 125 65 88 108 67 164 c 0
 46 221 41 288 54 365 c 0
 66 442 92 509 130 566 c 0
 170 622 220 665 282 695 c 0
 343 725 413 740 491 740 c 0
 584 740 660 720 719 679 c 1
 692 639 l 1
 637 676 567 694 484 694 c 0
 380 694 294 665 228 608 c 0
 160 550 119 469 103 365 c 0
 86 261 102 180 151 122 c 0
 200 65 276 36 380 36 c 0
 418 36 456 40 496 47 c 0
 534 54 570 64 601 77 c 1
 647 364 l 1
 361 364 l 1
 368 409 l 1
 703 409 l 1
226 -250 m 1
 175 -250 l 1
 319 -40 l 1
 378 -40 l 1
 226 -250 l 1
EndSplineSet
EndChar

StartChar: Gdotaccent
Encoding: 288 288 68
Width: 776
Flags: W
LayerCount: 2
Fore
SplineSet
703 409 m 1
 645 45 l 1
 608 28 564 15 516 5 c 0
 466 -5 419 -10 373 -10 c 0
 294 -10 229 5 177 35 c 0
 125 65 88 108 67 164 c 0
 46 221 41 288 54 365 c 0
 66 442 92 509 130 566 c 0
 170 622 220 665 282 695 c 0
 343 725 413 740 491 740 c 0
 584 740 660 720 719 679 c 1
 692 639 l 1
 637 676 567 694 484 694 c 0
 380 694 294 665 228 608 c 0
 160 550 119 469 103 365 c 0
 86 261 102 180 151 122 c 0
 200 65 276 36 380 36 c 0
 418 36 456 40 496 47 c 0
 534 54 570 64 601 77 c 1
 647 364 l 1
 361 364 l 1
 368 409 l 1
 703 409 l 1
477 916 m 1
 557 916 l 1
 544 834 l 1
 464 834 l 1
 477 916 l 1
EndSplineSet
EndChar

StartChar: H
Encoding: 72 72 69
Width: 678
Flags: W
LayerCount: 2
Fore
SplineSet
618 730 m 1
 667 730 l 1
 551 0 l 1
 502 0 l 1
 560 365 l 1
 144 365 l 1
 86 0 l 1
 37 0 l 1
 153 730 l 1
 202 730 l 1
 151 412 l 1
 568 412 l 1
 618 730 l 1
EndSplineSet
EndChar

StartChar: Hbar
Encoding: 294 294 70
Width: 752
Flags: W
LayerCount: 2
Fore
SplineSet
779 618 m 1
 772 574 l 1
 679 574 l 1
 588 0 l 1
 539 0 l 1
 597 365 l 1
 180 365 l 1
 123 0 l 1
 74 0 l 1
 164 574 l 1
 72 574 l 1
 79 618 l 1
 171 618 l 1
 189 730 l 1
 238 730 l 1
 220 618 l 1
 637 618 l 1
 655 730 l 1
 704 730 l 1
 686 618 l 1
 779 618 l 1
604 412 m 1
 630 574 l 1
 213 574 l 1
 188 412 l 1
 604 412 l 1
EndSplineSet
EndChar

StartChar: Hcircumflex
Encoding: 292 292 71
Width: 705
Flags: W
LayerCount: 2
Fore
SplineSet
618 730 m 1
 667 730 l 1
 551 0 l 1
 502 0 l 1
 560 365 l 1
 144 365 l 1
 86 0 l 1
 37 0 l 1
 153 730 l 1
 202 730 l 1
 151 412 l 1
 568 412 l 1
 618 730 l 1
404 980 m 1
 487 980 l 1
 597 770 l 1
 539 770 l 1
 442 954 l 1
 440 954 l 1
 286 770 l 1
 228 770 l 1
 404 980 l 1
EndSplineSet
EndChar

StartChar: I
Encoding: 73 73 72
Width: 231
Flags: W
LayerCount: 2
Fore
SplineSet
161 730 m 1
 211 730 l 1
 95 0 l 1
 45 0 l 1
 161 730 l 1
EndSplineSet
EndChar

StartChar: Iacute
Encoding: 205 205 73
Width: 250
Flags: W
LayerCount: 2
Fore
SplineSet
161 730 m 1
 211 730 l 1
 95 0 l 1
 45 0 l 1
 161 730 l 1
189 770 m 1
 138 770 l 1
 282 980 l 1
 342 980 l 1
 189 770 l 1
EndSplineSet
EndChar

StartChar: Ibreve
Encoding: 300 300 74
Width: 250
Flags: W
LayerCount: 2
Fore
SplineSet
161 730 m 1
 211 730 l 1
 95 0 l 1
 45 0 l 1
 161 730 l 1
76 836 m 0
 49 860 36 893 37 934 c 1
 87 934 l 1
 88 905 97 882 116 865 c 0
 135 848 160 840 192 840 c 0
 224 840 252 848 276 865 c 0
 300 882 317 905 327 934 c 1
 378 934 l 1
 366 893 342 860 307 836 c 0
 272 810 231 798 186 798 c 0
 141 798 104 810 76 836 c 0
EndSplineSet
EndChar

StartChar: Icircumflex
Encoding: 206 206 75
Width: 250
Flags: W
LayerCount: 2
Fore
SplineSet
161 730 m 1
 211 730 l 1
 95 0 l 1
 45 0 l 1
 161 730 l 1
176 980 m 1
 259 980 l 1
 369 770 l 1
 311 770 l 1
 214 954 l 1
 212 954 l 1
 58 770 l 1
 0 770 l 1
 176 980 l 1
EndSplineSet
EndChar

StartChar: uni0208
Encoding: 520 520 76
Width: 250
Flags: W
LayerCount: 2
Fore
SplineSet
161 730 m 1
 211 730 l 1
 95 0 l 1
 45 0 l 1
 161 730 l 1
-4 980 m 1
 57 980 l 1
 134 770 l 1
 84 770 l 1
 -4 980 l 1
187 980 m 1
 248 980 l 1
 325 770 l 1
 275 770 l 1
 187 980 l 1
EndSplineSet
EndChar

StartChar: Idieresis
Encoding: 207 207 77
Width: 250
Flags: W
LayerCount: 2
Fore
SplineSet
161 730 m 1
 211 730 l 1
 95 0 l 1
 45 0 l 1
 161 730 l 1
94 916 m 1
 174 916 l 1
 161 834 l 1
 81 834 l 1
 94 916 l 1
334 916 m 1
 413 916 l 1
 400 834 l 1
 321 834 l 1
 334 916 l 1
EndSplineSet
EndChar

StartChar: Idotaccent
Encoding: 304 304 78
Width: 250
Flags: W
LayerCount: 2
Fore
SplineSet
161 730 m 1
 211 730 l 1
 95 0 l 1
 45 0 l 1
 161 730 l 1
194 916 m 1
 274 916 l 1
 261 834 l 1
 181 834 l 1
 194 916 l 1
EndSplineSet
EndChar

StartChar: uni1ECA
Encoding: 7882 7882 79
Width: 250
Flags: W
LayerCount: 2
Fore
SplineSet
161 730 m 1
 211 730 l 1
 95 0 l 1
 45 0 l 1
 161 730 l 1
33 -104 m 1
 113 -104 l 1
 100 -186 l 1
 20 -186 l 1
 33 -104 l 1
EndSplineSet
EndChar

StartChar: Igrave
Encoding: 204 204 80
Width: 250
Flags: W
LayerCount: 2
Fore
SplineSet
161 730 m 1
 211 730 l 1
 95 0 l 1
 45 0 l 1
 161 730 l 1
82 980 m 1
 143 980 l 1
 219 770 l 1
 169 770 l 1
 82 980 l 1
EndSplineSet
EndChar

StartChar: uni1EC8
Encoding: 7880 7880 81
Width: 250
Flags: W
LayerCount: 2
Fore
SplineSet
161 730 m 1
 211 730 l 1
 95 0 l 1
 45 0 l 1
 161 730 l 1
314 847 m 0
 320 863 324 877 326 888 c 0
 329 907 324 919 313 926 c 0
 302 933 278 936 243 936 c 0
 206 936 166 931 123 920 c 1
 123 961 l 1
 170 972 216 978 259 978 c 0
 308 978 342 972 360 962 c 0
 377 950 384 931 379 902 c 0
 377 889 373 873 367 855 c 0
 361 837 355 821 348 808 c 1
 298 808 l 1
 303 818 309 831 314 847 c 0
EndSplineSet
EndChar

StartChar: uni020A
Encoding: 522 522 82
Width: 250
Flags: W
LayerCount: 2
Fore
SplineSet
161 730 m 1
 211 730 l 1
 95 0 l 1
 45 0 l 1
 161 730 l 1
320 914 m 0
 347 890 360 857 359 816 c 1
 308 816 l 1
 307 845 298 868 279 885 c 0
 260 902 235 910 203 910 c 0
 171 910 143 902 120 885 c 0
 96 868 79 845 69 816 c 1
 18 816 l 1
 30 857 54 890 88 914 c 0
 124 940 164 952 210 952 c 0
 255 952 292 940 320 914 c 0
EndSplineSet
EndChar

StartChar: Imacron
Encoding: 298 298 83
Width: 250
Flags: W
LayerCount: 2
Fore
SplineSet
161 730 m 1
 211 730 l 1
 95 0 l 1
 45 0 l 1
 161 730 l 1
32 896 m 1
 374 896 l 1
 367 854 l 1
 25 854 l 1
 32 896 l 1
EndSplineSet
EndChar

StartChar: Iogonek
Encoding: 302 302 84
Width: 244
Flags: W
LayerCount: 2
Fore
SplineSet
157 -198 m 1
 124 -212 88 -219 51 -219 c 0
 2 -219 -31 -210 -50 -192 c 0
 -68 -175 -75 -153 -71 -127 c 0
 -67 -103 -54 -79 -33 -55 c 0
 -12 -31 17 -8 54 13 c 1
 168 730 l 1
 218 730 l 1
 102 0 l 1
 103 0 l 1
 65 -19 35 -40 14 -60 c 0
 -8 -82 -21 -102 -24 -121 c 0
 -27 -141 -21 -155 -4 -164 c 0
 12 -173 34 -177 61 -177 c 0
 94 -177 124 -171 153 -158 c 1
 157 -198 l 1
EndSplineSet
EndChar

StartChar: Itilde
Encoding: 296 296 85
Width: 250
Flags: W
LayerCount: 2
Fore
SplineSet
161 730 m 1
 211 730 l 1
 95 0 l 1
 45 0 l 1
 161 730 l 1
250 820 m 0
 232 828 216 841 200 857 c 0
 175 883 152 896 131 896 c 0
 120 896 110 890 104 878 c 0
 96 866 91 845 86 816 c 1
 39 816 l 1
 52 901 85 944 138 944 c 0
 154 944 171 940 188 930 c 0
 205 922 222 909 237 893 c 0
 262 867 286 854 307 854 c 0
 318 854 328 860 334 872 c 0
 342 884 347 905 352 934 c 1
 399 934 l 1
 386 849 352 806 299 806 c 0
 283 806 266 810 250 820 c 0
EndSplineSet
EndChar

StartChar: J
Encoding: 74 74 86
Width: 537
Flags: W
LayerCount: 2
Fore
SplineSet
63 5 m 0
 28 15 -1 29 -26 48 c 1
 1 90 l 1
 24 73 50 59 82 50 c 0
 112 41 145 36 178 36 c 0
 245 36 297 56 336 96 c 0
 375 136 401 197 414 280 c 2
 485 730 l 1
 534 730 l 1
 463 280 l 2
 448 182 416 109 369 62 c 0
 322 14 257 -10 174 -10 c 0
 135 -10 98 -5 63 5 c 0
EndSplineSet
EndChar

StartChar: Jcircumflex
Encoding: 308 308 87
Width: 555
Flags: W
LayerCount: 2
Fore
SplineSet
63 5 m 0
 28 15 -1 29 -26 48 c 1
 1 90 l 1
 24 73 50 59 82 50 c 0
 112 41 145 36 178 36 c 0
 245 36 297 56 336 96 c 0
 375 136 401 197 414 280 c 2
 485 730 l 1
 534 730 l 1
 463 280 l 2
 448 182 416 109 369 62 c 0
 322 14 257 -10 174 -10 c 0
 135 -10 98 -5 63 5 c 0
329 980 m 1
 412 980 l 1
 522 770 l 1
 464 770 l 1
 367 954 l 1
 365 954 l 1
 211 770 l 1
 153 770 l 1
 329 980 l 1
EndSplineSet
EndChar

StartChar: K
Encoding: 75 75 88
Width: 600
Flags: W
LayerCount: 2
Fore
SplineSet
153 730 m 1
 202 730 l 1
 151 410 l 1
 153 410 l 1
 572 730 l 1
 638 730 l 1
 190 388 l 1
 532 0 l 1
 468 0 l 1
 146 367 l 1
 144 367 l 1
 86 0 l 1
 37 0 l 1
 153 730 l 1
EndSplineSet
EndChar

StartChar: uni0136
Encoding: 310 310 89
Width: 621
Flags: W
LayerCount: 2
Fore
SplineSet
153 730 m 1
 202 730 l 1
 151 410 l 1
 153 410 l 1
 572 730 l 1
 638 730 l 1
 190 388 l 1
 532 0 l 1
 468 0 l 1
 146 367 l 1
 144 367 l 1
 86 0 l 1
 37 0 l 1
 153 730 l 1
107 -250 m 1
 56 -250 l 1
 200 -40 l 1
 259 -40 l 1
 107 -250 l 1
EndSplineSet
EndChar

StartChar: L
Encoding: 76 76 90
Width: 562
Flags: W
LayerCount: 2
Fore
SplineSet
153 730 m 1
 203 730 l 1
 94 46 l 1
 485 46 l 1
 478 0 l 1
 37 0 l 1
 153 730 l 1
EndSplineSet
EndChar

StartChar: uni01C7
Encoding: 455 455 91
Width: 1159
Flags: W
LayerCount: 2
Fore
SplineSet
153 730 m 1
 203 730 l 1
 94 46 l 1
 485 46 l 1
 478 0 l 1
 37 0 l 1
 153 730 l 1
667 5 m 0
 632 15 603 29 578 48 c 1
 605 90 l 1
 628 73 654 59 686 50 c 0
 716 41 749 36 782 36 c 0
 849 36 901 56 940 96 c 0
 979 136 1005 197 1018 280 c 2
 1089 730 l 1
 1138 730 l 1
 1067 280 l 2
 1052 182 1020 109 973 62 c 0
 926 14 861 -10 778 -10 c 0
 739 -10 702 -5 667 5 c 0
EndSplineSet
EndChar

StartChar: Lacute
Encoding: 313 313 92
Width: 584
Flags: W
LayerCount: 2
Fore
SplineSet
153 730 m 1
 203 730 l 1
 94 46 l 1
 485 46 l 1
 478 0 l 1
 37 0 l 1
 153 730 l 1
357 770 m 1
 306 770 l 1
 450 980 l 1
 510 980 l 1
 357 770 l 1
EndSplineSet
EndChar

StartChar: Lcaron
Encoding: 317 317 93
Width: 603
Flags: W
LayerCount: 2
Fore
SplineSet
153 730 m 1
 203 730 l 1
 94 46 l 1
 485 46 l 1
 478 0 l 1
 37 0 l 1
 153 730 l 1
567 770 m 1
 624 770 l 1
 467 470 l 1
 420 470 l 1
 567 770 l 1
EndSplineSet
EndChar

StartChar: uni013B
Encoding: 315 315 94
Width: 584
Flags: W
LayerCount: 2
Fore
SplineSet
153 730 m 1
 203 730 l 1
 94 46 l 1
 485 46 l 1
 478 0 l 1
 37 0 l 1
 153 730 l 1
110 -250 m 1
 59 -250 l 1
 203 -40 l 1
 262 -40 l 1
 110 -250 l 1
EndSplineSet
EndChar

StartChar: Ldot
Encoding: 319 319 95
Width: 616
Flags: W
LayerCount: 2
Fore
SplineSet
153 730 m 1
 203 730 l 1
 94 46 l 1
 485 46 l 1
 478 0 l 1
 37 0 l 1
 153 730 l 1
434 416 m 1
 516 416 l 1
 502 333 l 1
 421 333 l 1
 434 416 l 1
EndSplineSet
EndChar

StartChar: uni01C8
Encoding: 456 456 96
Width: 891
Flags: W
LayerCount: 2
Fore
SplineSet
153 730 m 1
 203 730 l 1
 94 46 l 1
 485 46 l 1
 478 0 l 1
 37 0 l 1
 153 730 l 1
793 733 m 1
 864 733 l 1
 852 657 l 1
 781 657 l 1
 793 733 l 1
584 -172 m 0
 614 -161 638 -142 654 -116 c 0
 669 -88 681 -48 690 7 c 2
 771 520 l 1
 818 520 l 1
 737 7 l 2
 727 -57 712 -106 691 -139 c 0
 670 -172 641 -196 602 -210 c 0
 564 -223 510 -230 441 -230 c 1
 447 -187 l 1
 507 -187 552 -182 584 -172 c 0
EndSplineSet
EndChar

StartChar: Lslash
Encoding: 321 321 97
Width: 650
Flags: W
LayerCount: 2
Fore
SplineSet
182 46 m 1
 573 46 l 1
 565 0 l 1
 124 0 l 1
 177 330 l 1
 28 267 l 1
 17 307 l 1
 184 377 l 1
 240 730 l 1
 290 730 l 1
 238 400 l 1
 388 463 l 1
 398 423 l 1
 230 352 l 1
 182 46 l 1
EndSplineSet
EndChar

StartChar: M
Encoding: 77 77 98
Width: 827
Flags: W
LayerCount: 2
Fore
SplineSet
153 730 m 1
 218 730 l 1
 400 210 l 1
 402 210 l 1
 750 730 l 1
 816 730 l 1
 700 0 l 1
 651 0 l 1
 756 658 l 1
 754 658 l 1
 418 155 l 1
 368 155 l 1
 192 658 l 1
 190 658 l 1
 86 0 l 1
 37 0 l 1
 153 730 l 1
EndSplineSet
EndChar

StartChar: N
Encoding: 78 78 99
Width: 688
Flags: W
LayerCount: 2
Fore
SplineSet
153 730 m 1
 212 730 l 1
 522 73 l 1
 524 73 l 1
 628 730 l 1
 677 730 l 1
 561 0 l 1
 501 0 l 1
 192 657 l 1
 190 657 l 1
 86 0 l 1
 37 0 l 1
 153 730 l 1
EndSplineSet
EndChar

StartChar: uni01CA
Encoding: 458 458 100
Width: 1270
Flags: W
LayerCount: 2
Fore
SplineSet
153 730 m 1
 212 730 l 1
 522 73 l 1
 524 73 l 1
 628 730 l 1
 677 730 l 1
 561 0 l 1
 501 0 l 1
 192 657 l 1
 190 657 l 1
 86 0 l 1
 37 0 l 1
 153 730 l 1
778 5 m 0
 743 15 714 29 689 48 c 1
 716 90 l 1
 739 73 766 59 796 50 c 0
 828 41 860 36 893 36 c 0
 960 36 1012 56 1051 96 c 0
 1090 136 1116 197 1129 280 c 2
 1200 730 l 1
 1249 730 l 1
 1178 280 l 2
 1163 182 1131 109 1084 62 c 0
 1037 14 972 -10 889 -10 c 0
 850 -10 813 -5 778 5 c 0
EndSplineSet
EndChar

StartChar: Nacute
Encoding: 323 323 101
Width: 715
Flags: W
LayerCount: 2
Fore
SplineSet
153 730 m 1
 212 730 l 1
 522 73 l 1
 524 73 l 1
 628 730 l 1
 677 730 l 1
 561 0 l 1
 501 0 l 1
 192 657 l 1
 190 657 l 1
 86 0 l 1
 37 0 l 1
 153 730 l 1
422 770 m 1
 371 770 l 1
 515 980 l 1
 575 980 l 1
 422 770 l 1
EndSplineSet
EndChar

StartChar: Ncaron
Encoding: 327 327 102
Width: 715
Flags: W
LayerCount: 2
Fore
SplineSet
153 730 m 1
 212 730 l 1
 522 73 l 1
 524 73 l 1
 628 730 l 1
 677 730 l 1
 561 0 l 1
 501 0 l 1
 192 657 l 1
 190 657 l 1
 86 0 l 1
 37 0 l 1
 153 730 l 1
266 980 m 1
 324 980 l 1
 420 796 l 1
 422 796 l 1
 577 980 l 1
 635 980 l 1
 458 770 l 1
 376 770 l 1
 266 980 l 1
EndSplineSet
EndChar

StartChar: uni0145
Encoding: 325 325 103
Width: 715
Flags: W
LayerCount: 2
Fore
SplineSet
153 730 m 1
 212 730 l 1
 522 73 l 1
 524 73 l 1
 628 730 l 1
 677 730 l 1
 561 0 l 1
 501 0 l 1
 192 657 l 1
 190 657 l 1
 86 0 l 1
 37 0 l 1
 153 730 l 1
175 -250 m 1
 124 -250 l 1
 268 -40 l 1
 327 -40 l 1
 175 -250 l 1
EndSplineSet
EndChar

StartChar: Eng
Encoding: 330 330 104
Width: 688
Flags: W
LayerCount: 2
Fore
SplineSet
677 730 m 1
 553 -49 l 2
 544 -106 525 -148 498 -174 c 0
 470 -201 430 -214 378 -214 c 0
 346 -214 317 -209 292 -199 c 1
 308 -156 l 1
 330 -165 353 -170 378 -170 c 0
 417 -170 446 -160 466 -142 c 0
 485 -122 498 -92 505 -49 c 2
 510 -19 l 1
 191 653 l 1
 189 653 l 1
 86 0 l 1
 37 0 l 1
 153 730 l 1
 212 730 l 1
 522 77 l 1
 524 77 l 1
 628 730 l 1
 677 730 l 1
EndSplineSet
EndChar

StartChar: uni01CB
Encoding: 459 459 105
Width: 1022
Flags: W
LayerCount: 2
Fore
SplineSet
153 730 m 1
 212 730 l 1
 522 73 l 1
 524 73 l 1
 628 730 l 1
 677 730 l 1
 561 0 l 1
 501 0 l 1
 192 657 l 1
 190 657 l 1
 86 0 l 1
 37 0 l 1
 153 730 l 1
924 733 m 1
 995 733 l 1
 983 657 l 1
 912 657 l 1
 924 733 l 1
714 -172 m 0
 746 -161 769 -142 784 -116 c 0
 800 -88 812 -48 821 7 c 2
 902 520 l 1
 949 520 l 1
 868 7 l 2
 858 -57 843 -106 822 -139 c 0
 801 -172 772 -196 734 -210 c 0
 695 -223 641 -230 572 -230 c 1
 578 -187 l 1
 638 -187 684 -182 714 -172 c 0
EndSplineSet
EndChar

StartChar: Ntilde
Encoding: 209 209 106
Width: 715
Flags: W
LayerCount: 2
Fore
SplineSet
153 730 m 1
 212 730 l 1
 522 73 l 1
 524 73 l 1
 628 730 l 1
 677 730 l 1
 561 0 l 1
 501 0 l 1
 192 657 l 1
 190 657 l 1
 86 0 l 1
 37 0 l 1
 153 730 l 1
472 820 m 0
 456 828 439 841 423 857 c 0
 398 883 375 896 354 896 c 0
 343 896 334 890 326 878 c 0
 320 866 314 845 309 816 c 1
 262 816 l 1
 275 901 308 944 361 944 c 0
 377 944 394 940 411 930 c 0
 428 922 445 909 460 893 c 0
 485 867 509 854 530 854 c 0
 541 854 550 860 558 872 c 0
 564 884 570 905 575 934 c 1
 622 934 l 1
 609 849 575 806 522 806 c 0
 506 806 490 810 472 820 c 0
EndSplineSet
EndChar

StartChar: O
Encoding: 79 79 107
Width: 775
Flags: W
LayerCount: 2
Fore
SplineSet
166 36 m 0
 119 68 85 111 66 168 c 0
 46 225 42 290 54 365 c 0
 66 440 91 505 128 562 c 0
 166 619 214 662 270 694 c 0
 328 724 391 740 460 740 c 0
 529 740 588 724 635 694 c 0
 682 662 716 619 736 562 c 0
 755 505 759 440 748 365 c 0
 736 290 711 225 674 168 c 0
 636 111 588 68 531 36 c 0
 474 6 410 -10 341 -10 c 0
 272 -10 213 6 166 36 c 0
512 76 m 0
 560 104 601 142 634 192 c 0
 667 242 688 300 699 365 c 0
 710 430 706 488 689 538 c 0
 672 588 643 626 602 654 c 0
 562 680 512 694 453 694 c 0
 394 694 340 680 290 654 c 0
 242 626 200 588 168 538 c 0
 134 488 113 430 103 365 c 0
 92 300 96 242 112 192 c 0
 130 142 158 104 198 76 c 0
 239 50 289 36 349 36 c 0
 408 36 462 50 512 76 c 0
EndSplineSet
EndChar

StartChar: Oacute
Encoding: 211 211 108
Width: 798
Flags: W
LayerCount: 2
Fore
SplineSet
166 36 m 0
 119 68 85 111 66 168 c 0
 46 225 42 290 54 365 c 0
 66 440 91 505 128 562 c 0
 166 619 214 662 270 694 c 0
 328 724 391 740 460 740 c 0
 529 740 588 724 635 694 c 0
 682 662 716 619 736 562 c 0
 755 505 759 440 748 365 c 0
 736 290 711 225 674 168 c 0
 636 111 588 68 531 36 c 0
 474 6 410 -10 341 -10 c 0
 272 -10 213 6 166 36 c 0
512 76 m 0
 560 104 601 142 634 192 c 0
 667 242 688 300 699 365 c 0
 710 430 706 488 689 538 c 0
 672 588 643 626 602 654 c 0
 562 680 512 694 453 694 c 0
 394 694 340 680 290 654 c 0
 242 626 200 588 168 538 c 0
 134 488 113 430 103 365 c 0
 92 300 96 242 112 192 c 0
 130 142 158 104 198 76 c 0
 239 50 289 36 349 36 c 0
 408 36 462 50 512 76 c 0
463 770 m 1
 412 770 l 1
 556 980 l 1
 616 980 l 1
 463 770 l 1
EndSplineSet
EndChar

StartChar: Obreve
Encoding: 334 334 109
Width: 798
Flags: W
LayerCount: 2
Fore
SplineSet
166 36 m 0
 119 68 85 111 66 168 c 0
 46 225 42 290 54 365 c 0
 66 440 91 505 128 562 c 0
 166 619 214 662 270 694 c 0
 328 724 391 740 460 740 c 0
 529 740 588 724 635 694 c 0
 682 662 716 619 736 562 c 0
 755 505 759 440 748 365 c 0
 736 290 711 225 674 168 c 0
 636 111 588 68 531 36 c 0
 474 6 410 -10 341 -10 c 0
 272 -10 213 6 166 36 c 0
512 76 m 0
 560 104 601 142 634 192 c 0
 667 242 688 300 699 365 c 0
 710 430 706 488 689 538 c 0
 672 588 643 626 602 654 c 0
 562 680 512 694 453 694 c 0
 394 694 340 680 290 654 c 0
 242 626 200 588 168 538 c 0
 134 488 113 430 103 365 c 0
 92 300 96 242 112 192 c 0
 130 142 158 104 198 76 c 0
 239 50 289 36 349 36 c 0
 408 36 462 50 512 76 c 0
350 836 m 0
 323 860 310 893 311 934 c 1
 361 934 l 1
 362 905 371 882 390 865 c 0
 409 848 434 840 466 840 c 0
 498 840 526 848 550 865 c 0
 574 882 591 905 601 934 c 1
 652 934 l 1
 640 893 616 860 581 836 c 0
 546 810 505 798 460 798 c 0
 415 798 378 810 350 836 c 0
EndSplineSet
EndChar

StartChar: Ocircumflex
Encoding: 212 212 110
Width: 798
Flags: W
LayerCount: 2
Fore
SplineSet
166 36 m 0
 119 68 85 111 66 168 c 0
 46 225 42 290 54 365 c 0
 66 440 91 505 128 562 c 0
 166 619 214 662 270 694 c 0
 328 724 391 740 460 740 c 0
 529 740 588 724 635 694 c 0
 682 662 716 619 736 562 c 0
 755 505 759 440 748 365 c 0
 736 290 711 225 674 168 c 0
 636 111 588 68 531 36 c 0
 474 6 410 -10 341 -10 c 0
 272 -10 213 6 166 36 c 0
512 76 m 0
 560 104 601 142 634 192 c 0
 667 242 688 300 699 365 c 0
 710 430 706 488 689 538 c 0
 672 588 643 626 602 654 c 0
 562 680 512 694 453 694 c 0
 394 694 340 680 290 654 c 0
 242 626 200 588 168 538 c 0
 134 488 113 430 103 365 c 0
 92 300 96 242 112 192 c 0
 130 142 158 104 198 76 c 0
 239 50 289 36 349 36 c 0
 408 36 462 50 512 76 c 0
450 980 m 1
 533 980 l 1
 643 770 l 1
 585 770 l 1
 488 954 l 1
 486 954 l 1
 332 770 l 1
 274 770 l 1
 450 980 l 1
EndSplineSet
EndChar

StartChar: uni1ED0
Encoding: 7888 7888 111
Width: 798
Flags: W
LayerCount: 2
Fore
SplineSet
166 36 m 0
 119 68 85 111 66 168 c 0
 46 225 42 290 54 365 c 0
 66 440 91 505 128 562 c 0
 166 619 214 662 270 694 c 0
 328 724 391 740 460 740 c 0
 529 740 588 724 635 694 c 0
 682 662 716 619 736 562 c 0
 755 505 759 440 748 365 c 0
 736 290 711 225 674 168 c 0
 636 111 588 68 531 36 c 0
 474 6 410 -10 341 -10 c 0
 272 -10 213 6 166 36 c 0
512 76 m 0
 560 104 601 142 634 192 c 0
 667 242 688 300 699 365 c 0
 710 430 706 488 689 538 c 0
 672 588 643 626 602 654 c 0
 562 680 512 694 453 694 c 0
 394 694 340 680 290 654 c 0
 242 626 200 588 168 538 c 0
 134 488 113 430 103 365 c 0
 92 300 96 242 112 192 c 0
 130 142 158 104 198 76 c 0
 239 50 289 36 349 36 c 0
 408 36 462 50 512 76 c 0
450 980 m 1
 533 980 l 1
 643 770 l 1
 585 770 l 1
 488 954 l 1
 486 954 l 1
 332 770 l 1
 274 770 l 1
 450 980 l 1
663 950 m 1
 612 950 l 1
 756 1160 l 1
 816 1160 l 1
 663 950 l 1
EndSplineSet
EndChar

StartChar: uni1ED8
Encoding: 7896 7896 112
Width: 798
Flags: W
LayerCount: 2
Fore
SplineSet
166 36 m 0
 119 68 85 111 66 168 c 0
 46 225 42 290 54 365 c 0
 66 440 91 505 128 562 c 0
 166 619 214 662 270 694 c 0
 328 724 391 740 460 740 c 0
 529 740 588 724 635 694 c 0
 682 662 716 619 736 562 c 0
 755 505 759 440 748 365 c 0
 736 290 711 225 674 168 c 0
 636 111 588 68 531 36 c 0
 474 6 410 -10 341 -10 c 0
 272 -10 213 6 166 36 c 0
512 76 m 0
 560 104 601 142 634 192 c 0
 667 242 688 300 699 365 c 0
 710 430 706 488 689 538 c 0
 672 588 643 626 602 654 c 0
 562 680 512 694 453 694 c 0
 394 694 340 680 290 654 c 0
 242 626 200 588 168 538 c 0
 134 488 113 430 103 365 c 0
 92 300 96 242 112 192 c 0
 130 142 158 104 198 76 c 0
 239 50 289 36 349 36 c 0
 408 36 462 50 512 76 c 0
307 -104 m 1
 387 -104 l 1
 374 -186 l 1
 294 -186 l 1
 307 -104 l 1
450 980 m 1
 533 980 l 1
 643 770 l 1
 585 770 l 1
 488 954 l 1
 486 954 l 1
 332 770 l 1
 274 770 l 1
 450 980 l 1
EndSplineSet
EndChar

StartChar: uni1ED2
Encoding: 7890 7890 113
Width: 798
Flags: W
LayerCount: 2
Fore
SplineSet
166 36 m 0
 119 68 85 111 66 168 c 0
 46 225 42 290 54 365 c 0
 66 440 91 505 128 562 c 0
 166 619 214 662 270 694 c 0
 328 724 391 740 460 740 c 0
 529 740 588 724 635 694 c 0
 682 662 716 619 736 562 c 0
 755 505 759 440 748 365 c 0
 736 290 711 225 674 168 c 0
 636 111 588 68 531 36 c 0
 474 6 410 -10 341 -10 c 0
 272 -10 213 6 166 36 c 0
512 76 m 0
 560 104 601 142 634 192 c 0
 667 242 688 300 699 365 c 0
 710 430 706 488 689 538 c 0
 672 588 643 626 602 654 c 0
 562 680 512 694 453 694 c 0
 394 694 340 680 290 654 c 0
 242 626 200 588 168 538 c 0
 134 488 113 430 103 365 c 0
 92 300 96 242 112 192 c 0
 130 142 158 104 198 76 c 0
 239 50 289 36 349 36 c 0
 408 36 462 50 512 76 c 0
450 980 m 1
 533 980 l 1
 643 770 l 1
 585 770 l 1
 488 954 l 1
 486 954 l 1
 332 770 l 1
 274 770 l 1
 450 980 l 1
215 1160 m 1
 276 1160 l 1
 352 950 l 1
 302 950 l 1
 215 1160 l 1
EndSplineSet
EndChar

StartChar: uni1ED4
Encoding: 7892 7892 114
Width: 798
Flags: W
LayerCount: 2
Fore
SplineSet
166 36 m 0
 119 68 85 111 66 168 c 0
 46 225 42 290 54 365 c 0
 66 440 91 505 128 562 c 0
 166 619 214 662 270 694 c 0
 328 724 391 740 460 740 c 0
 529 740 588 724 635 694 c 0
 682 662 716 619 736 562 c 0
 755 505 759 440 748 365 c 0
 736 290 711 225 674 168 c 0
 636 111 588 68 531 36 c 0
 474 6 410 -10 341 -10 c 0
 272 -10 213 6 166 36 c 0
512 76 m 0
 560 104 601 142 634 192 c 0
 667 242 688 300 699 365 c 0
 710 430 706 488 689 538 c 0
 672 588 643 626 602 654 c 0
 562 680 512 694 453 694 c 0
 394 694 340 680 290 654 c 0
 242 626 200 588 168 538 c 0
 134 488 113 430 103 365 c 0
 92 300 96 242 112 192 c 0
 130 142 158 104 198 76 c 0
 239 50 289 36 349 36 c 0
 408 36 462 50 512 76 c 0
450 980 m 1
 533 980 l 1
 643 770 l 1
 585 770 l 1
 488 954 l 1
 486 954 l 1
 332 770 l 1
 274 770 l 1
 450 980 l 1
664 977 m 0
 669 993 673 1007 675 1018 c 0
 678 1037 673 1049 662 1056 c 0
 651 1063 627 1066 592 1066 c 0
 555 1066 515 1061 472 1050 c 1
 472 1091 l 1
 519 1102 565 1108 608 1108 c 0
 657 1108 691 1102 708 1092 c 0
 726 1080 733 1061 728 1032 c 0
 726 1019 722 1003 716 985 c 0
 710 967 704 951 697 938 c 1
 647 938 l 1
 652 948 658 961 664 977 c 0
EndSplineSet
EndChar

StartChar: uni1ED6
Encoding: 7894 7894 115
Width: 798
Flags: W
LayerCount: 2
Fore
SplineSet
166 36 m 0
 119 68 85 111 66 168 c 0
 46 225 42 290 54 365 c 0
 66 440 91 505 128 562 c 0
 166 619 214 662 270 694 c 0
 328 724 391 740 460 740 c 0
 529 740 588 724 635 694 c 0
 682 662 716 619 736 562 c 0
 755 505 759 440 748 365 c 0
 736 290 711 225 674 168 c 0
 636 111 588 68 531 36 c 0
 474 6 410 -10 341 -10 c 0
 272 -10 213 6 166 36 c 0
512 76 m 0
 560 104 601 142 634 192 c 0
 667 242 688 300 699 365 c 0
 710 430 706 488 689 538 c 0
 672 588 643 626 602 654 c 0
 562 680 512 694 453 694 c 0
 394 694 340 680 290 654 c 0
 242 626 200 588 168 538 c 0
 134 488 113 430 103 365 c 0
 92 300 96 242 112 192 c 0
 130 142 158 104 198 76 c 0
 239 50 289 36 349 36 c 0
 408 36 462 50 512 76 c 0
450 980 m 1
 533 980 l 1
 643 770 l 1
 585 770 l 1
 488 954 l 1
 486 954 l 1
 332 770 l 1
 274 770 l 1
 450 980 l 1
542 1002 m 0
 526 1012 509 1024 493 1040 c 0
 468 1066 445 1079 424 1079 c 0
 413 1079 404 1073 396 1061 c 0
 390 1049 384 1028 379 999 c 1
 332 999 l 1
 345 1084 378 1127 431 1127 c 0
 447 1127 464 1122 481 1114 c 0
 498 1104 515 1092 530 1076 c 0
 555 1050 579 1037 600 1037 c 0
 611 1037 620 1043 628 1055 c 0
 634 1067 640 1088 645 1117 c 1
 692 1117 l 1
 679 1032 645 989 592 989 c 0
 576 989 560 994 542 1002 c 0
EndSplineSet
EndChar

StartChar: uni020C
Encoding: 524 524 116
Width: 798
Flags: W
LayerCount: 2
Fore
SplineSet
166 36 m 0
 119 68 85 111 66 168 c 0
 46 225 42 290 54 365 c 0
 66 440 91 505 128 562 c 0
 166 619 214 662 270 694 c 0
 328 724 391 740 460 740 c 0
 529 740 588 724 635 694 c 0
 682 662 716 619 736 562 c 0
 755 505 759 440 748 365 c 0
 736 290 711 225 674 168 c 0
 636 111 588 68 531 36 c 0
 474 6 410 -10 341 -10 c 0
 272 -10 213 6 166 36 c 0
512 76 m 0
 560 104 601 142 634 192 c 0
 667 242 688 300 699 365 c 0
 710 430 706 488 689 538 c 0
 672 588 643 626 602 654 c 0
 562 680 512 694 453 694 c 0
 394 694 340 680 290 654 c 0
 242 626 200 588 168 538 c 0
 134 488 113 430 103 365 c 0
 92 300 96 242 112 192 c 0
 130 142 158 104 198 76 c 0
 239 50 289 36 349 36 c 0
 408 36 462 50 512 76 c 0
270 980 m 1
 331 980 l 1
 408 770 l 1
 358 770 l 1
 270 980 l 1
461 980 m 1
 522 980 l 1
 599 770 l 1
 549 770 l 1
 461 980 l 1
EndSplineSet
EndChar

StartChar: Odieresis
Encoding: 214 214 117
Width: 798
Flags: W
LayerCount: 2
Fore
SplineSet
166 36 m 0
 119 68 85 111 66 168 c 0
 46 225 42 290 54 365 c 0
 66 440 91 505 128 562 c 0
 166 619 214 662 270 694 c 0
 328 724 391 740 460 740 c 0
 529 740 588 724 635 694 c 0
 682 662 716 619 736 562 c 0
 755 505 759 440 748 365 c 0
 736 290 711 225 674 168 c 0
 636 111 588 68 531 36 c 0
 474 6 410 -10 341 -10 c 0
 272 -10 213 6 166 36 c 0
512 76 m 0
 560 104 601 142 634 192 c 0
 667 242 688 300 699 365 c 0
 710 430 706 488 689 538 c 0
 672 588 643 626 602 654 c 0
 562 680 512 694 453 694 c 0
 394 694 340 680 290 654 c 0
 242 626 200 588 168 538 c 0
 134 488 113 430 103 365 c 0
 92 300 96 242 112 192 c 0
 130 142 158 104 198 76 c 0
 239 50 289 36 349 36 c 0
 408 36 462 50 512 76 c 0
368 916 m 1
 448 916 l 1
 435 834 l 1
 355 834 l 1
 368 916 l 1
608 916 m 1
 687 916 l 1
 674 834 l 1
 595 834 l 1
 608 916 l 1
EndSplineSet
EndChar

StartChar: uni022A
Encoding: 554 554 118
Width: 798
Flags: W
LayerCount: 2
Fore
SplineSet
166 36 m 0
 119 68 85 111 66 168 c 0
 46 225 42 290 54 365 c 0
 66 440 91 505 128 562 c 0
 166 619 214 662 270 694 c 0
 328 724 391 740 460 740 c 0
 529 740 588 724 635 694 c 0
 682 662 716 619 736 562 c 0
 755 505 759 440 748 365 c 0
 736 290 711 225 674 168 c 0
 636 111 588 68 531 36 c 0
 474 6 410 -10 341 -10 c 0
 272 -10 213 6 166 36 c 0
512 76 m 0
 560 104 601 142 634 192 c 0
 667 242 688 300 699 365 c 0
 710 430 706 488 689 538 c 0
 672 588 643 626 602 654 c 0
 562 680 512 694 453 694 c 0
 394 694 340 680 290 654 c 0
 242 626 200 588 168 538 c 0
 134 488 113 430 103 365 c 0
 92 300 96 242 112 192 c 0
 130 142 158 104 198 76 c 0
 239 50 289 36 349 36 c 0
 408 36 462 50 512 76 c 0
368 916 m 1
 448 916 l 1
 435 834 l 1
 355 834 l 1
 368 916 l 1
608 916 m 1
 687 916 l 1
 674 834 l 1
 595 834 l 1
 608 916 l 1
336 1082 m 1
 678 1082 l 1
 671 1040 l 1
 329 1040 l 1
 336 1082 l 1
EndSplineSet
EndChar

StartChar: uni0230
Encoding: 560 560 119
Width: 798
Flags: W
LayerCount: 2
Fore
SplineSet
166 36 m 0
 119 68 85 111 66 168 c 0
 46 225 42 290 54 365 c 0
 66 440 91 505 128 562 c 0
 166 619 214 662 270 694 c 0
 328 724 391 740 460 740 c 0
 529 740 588 724 635 694 c 0
 682 662 716 619 736 562 c 0
 755 505 759 440 748 365 c 0
 736 290 711 225 674 168 c 0
 636 111 588 68 531 36 c 0
 474 6 410 -10 341 -10 c 0
 272 -10 213 6 166 36 c 0
512 76 m 0
 560 104 601 142 634 192 c 0
 667 242 688 300 699 365 c 0
 710 430 706 488 689 538 c 0
 672 588 643 626 602 654 c 0
 562 680 512 694 453 694 c 0
 394 694 340 680 290 654 c 0
 242 626 200 588 168 538 c 0
 134 488 113 430 103 365 c 0
 92 300 96 242 112 192 c 0
 130 142 158 104 198 76 c 0
 239 50 289 36 349 36 c 0
 408 36 462 50 512 76 c 0
468 916 m 1
 548 916 l 1
 535 834 l 1
 455 834 l 1
 468 916 l 1
336 1082 m 1
 678 1082 l 1
 671 1040 l 1
 329 1040 l 1
 336 1082 l 1
EndSplineSet
EndChar

StartChar: uni1ECC
Encoding: 7884 7884 120
Width: 798
Flags: W
LayerCount: 2
Fore
SplineSet
166 36 m 0
 119 68 85 111 66 168 c 0
 46 225 42 290 54 365 c 0
 66 440 91 505 128 562 c 0
 166 619 214 662 270 694 c 0
 328 724 391 740 460 740 c 0
 529 740 588 724 635 694 c 0
 682 662 716 619 736 562 c 0
 755 505 759 440 748 365 c 0
 736 290 711 225 674 168 c 0
 636 111 588 68 531 36 c 0
 474 6 410 -10 341 -10 c 0
 272 -10 213 6 166 36 c 0
512 76 m 0
 560 104 601 142 634 192 c 0
 667 242 688 300 699 365 c 0
 710 430 706 488 689 538 c 0
 672 588 643 626 602 654 c 0
 562 680 512 694 453 694 c 0
 394 694 340 680 290 654 c 0
 242 626 200 588 168 538 c 0
 134 488 113 430 103 365 c 0
 92 300 96 242 112 192 c 0
 130 142 158 104 198 76 c 0
 239 50 289 36 349 36 c 0
 408 36 462 50 512 76 c 0
307 -104 m 1
 387 -104 l 1
 374 -186 l 1
 294 -186 l 1
 307 -104 l 1
EndSplineSet
EndChar

StartChar: Ograve
Encoding: 210 210 121
Width: 798
Flags: W
LayerCount: 2
Fore
SplineSet
166 36 m 0
 119 68 85 111 66 168 c 0
 46 225 42 290 54 365 c 0
 66 440 91 505 128 562 c 0
 166 619 214 662 270 694 c 0
 328 724 391 740 460 740 c 0
 529 740 588 724 635 694 c 0
 682 662 716 619 736 562 c 0
 755 505 759 440 748 365 c 0
 736 290 711 225 674 168 c 0
 636 111 588 68 531 36 c 0
 474 6 410 -10 341 -10 c 0
 272 -10 213 6 166 36 c 0
512 76 m 0
 560 104 601 142 634 192 c 0
 667 242 688 300 699 365 c 0
 710 430 706 488 689 538 c 0
 672 588 643 626 602 654 c 0
 562 680 512 694 453 694 c 0
 394 694 340 680 290 654 c 0
 242 626 200 588 168 538 c 0
 134 488 113 430 103 365 c 0
 92 300 96 242 112 192 c 0
 130 142 158 104 198 76 c 0
 239 50 289 36 349 36 c 0
 408 36 462 50 512 76 c 0
356 980 m 1
 417 980 l 1
 493 770 l 1
 443 770 l 1
 356 980 l 1
EndSplineSet
EndChar

StartChar: uni1ECE
Encoding: 7886 7886 122
Width: 798
Flags: W
LayerCount: 2
Fore
SplineSet
166 36 m 0
 119 68 85 111 66 168 c 0
 46 225 42 290 54 365 c 0
 66 440 91 505 128 562 c 0
 166 619 214 662 270 694 c 0
 328 724 391 740 460 740 c 0
 529 740 588 724 635 694 c 0
 682 662 716 619 736 562 c 0
 755 505 759 440 748 365 c 0
 736 290 711 225 674 168 c 0
 636 111 588 68 531 36 c 0
 474 6 410 -10 341 -10 c 0
 272 -10 213 6 166 36 c 0
512 76 m 0
 560 104 601 142 634 192 c 0
 667 242 688 300 699 365 c 0
 710 430 706 488 689 538 c 0
 672 588 643 626 602 654 c 0
 562 680 512 694 453 694 c 0
 394 694 340 680 290 654 c 0
 242 626 200 588 168 538 c 0
 134 488 113 430 103 365 c 0
 92 300 96 242 112 192 c 0
 130 142 158 104 198 76 c 0
 239 50 289 36 349 36 c 0
 408 36 462 50 512 76 c 0
588 847 m 0
 594 863 598 877 600 888 c 0
 603 907 598 919 587 926 c 0
 576 933 552 936 517 936 c 0
 480 936 440 931 397 920 c 1
 397 961 l 1
 444 972 490 978 533 978 c 0
 582 978 616 972 634 962 c 0
 651 950 658 931 653 902 c 0
 651 889 647 873 641 855 c 0
 635 837 629 821 622 808 c 1
 572 808 l 1
 577 818 583 831 588 847 c 0
EndSplineSet
EndChar

StartChar: Ohorn
Encoding: 416 416 123
Width: 787
Flags: W
LayerCount: 2
Fore
SplineSet
774 660 m 0
 754 640 731 629 702 628 c 1
 725 595 740 557 748 512 c 0
 756 467 756 418 748 365 c 0
 736 290 711 225 674 168 c 0
 636 111 588 68 531 36 c 0
 474 6 410 -10 341 -10 c 0
 272 -10 213 6 166 36 c 0
 119 68 85 111 66 168 c 0
 46 225 42 290 54 365 c 0
 66 440 91 505 128 562 c 0
 166 619 214 662 270 694 c 0
 328 724 391 740 460 740 c 0
 539 740 604 720 655 679 c 0
 664 674 676 672 689 672 c 0
 729 672 753 697 761 746 c 0
 763 761 764 778 764 796 c 0
 764 816 762 831 759 843 c 1
 809 843 l 1
 816 809 816 775 810 742 c 0
 805 707 792 680 774 660 c 0
512 76 m 0
 560 104 601 142 634 192 c 0
 667 242 688 300 699 365 c 0
 710 430 706 488 689 538 c 0
 672 588 643 626 602 654 c 0
 562 680 512 694 453 694 c 0
 394 694 340 680 290 654 c 0
 242 626 200 588 168 538 c 0
 134 488 113 430 103 365 c 0
 92 300 96 242 112 192 c 0
 130 142 158 104 198 76 c 0
 239 50 289 36 349 36 c 0
 408 36 462 50 512 76 c 0
EndSplineSet
EndChar

StartChar: uni1EDA
Encoding: 7898 7898 124
Width: 811
Flags: W
LayerCount: 2
Fore
SplineSet
774 660 m 0
 754 640 731 629 702 628 c 1
 725 595 740 557 748 512 c 0
 756 467 756 418 748 365 c 0
 736 290 711 225 674 168 c 0
 636 111 588 68 531 36 c 0
 474 6 410 -10 341 -10 c 0
 272 -10 213 6 166 36 c 0
 119 68 85 111 66 168 c 0
 46 225 42 290 54 365 c 0
 66 440 91 505 128 562 c 0
 166 619 214 662 270 694 c 0
 328 724 391 740 460 740 c 0
 539 740 604 720 655 679 c 0
 664 674 676 672 689 672 c 0
 729 672 753 697 761 746 c 0
 763 761 764 778 764 796 c 0
 764 816 762 831 759 843 c 1
 809 843 l 1
 816 809 816 775 810 742 c 0
 805 707 792 680 774 660 c 0
512 76 m 0
 560 104 601 142 634 192 c 0
 667 242 688 300 699 365 c 0
 710 430 706 488 689 538 c 0
 672 588 643 626 602 654 c 0
 562 680 512 694 453 694 c 0
 394 694 340 680 290 654 c 0
 242 626 200 588 168 538 c 0
 134 488 113 430 103 365 c 0
 92 300 96 242 112 192 c 0
 130 142 158 104 198 76 c 0
 239 50 289 36 349 36 c 0
 408 36 462 50 512 76 c 0
463 770 m 1
 412 770 l 1
 556 980 l 1
 616 980 l 1
 463 770 l 1
EndSplineSet
EndChar

StartChar: uni1EE2
Encoding: 7906 7906 125
Width: 811
Flags: W
LayerCount: 2
Fore
SplineSet
774 660 m 0
 754 640 731 629 702 628 c 1
 725 595 740 557 748 512 c 0
 756 467 756 418 748 365 c 0
 736 290 711 225 674 168 c 0
 636 111 588 68 531 36 c 0
 474 6 410 -10 341 -10 c 0
 272 -10 213 6 166 36 c 0
 119 68 85 111 66 168 c 0
 46 225 42 290 54 365 c 0
 66 440 91 505 128 562 c 0
 166 619 214 662 270 694 c 0
 328 724 391 740 460 740 c 0
 539 740 604 720 655 679 c 0
 664 674 676 672 689 672 c 0
 729 672 753 697 761 746 c 0
 763 761 764 778 764 796 c 0
 764 816 762 831 759 843 c 1
 809 843 l 1
 816 809 816 775 810 742 c 0
 805 707 792 680 774 660 c 0
512 76 m 0
 560 104 601 142 634 192 c 0
 667 242 688 300 699 365 c 0
 710 430 706 488 689 538 c 0
 672 588 643 626 602 654 c 0
 562 680 512 694 453 694 c 0
 394 694 340 680 290 654 c 0
 242 626 200 588 168 538 c 0
 134 488 113 430 103 365 c 0
 92 300 96 242 112 192 c 0
 130 142 158 104 198 76 c 0
 239 50 289 36 349 36 c 0
 408 36 462 50 512 76 c 0
307 -104 m 1
 387 -104 l 1
 374 -186 l 1
 294 -186 l 1
 307 -104 l 1
EndSplineSet
EndChar

StartChar: uni1EDC
Encoding: 7900 7900 126
Width: 811
Flags: W
LayerCount: 2
Fore
SplineSet
774 660 m 0
 754 640 731 629 702 628 c 1
 725 595 740 557 748 512 c 0
 756 467 756 418 748 365 c 0
 736 290 711 225 674 168 c 0
 636 111 588 68 531 36 c 0
 474 6 410 -10 341 -10 c 0
 272 -10 213 6 166 36 c 0
 119 68 85 111 66 168 c 0
 46 225 42 290 54 365 c 0
 66 440 91 505 128 562 c 0
 166 619 214 662 270 694 c 0
 328 724 391 740 460 740 c 0
 539 740 604 720 655 679 c 0
 664 674 676 672 689 672 c 0
 729 672 753 697 761 746 c 0
 763 761 764 778 764 796 c 0
 764 816 762 831 759 843 c 1
 809 843 l 1
 816 809 816 775 810 742 c 0
 805 707 792 680 774 660 c 0
512 76 m 0
 560 104 601 142 634 192 c 0
 667 242 688 300 699 365 c 0
 710 430 706 488 689 538 c 0
 672 588 643 626 602 654 c 0
 562 680 512 694 453 694 c 0
 394 694 340 680 290 654 c 0
 242 626 200 588 168 538 c 0
 134 488 113 430 103 365 c 0
 92 300 96 242 112 192 c 0
 130 142 158 104 198 76 c 0
 239 50 289 36 349 36 c 0
 408 36 462 50 512 76 c 0
356 980 m 1
 417 980 l 1
 493 770 l 1
 443 770 l 1
 356 980 l 1
EndSplineSet
EndChar

StartChar: uni1EDE
Encoding: 7902 7902 127
Width: 811
Flags: W
LayerCount: 2
Fore
SplineSet
774 660 m 0
 754 640 731 629 702 628 c 1
 725 595 740 557 748 512 c 0
 756 467 756 418 748 365 c 0
 736 290 711 225 674 168 c 0
 636 111 588 68 531 36 c 0
 474 6 410 -10 341 -10 c 0
 272 -10 213 6 166 36 c 0
 119 68 85 111 66 168 c 0
 46 225 42 290 54 365 c 0
 66 440 91 505 128 562 c 0
 166 619 214 662 270 694 c 0
 328 724 391 740 460 740 c 0
 539 740 604 720 655 679 c 0
 664 674 676 672 689 672 c 0
 729 672 753 697 761 746 c 0
 763 761 764 778 764 796 c 0
 764 816 762 831 759 843 c 1
 809 843 l 1
 816 809 816 775 810 742 c 0
 805 707 792 680 774 660 c 0
512 76 m 0
 560 104 601 142 634 192 c 0
 667 242 688 300 699 365 c 0
 710 430 706 488 689 538 c 0
 672 588 643 626 602 654 c 0
 562 680 512 694 453 694 c 0
 394 694 340 680 290 654 c 0
 242 626 200 588 168 538 c 0
 134 488 113 430 103 365 c 0
 92 300 96 242 112 192 c 0
 130 142 158 104 198 76 c 0
 239 50 289 36 349 36 c 0
 408 36 462 50 512 76 c 0
588 847 m 0
 594 863 598 877 600 888 c 0
 603 907 598 919 587 926 c 0
 576 933 552 936 517 936 c 0
 480 936 440 931 397 920 c 1
 397 961 l 1
 444 972 490 978 533 978 c 0
 582 978 616 972 634 962 c 0
 651 950 658 931 653 902 c 0
 651 889 647 873 641 855 c 0
 635 837 629 821 622 808 c 1
 572 808 l 1
 577 818 583 831 588 847 c 0
EndSplineSet
EndChar

StartChar: uni1EE0
Encoding: 7904 7904 128
Width: 811
Flags: W
LayerCount: 2
Fore
SplineSet
774 660 m 0
 754 640 731 629 702 628 c 1
 725 595 740 557 748 512 c 0
 756 467 756 418 748 365 c 0
 736 290 711 225 674 168 c 0
 636 111 588 68 531 36 c 0
 474 6 410 -10 341 -10 c 0
 272 -10 213 6 166 36 c 0
 119 68 85 111 66 168 c 0
 46 225 42 290 54 365 c 0
 66 440 91 505 128 562 c 0
 166 619 214 662 270 694 c 0
 328 724 391 740 460 740 c 0
 539 740 604 720 655 679 c 0
 664 674 676 672 689 672 c 0
 729 672 753 697 761 746 c 0
 763 761 764 778 764 796 c 0
 764 816 762 831 759 843 c 1
 809 843 l 1
 816 809 816 775 810 742 c 0
 805 707 792 680 774 660 c 0
512 76 m 0
 560 104 601 142 634 192 c 0
 667 242 688 300 699 365 c 0
 710 430 706 488 689 538 c 0
 672 588 643 626 602 654 c 0
 562 680 512 694 453 694 c 0
 394 694 340 680 290 654 c 0
 242 626 200 588 168 538 c 0
 134 488 113 430 103 365 c 0
 92 300 96 242 112 192 c 0
 130 142 158 104 198 76 c 0
 239 50 289 36 349 36 c 0
 408 36 462 50 512 76 c 0
514 820 m 0
 496 828 480 841 464 857 c 0
 439 883 416 896 395 896 c 0
 384 896 374 890 368 878 c 0
 360 866 355 845 350 816 c 1
 303 816 l 1
 316 901 349 944 402 944 c 0
 418 944 435 940 452 930 c 0
 469 922 486 909 501 893 c 0
 526 867 550 854 571 854 c 0
 582 854 592 860 598 872 c 0
 606 884 611 905 616 934 c 1
 663 934 l 1
 650 849 616 806 563 806 c 0
 547 806 530 810 514 820 c 0
EndSplineSet
EndChar

StartChar: Ohungarumlaut
Encoding: 336 336 129
Width: 798
Flags: W
LayerCount: 2
Fore
SplineSet
166 36 m 0
 119 68 85 111 66 168 c 0
 46 225 42 290 54 365 c 0
 66 440 91 505 128 562 c 0
 166 619 214 662 270 694 c 0
 328 724 391 740 460 740 c 0
 529 740 588 724 635 694 c 0
 682 662 716 619 736 562 c 0
 755 505 759 440 748 365 c 0
 736 290 711 225 674 168 c 0
 636 111 588 68 531 36 c 0
 474 6 410 -10 341 -10 c 0
 272 -10 213 6 166 36 c 0
512 76 m 0
 560 104 601 142 634 192 c 0
 667 242 688 300 699 365 c 0
 710 430 706 488 689 538 c 0
 672 588 643 626 602 654 c 0
 562 680 512 694 453 694 c 0
 394 694 340 680 290 654 c 0
 242 626 200 588 168 538 c 0
 134 488 113 430 103 365 c 0
 92 300 96 242 112 192 c 0
 130 142 158 104 198 76 c 0
 239 50 289 36 349 36 c 0
 408 36 462 50 512 76 c 0
373 770 m 1
 322 770 l 1
 466 980 l 1
 526 980 l 1
 373 770 l 1
568 770 m 1
 517 770 l 1
 661 980 l 1
 721 980 l 1
 568 770 l 1
EndSplineSet
EndChar

StartChar: uni020E
Encoding: 526 526 130
Width: 798
Flags: W
LayerCount: 2
Fore
SplineSet
166 36 m 0
 119 68 85 111 66 168 c 0
 46 225 42 290 54 365 c 0
 66 440 91 505 128 562 c 0
 166 619 214 662 270 694 c 0
 328 724 391 740 460 740 c 0
 529 740 588 724 635 694 c 0
 682 662 716 619 736 562 c 0
 755 505 759 440 748 365 c 0
 736 290 711 225 674 168 c 0
 636 111 588 68 531 36 c 0
 474 6 410 -10 341 -10 c 0
 272 -10 213 6 166 36 c 0
512 76 m 0
 560 104 601 142 634 192 c 0
 667 242 688 300 699 365 c 0
 710 430 706 488 689 538 c 0
 672 588 643 626 602 654 c 0
 562 680 512 694 453 694 c 0
 394 694 340 680 290 654 c 0
 242 626 200 588 168 538 c 0
 134 488 113 430 103 365 c 0
 92 300 96 242 112 192 c 0
 130 142 158 104 198 76 c 0
 239 50 289 36 349 36 c 0
 408 36 462 50 512 76 c 0
594 914 m 0
 621 890 634 857 633 816 c 1
 582 816 l 1
 581 845 572 868 553 885 c 0
 534 902 509 910 477 910 c 0
 445 910 417 902 394 885 c 0
 370 868 353 845 343 816 c 1
 292 816 l 1
 304 857 328 890 362 914 c 0
 398 940 438 952 484 952 c 0
 529 952 566 940 594 914 c 0
EndSplineSet
EndChar

StartChar: Omacron
Encoding: 332 332 131
Width: 798
Flags: W
LayerCount: 2
Fore
SplineSet
166 36 m 0
 119 68 85 111 66 168 c 0
 46 225 42 290 54 365 c 0
 66 440 91 505 128 562 c 0
 166 619 214 662 270 694 c 0
 328 724 391 740 460 740 c 0
 529 740 588 724 635 694 c 0
 682 662 716 619 736 562 c 0
 755 505 759 440 748 365 c 0
 736 290 711 225 674 168 c 0
 636 111 588 68 531 36 c 0
 474 6 410 -10 341 -10 c 0
 272 -10 213 6 166 36 c 0
512 76 m 0
 560 104 601 142 634 192 c 0
 667 242 688 300 699 365 c 0
 710 430 706 488 689 538 c 0
 672 588 643 626 602 654 c 0
 562 680 512 694 453 694 c 0
 394 694 340 680 290 654 c 0
 242 626 200 588 168 538 c 0
 134 488 113 430 103 365 c 0
 92 300 96 242 112 192 c 0
 130 142 158 104 198 76 c 0
 239 50 289 36 349 36 c 0
 408 36 462 50 512 76 c 0
306 896 m 1
 648 896 l 1
 641 854 l 1
 299 854 l 1
 306 896 l 1
EndSplineSet
EndChar

StartChar: uni01EA
Encoding: 490 490 132
Width: 775
Flags: W
LayerCount: 2
Fore
SplineSet
300 -65 m 0
 282 -84 271 -103 268 -121 c 0
 265 -141 271 -155 288 -164 c 0
 304 -173 325 -177 352 -177 c 0
 385 -177 415 -171 444 -158 c 1
 449 -198 l 1
 416 -212 380 -219 342 -219 c 0
 293 -219 260 -210 242 -192 c 0
 224 -175 217 -153 221 -127 c 0
 228 -87 258 -48 312 -9 c 1
 249 -5 196 13 153 46 c 0
 110 78 80 122 63 176 c 0
 46 232 43 294 54 365 c 0
 66 440 91 505 128 562 c 0
 166 619 214 662 270 694 c 0
 328 724 391 740 460 740 c 0
 529 740 588 724 635 694 c 0
 682 662 716 619 736 562 c 0
 755 505 759 440 748 365 c 0
 737 295 714 233 680 179 c 0
 647 125 604 82 552 49 c 0
 500 16 442 -3 379 -8 c 1
 346 -27 320 -46 300 -65 c 0
112 192 m 0
 130 142 158 104 198 76 c 0
 239 50 289 36 349 36 c 0
 408 36 462 50 512 76 c 0
 560 104 601 142 634 192 c 0
 667 242 688 300 699 365 c 0
 710 430 706 488 689 538 c 0
 672 588 643 626 602 654 c 0
 562 680 512 694 453 694 c 0
 394 694 340 680 290 654 c 0
 242 626 200 588 168 538 c 0
 134 488 113 430 103 365 c 0
 92 300 96 242 112 192 c 0
EndSplineSet
EndChar

StartChar: Oslash
Encoding: 216 216 133
Width: 775
Flags: W
LayerCount: 2
Fore
SplineSet
745 530 m 0
 756 480 757 426 748 365 c 0
 736 290 711 225 674 168 c 0
 636 111 588 68 531 36 c 0
 474 6 410 -10 341 -10 c 0
 262 -10 198 10 147 51 c 1
 81 -23 l 1
 52 3 l 1
 119 77 l 1
 88 110 67 152 56 200 c 0
 45 250 44 304 54 365 c 0
 66 440 91 505 128 562 c 0
 166 619 214 662 270 694 c 0
 328 724 391 740 460 740 c 0
 539 740 603 720 654 679 c 1
 720 753 l 1
 749 727 l 1
 682 653 l 1
 713 620 734 578 745 530 c 0
104 224 m 0
 112 182 129 146 154 117 c 1
 620 641 l 1
 577 676 521 694 453 694 c 0
 394 694 340 680 290 654 c 0
 242 626 200 588 168 538 c 0
 134 488 113 430 103 365 c 0
 94 313 94 266 104 224 c 0
512 76 m 0
 560 104 601 142 634 192 c 0
 667 242 688 300 699 365 c 0
 707 417 706 464 698 506 c 0
 688 548 672 584 648 613 c 1
 182 89 l 1
 225 54 281 36 349 36 c 0
 408 36 462 50 512 76 c 0
EndSplineSet
EndChar

StartChar: Oslashacute
Encoding: 510 510 134
Width: 798
Flags: W
LayerCount: 2
Fore
SplineSet
745 530 m 0
 756 480 757 426 748 365 c 0
 736 290 711 225 674 168 c 0
 636 111 588 68 531 36 c 0
 474 6 410 -10 341 -10 c 0
 262 -10 198 10 147 51 c 1
 81 -23 l 1
 52 3 l 1
 119 77 l 1
 88 110 67 152 56 200 c 0
 45 250 44 304 54 365 c 0
 66 440 91 505 128 562 c 0
 166 619 214 662 270 694 c 0
 328 724 391 740 460 740 c 0
 539 740 603 720 654 679 c 1
 720 753 l 1
 749 727 l 1
 682 653 l 1
 713 620 734 578 745 530 c 0
104 224 m 0
 112 182 129 146 154 117 c 1
 620 641 l 1
 577 676 521 694 453 694 c 0
 394 694 340 680 290 654 c 0
 242 626 200 588 168 538 c 0
 134 488 113 430 103 365 c 0
 94 313 94 266 104 224 c 0
512 76 m 0
 560 104 601 142 634 192 c 0
 667 242 688 300 699 365 c 0
 707 417 706 464 698 506 c 0
 688 548 672 584 648 613 c 1
 182 89 l 1
 225 54 281 36 349 36 c 0
 408 36 462 50 512 76 c 0
463 770 m 1
 412 770 l 1
 556 980 l 1
 616 980 l 1
 463 770 l 1
EndSplineSet
EndChar

StartChar: Otilde
Encoding: 213 213 135
Width: 798
Flags: W
LayerCount: 2
Fore
SplineSet
166 36 m 0
 119 68 85 111 66 168 c 0
 46 225 42 290 54 365 c 0
 66 440 91 505 128 562 c 0
 166 619 214 662 270 694 c 0
 328 724 391 740 460 740 c 0
 529 740 588 724 635 694 c 0
 682 662 716 619 736 562 c 0
 755 505 759 440 748 365 c 0
 736 290 711 225 674 168 c 0
 636 111 588 68 531 36 c 0
 474 6 410 -10 341 -10 c 0
 272 -10 213 6 166 36 c 0
512 76 m 0
 560 104 601 142 634 192 c 0
 667 242 688 300 699 365 c 0
 710 430 706 488 689 538 c 0
 672 588 643 626 602 654 c 0
 562 680 512 694 453 694 c 0
 394 694 340 680 290 654 c 0
 242 626 200 588 168 538 c 0
 134 488 113 430 103 365 c 0
 92 300 96 242 112 192 c 0
 130 142 158 104 198 76 c 0
 239 50 289 36 349 36 c 0
 408 36 462 50 512 76 c 0
514 820 m 0
 496 828 480 841 464 857 c 0
 439 883 416 896 395 896 c 0
 384 896 374 890 368 878 c 0
 360 866 355 845 350 816 c 1
 303 816 l 1
 316 901 349 944 402 944 c 0
 418 944 435 940 452 930 c 0
 469 922 486 909 501 893 c 0
 526 867 550 854 571 854 c 0
 582 854 592 860 598 872 c 0
 606 884 611 905 616 934 c 1
 663 934 l 1
 650 849 616 806 563 806 c 0
 547 806 530 810 514 820 c 0
EndSplineSet
EndChar

StartChar: uni022C
Encoding: 556 556 136
Width: 798
Flags: W
LayerCount: 2
Fore
SplineSet
166 36 m 0
 119 68 85 111 66 168 c 0
 46 225 42 290 54 365 c 0
 66 440 91 505 128 562 c 0
 166 619 214 662 270 694 c 0
 328 724 391 740 460 740 c 0
 529 740 588 724 635 694 c 0
 682 662 716 619 736 562 c 0
 755 505 759 440 748 365 c 0
 736 290 711 225 674 168 c 0
 636 111 588 68 531 36 c 0
 474 6 410 -10 341 -10 c 0
 272 -10 213 6 166 36 c 0
512 76 m 0
 560 104 601 142 634 192 c 0
 667 242 688 300 699 365 c 0
 710 430 706 488 689 538 c 0
 672 588 643 626 602 654 c 0
 562 680 512 694 453 694 c 0
 394 694 340 680 290 654 c 0
 242 626 200 588 168 538 c 0
 134 488 113 430 103 365 c 0
 92 300 96 242 112 192 c 0
 130 142 158 104 198 76 c 0
 239 50 289 36 349 36 c 0
 408 36 462 50 512 76 c 0
514 820 m 0
 496 828 480 841 464 857 c 0
 439 883 416 896 395 896 c 0
 384 896 374 890 368 878 c 0
 360 866 355 845 350 816 c 1
 303 816 l 1
 316 901 349 944 402 944 c 0
 418 944 435 940 452 930 c 0
 469 922 486 909 501 893 c 0
 526 867 550 854 571 854 c 0
 582 854 592 860 598 872 c 0
 606 884 611 905 616 934 c 1
 663 934 l 1
 650 849 616 806 563 806 c 0
 547 806 530 810 514 820 c 0
340 1110 m 1
 682 1110 l 1
 675 1068 l 1
 333 1068 l 1
 340 1110 l 1
EndSplineSet
EndChar

StartChar: OE
Encoding: 338 338 137
Width: 963
Flags: W
LayerCount: 2
Fore
SplineSet
589 684 m 1
 546 410 l 1
 901 410 l 1
 894 365 l 1
 539 365 l 1
 488 46 l 1
 863 46 l 1
 855 0 l 1
 432 0 l 1
 432 1 l 1
 402 -6 372 -10 341 -10 c 0
 272 -10 213 6 166 36 c 0
 119 68 85 111 66 168 c 0
 46 225 42 290 54 365 c 0
 66 440 91 505 128 562 c 0
 166 619 214 662 270 694 c 0
 328 724 391 740 460 740 c 0
 491 740 520 736 548 729 c 1
 548 730 l 1
 971 730 l 1
 964 684 l 1
 589 684 l 1
440 49 m 1
 540 681 l 1
 512 690 483 694 453 694 c 0
 394 694 340 680 290 654 c 0
 242 626 200 588 168 538 c 0
 134 488 113 430 103 365 c 0
 92 300 96 242 112 192 c 0
 130 142 158 104 198 76 c 0
 239 50 289 36 349 36 c 0
 379 36 409 40 440 49 c 1
EndSplineSet
EndChar

StartChar: P
Encoding: 80 80 138
Width: 560
Flags: W
LayerCount: 2
Fore
SplineSet
526 678 m 0
 568 642 583 587 571 512 c 0
 559 437 527 382 476 348 c 0
 424 312 349 295 250 295 c 2
 133 295 l 1
 86 0 l 1
 37 0 l 1
 153 730 l 1
 312 730 l 2
 413 730 485 712 526 678 c 0
444 382 m 0
 486 408 512 452 521 512 c 0
 530 573 518 616 484 644 c 0
 451 670 392 684 307 684 c 2
 194 684 l 1
 140 341 l 1
 253 341 l 2
 338 341 401 354 444 382 c 0
EndSplineSet
EndChar

StartChar: Thorn
Encoding: 222 222 139
Width: 560
Flags: W
LayerCount: 2
Fore
SplineSet
504 540 m 0
 546 506 561 450 549 375 c 0
 537 300 505 244 454 210 c 0
 402 174 327 157 228 157 c 2
 111 157 l 1
 86 0 l 1
 37 0 l 1
 153 730 l 1
 202 730 l 1
 180 593 l 1
 291 593 l 2
 392 593 463 576 504 540 c 0
422 244 m 0
 464 270 490 314 499 375 c 0
 508 435 496 478 462 506 c 0
 429 532 370 546 285 546 c 2
 172 546 l 1
 118 203 l 1
 231 203 l 2
 316 203 379 216 422 244 c 0
EndSplineSet
EndChar

StartChar: Q
Encoding: 81 81 140
Width: 785
Flags: W
LayerCount: 2
Fore
SplineSet
689 -92 m 1
 647 -122 l 1
 619 -85 579 -58 527 -38 c 0
 475 -20 413 -10 341 -10 c 0
 272 -10 213 6 166 36 c 0
 119 68 85 111 66 168 c 0
 46 225 42 290 54 365 c 0
 66 440 91 505 128 562 c 0
 166 619 214 662 270 694 c 0
 328 724 391 740 460 740 c 0
 529 740 588 724 635 694 c 0
 682 662 716 619 736 562 c 0
 755 505 759 440 748 365 c 0
 735 280 704 206 656 146 c 0
 608 84 549 42 478 17 c 1
 574 -2 644 -38 689 -92 c 1
112 192 m 0
 130 142 158 104 198 76 c 0
 239 50 289 36 349 36 c 0
 408 36 462 50 512 76 c 0
 560 104 601 142 634 192 c 0
 667 242 688 300 699 365 c 0
 710 430 706 488 689 538 c 0
 672 588 643 626 602 654 c 0
 562 680 512 694 453 694 c 0
 394 694 340 680 290 654 c 0
 242 626 200 588 168 538 c 0
 134 488 113 430 103 365 c 0
 92 300 96 242 112 192 c 0
EndSplineSet
EndChar

StartChar: R
Encoding: 82 82 141
Width: 587
Flags: W
LayerCount: 2
Fore
SplineSet
217 334 m 1
 139 334 l 1
 86 0 l 1
 37 0 l 1
 153 730 l 1
 329 730 l 2
 425 730 492 714 532 683 c 0
 570 652 585 602 574 533 c 0
 563 465 534 415 486 383 c 0
 438 351 368 335 277 334 c 1
 510 0 l 1
 449 0 l 1
 217 334 l 1
146 379 m 1
 275 379 l 2
 355 379 414 391 453 415 c 0
 492 439 515 478 524 531 c 0
 533 585 521 624 490 648 c 0
 459 672 403 684 324 684 c 2
 194 684 l 1
 146 379 l 1
EndSplineSet
EndChar

StartChar: Racute
Encoding: 340 340 142
Width: 609
Flags: W
LayerCount: 2
Fore
SplineSet
217 334 m 1
 139 334 l 1
 86 0 l 1
 37 0 l 1
 153 730 l 1
 329 730 l 2
 425 730 492 714 532 683 c 0
 570 652 585 602 574 533 c 0
 563 465 534 415 486 383 c 0
 438 351 368 335 277 334 c 1
 510 0 l 1
 449 0 l 1
 217 334 l 1
146 379 m 1
 275 379 l 2
 355 379 414 391 453 415 c 0
 492 439 515 478 524 531 c 0
 533 585 521 624 490 648 c 0
 459 672 403 684 324 684 c 2
 194 684 l 1
 146 379 l 1
361 770 m 1
 310 770 l 1
 454 980 l 1
 514 980 l 1
 361 770 l 1
EndSplineSet
EndChar

StartChar: Rcaron
Encoding: 344 344 143
Width: 609
Flags: W
LayerCount: 2
Fore
SplineSet
217 334 m 1
 139 334 l 1
 86 0 l 1
 37 0 l 1
 153 730 l 1
 329 730 l 2
 425 730 492 714 532 683 c 0
 570 652 585 602 574 533 c 0
 563 465 534 415 486 383 c 0
 438 351 368 335 277 334 c 1
 510 0 l 1
 449 0 l 1
 217 334 l 1
146 379 m 1
 275 379 l 2
 355 379 414 391 453 415 c 0
 492 439 515 478 524 531 c 0
 533 585 521 624 490 648 c 0
 459 672 403 684 324 684 c 2
 194 684 l 1
 146 379 l 1
205 980 m 1
 263 980 l 1
 359 796 l 1
 361 796 l 1
 516 980 l 1
 574 980 l 1
 397 770 l 1
 315 770 l 1
 205 980 l 1
EndSplineSet
EndChar

StartChar: uni0156
Encoding: 342 342 144
Width: 609
Flags: W
LayerCount: 2
Fore
SplineSet
217 334 m 1
 139 334 l 1
 86 0 l 1
 37 0 l 1
 153 730 l 1
 329 730 l 2
 425 730 492 714 532 683 c 0
 570 652 585 602 574 533 c 0
 563 465 534 415 486 383 c 0
 438 351 368 335 277 334 c 1
 510 0 l 1
 449 0 l 1
 217 334 l 1
146 379 m 1
 275 379 l 2
 355 379 414 391 453 415 c 0
 492 439 515 478 524 531 c 0
 533 585 521 624 490 648 c 0
 459 672 403 684 324 684 c 2
 194 684 l 1
 146 379 l 1
114 -250 m 1
 63 -250 l 1
 207 -40 l 1
 266 -40 l 1
 114 -250 l 1
EndSplineSet
EndChar

StartChar: uni0210
Encoding: 528 528 145
Width: 609
Flags: W
LayerCount: 2
Fore
SplineSet
217 334 m 1
 139 334 l 1
 86 0 l 1
 37 0 l 1
 153 730 l 1
 329 730 l 2
 425 730 492 714 532 683 c 0
 570 652 585 602 574 533 c 0
 563 465 534 415 486 383 c 0
 438 351 368 335 277 334 c 1
 510 0 l 1
 449 0 l 1
 217 334 l 1
146 379 m 1
 275 379 l 2
 355 379 414 391 453 415 c 0
 492 439 515 478 524 531 c 0
 533 585 521 624 490 648 c 0
 459 672 403 684 324 684 c 2
 194 684 l 1
 146 379 l 1
168 980 m 1
 229 980 l 1
 306 770 l 1
 256 770 l 1
 168 980 l 1
359 980 m 1
 420 980 l 1
 497 770 l 1
 447 770 l 1
 359 980 l 1
EndSplineSet
EndChar

StartChar: uni0212
Encoding: 530 530 146
Width: 609
Flags: W
LayerCount: 2
Fore
SplineSet
217 334 m 1
 139 334 l 1
 86 0 l 1
 37 0 l 1
 153 730 l 1
 329 730 l 2
 425 730 492 714 532 683 c 0
 570 652 585 602 574 533 c 0
 563 465 534 415 486 383 c 0
 438 351 368 335 277 334 c 1
 510 0 l 1
 449 0 l 1
 217 334 l 1
146 379 m 1
 275 379 l 2
 355 379 414 391 453 415 c 0
 492 439 515 478 524 531 c 0
 533 585 521 624 490 648 c 0
 459 672 403 684 324 684 c 2
 194 684 l 1
 146 379 l 1
490 914 m 0
 518 890 531 857 530 816 c 1
 479 816 l 1
 478 845 469 868 450 885 c 0
 431 902 406 910 374 910 c 0
 342 910 314 902 290 885 c 0
 267 868 250 845 240 816 c 1
 189 816 l 1
 201 857 224 890 260 914 c 0
 294 940 335 952 381 952 c 0
 426 952 463 940 490 914 c 0
EndSplineSet
EndChar

StartChar: S
Encoding: 83 83 147
Width: 582
Flags: W
LayerCount: 2
Fore
SplineSet
118 5 m 0
 80 15 47 30 18 49 c 1
 45 92 l 1
 73 74 104 60 138 50 c 0
 173 41 209 36 246 36 c 0
 307 36 356 49 394 76 c 0
 432 102 455 139 463 188 c 0
 468 221 464 248 450 268 c 0
 436 289 418 304 394 316 c 0
 372 326 339 339 296 352 c 0
 249 367 210 381 182 396 c 0
 152 411 130 431 114 456 c 0
 99 482 94 515 100 555 c 0
 109 613 137 658 183 691 c 0
 229 724 289 740 362 740 c 0
 401 740 441 735 480 726 c 0
 520 717 552 705 575 690 c 1
 549 647 l 1
 527 661 498 672 462 681 c 0
 427 690 391 694 356 694 c 0
 298 694 251 682 215 658 c 0
 179 633 157 599 149 555 c 0
 144 524 149 498 162 480 c 0
 175 460 194 446 216 434 c 0
 240 424 272 412 313 400 c 0
 361 385 400 370 429 354 c 0
 458 340 481 318 498 292 c 0
 514 264 519 230 512 188 c 0
 503 126 474 78 426 42 c 0
 377 8 315 -10 238 -10 c 0
 195 -10 155 -5 118 5 c 0
EndSplineSet
EndChar

StartChar: Sacute
Encoding: 346 346 148
Width: 603
Flags: W
LayerCount: 2
Fore
SplineSet
118 5 m 0
 80 15 47 30 18 49 c 1
 45 92 l 1
 73 74 104 60 138 50 c 0
 173 41 209 36 246 36 c 0
 307 36 356 49 394 76 c 0
 432 102 455 139 463 188 c 0
 468 221 464 248 450 268 c 0
 436 289 418 304 394 316 c 0
 372 326 339 339 296 352 c 0
 249 367 210 381 182 396 c 0
 152 411 130 431 114 456 c 0
 99 482 94 515 100 555 c 0
 109 613 137 658 183 691 c 0
 229 724 289 740 362 740 c 0
 401 740 441 735 480 726 c 0
 520 717 552 705 575 690 c 1
 549 647 l 1
 527 661 498 672 462 681 c 0
 427 690 391 694 356 694 c 0
 298 694 251 682 215 658 c 0
 179 633 157 599 149 555 c 0
 144 524 149 498 162 480 c 0
 175 460 194 446 216 434 c 0
 240 424 272 412 313 400 c 0
 361 385 400 370 429 354 c 0
 458 340 481 318 498 292 c 0
 514 264 519 230 512 188 c 0
 503 126 474 78 426 42 c 0
 377 8 315 -10 238 -10 c 0
 195 -10 155 -5 118 5 c 0
364 770 m 1
 313 770 l 1
 457 980 l 1
 517 980 l 1
 364 770 l 1
EndSplineSet
EndChar

StartChar: Scaron
Encoding: 352 352 149
Width: 603
Flags: W
LayerCount: 2
Fore
SplineSet
118 5 m 0
 80 15 47 30 18 49 c 1
 45 92 l 1
 73 74 104 60 138 50 c 0
 173 41 209 36 246 36 c 0
 307 36 356 49 394 76 c 0
 432 102 455 139 463 188 c 0
 468 221 464 248 450 268 c 0
 436 289 418 304 394 316 c 0
 372 326 339 339 296 352 c 0
 249 367 210 381 182 396 c 0
 152 411 130 431 114 456 c 0
 99 482 94 515 100 555 c 0
 109 613 137 658 183 691 c 0
 229 724 289 740 362 740 c 0
 401 740 441 735 480 726 c 0
 520 717 552 705 575 690 c 1
 549 647 l 1
 527 661 498 672 462 681 c 0
 427 690 391 694 356 694 c 0
 298 694 251 682 215 658 c 0
 179 633 157 599 149 555 c 0
 144 524 149 498 162 480 c 0
 175 460 194 446 216 434 c 0
 240 424 272 412 313 400 c 0
 361 385 400 370 429 354 c 0
 458 340 481 318 498 292 c 0
 514 264 519 230 512 188 c 0
 503 126 474 78 426 42 c 0
 377 8 315 -10 238 -10 c 0
 195 -10 155 -5 118 5 c 0
208 980 m 1
 266 980 l 1
 362 796 l 1
 364 796 l 1
 519 980 l 1
 577 980 l 1
 400 770 l 1
 318 770 l 1
 208 980 l 1
EndSplineSet
EndChar

StartChar: Scedilla
Encoding: 350 350 150
Width: 582
Flags: W
LayerCount: 2
Fore
SplineSet
442 55 m 0
 403 21 353 0 291 -7 c 1
 336 -46 356 -86 349 -128 c 0
 345 -154 331 -176 307 -194 c 0
 283 -211 247 -220 198 -220 c 0
 160 -220 127 -213 98 -199 c 1
 115 -159 l 1
 141 -172 170 -178 202 -178 c 0
 229 -178 252 -174 270 -165 c 0
 290 -156 301 -142 304 -122 c 0
 307 -104 302 -85 288 -66 c 0
 276 -47 255 -28 228 -10 c 1
 143 -8 73 12 18 49 c 1
 45 92 l 1
 73 74 104 60 138 50 c 0
 173 41 209 36 246 36 c 0
 307 36 356 49 394 76 c 0
 432 102 455 139 463 188 c 0
 468 221 464 248 450 268 c 0
 436 289 418 304 394 316 c 0
 372 326 339 339 296 352 c 0
 249 367 210 381 182 396 c 0
 152 411 130 431 114 456 c 0
 99 482 94 515 100 555 c 0
 109 613 137 658 183 691 c 0
 229 724 289 740 362 740 c 0
 401 740 441 735 480 726 c 0
 520 717 552 705 575 690 c 1
 549 647 l 1
 527 661 498 672 462 681 c 0
 427 690 391 694 356 694 c 0
 298 694 251 682 215 658 c 0
 179 633 157 599 149 555 c 0
 144 524 149 498 162 480 c 0
 175 460 194 446 216 434 c 0
 240 424 272 412 313 400 c 0
 361 385 400 370 429 354 c 0
 458 340 481 318 498 292 c 0
 514 264 519 230 512 188 c 0
 504 133 481 89 442 55 c 0
EndSplineSet
EndChar

StartChar: Scircumflex
Encoding: 348 348 151
Width: 603
Flags: W
LayerCount: 2
Fore
SplineSet
118 5 m 0
 80 15 47 30 18 49 c 1
 45 92 l 1
 73 74 104 60 138 50 c 0
 173 41 209 36 246 36 c 0
 307 36 356 49 394 76 c 0
 432 102 455 139 463 188 c 0
 468 221 464 248 450 268 c 0
 436 289 418 304 394 316 c 0
 372 326 339 339 296 352 c 0
 249 367 210 381 182 396 c 0
 152 411 130 431 114 456 c 0
 99 482 94 515 100 555 c 0
 109 613 137 658 183 691 c 0
 229 724 289 740 362 740 c 0
 401 740 441 735 480 726 c 0
 520 717 552 705 575 690 c 1
 549 647 l 1
 527 661 498 672 462 681 c 0
 427 690 391 694 356 694 c 0
 298 694 251 682 215 658 c 0
 179 633 157 599 149 555 c 0
 144 524 149 498 162 480 c 0
 175 460 194 446 216 434 c 0
 240 424 272 412 313 400 c 0
 361 385 400 370 429 354 c 0
 458 340 481 318 498 292 c 0
 514 264 519 230 512 188 c 0
 503 126 474 78 426 42 c 0
 377 8 315 -10 238 -10 c 0
 195 -10 155 -5 118 5 c 0
350 980 m 1
 433 980 l 1
 543 770 l 1
 485 770 l 1
 388 954 l 1
 386 954 l 1
 232 770 l 1
 174 770 l 1
 350 980 l 1
EndSplineSet
EndChar

StartChar: uni0218
Encoding: 536 536 152
Width: 603
Flags: W
LayerCount: 2
Fore
SplineSet
118 5 m 0
 80 15 47 30 18 49 c 1
 45 92 l 1
 73 74 104 60 138 50 c 0
 173 41 209 36 246 36 c 0
 307 36 356 49 394 76 c 0
 432 102 455 139 463 188 c 0
 468 221 464 248 450 268 c 0
 436 289 418 304 394 316 c 0
 372 326 339 339 296 352 c 0
 249 367 210 381 182 396 c 0
 152 411 130 431 114 456 c 0
 99 482 94 515 100 555 c 0
 109 613 137 658 183 691 c 0
 229 724 289 740 362 740 c 0
 401 740 441 735 480 726 c 0
 520 717 552 705 575 690 c 1
 549 647 l 1
 527 661 498 672 462 681 c 0
 427 690 391 694 356 694 c 0
 298 694 251 682 215 658 c 0
 179 633 157 599 149 555 c 0
 144 524 149 498 162 480 c 0
 175 460 194 446 216 434 c 0
 240 424 272 412 313 400 c 0
 361 385 400 370 429 354 c 0
 458 340 481 318 498 292 c 0
 514 264 519 230 512 188 c 0
 503 126 474 78 426 42 c 0
 377 8 315 -10 238 -10 c 0
 195 -10 155 -5 118 5 c 0
117 -250 m 1
 66 -250 l 1
 210 -40 l 1
 269 -40 l 1
 117 -250 l 1
EndSplineSet
EndChar

StartChar: uni1E9E
Encoding: 7838 7838 153
Width: 633
Flags: W
LayerCount: 2
Fore
SplineSet
198 8 m 1
 215 53 l 1
 247 42 283 36 323 36 c 0
 387 36 438 49 476 74 c 0
 514 100 537 137 544 185 c 0
 552 234 540 271 510 296 c 0
 478 321 429 334 362 334 c 2
 346 334 l 1
 354 386 l 1
 525 568 l 1
 530 611 521 642 497 663 c 0
 473 684 434 694 380 694 c 0
 316 694 267 679 232 648 c 0
 198 618 176 570 166 504 c 2
 86 0 l 1
 37 0 l 1
 117 504 l 2
 130 583 158 642 202 682 c 0
 247 720 308 740 387 740 c 0
 530 740 591 678 572 554 c 1
 404 376 l 1
 404 374 l 1
 475 373 526 356 559 323 c 0
 592 290 603 244 593 185 c 0
 583 122 554 74 508 40 c 0
 460 7 398 -10 320 -10 c 0
 278 -10 237 -4 198 8 c 1
EndSplineSet
EndChar

StartChar: uni018F
Encoding: 399 399 154
Width: 732
Flags: W
LayerCount: 2
Fore
SplineSet
656 643 m 0
 707 578 724 486 705 365 c 0
 692 287 669 220 634 164 c 0
 599 107 555 64 501 34 c 0
 447 5 386 -10 318 -10 c 0
 250 -10 194 5 150 34 c 0
 106 63 76 106 58 162 c 0
 42 218 39 285 52 363 c 0
 53 373 55 380 56 383 c 2
 659 383 l 1
 674 485 659 562 614 615 c 0
 570 668 498 694 398 694 c 0
 355 694 311 689 266 679 c 0
 222 669 180 655 141 637 c 1
 134 680 l 1
 173 699 217 713 264 724 c 0
 311 735 358 740 403 740 c 0
 520 740 604 708 656 643 c 0
539 114 m 0
 595 166 633 240 652 337 c 1
 96 337 l 1
 85 240 99 166 138 114 c 0
 178 62 241 36 326 36 c 0
 412 36 483 62 539 114 c 0
EndSplineSet
EndChar

StartChar: T
Encoding: 84 84 155
Width: 605
Flags: W
LayerCount: 2
Fore
SplineSet
342 684 m 1
 89 684 l 1
 96 730 l 1
 651 730 l 1
 643 684 l 1
 391 684 l 1
 282 0 l 1
 233 0 l 1
 342 684 l 1
EndSplineSet
EndChar

StartChar: Tbar
Encoding: 358 358 156
Width: 656
Flags: W
LayerCount: 2
Fore
SplineSet
669 684 m 1
 416 684 l 1
 361 337 l 1
 549 337 l 1
 542 293 l 1
 354 293 l 1
 308 0 l 1
 259 0 l 1
 305 293 l 1
 118 293 l 1
 125 337 l 1
 312 337 l 1
 367 684 l 1
 114 684 l 1
 122 730 l 1
 676 730 l 1
 669 684 l 1
EndSplineSet
EndChar

StartChar: Tcaron
Encoding: 356 356 157
Width: 622
Flags: W
LayerCount: 2
Fore
SplineSet
342 684 m 1
 89 684 l 1
 96 730 l 1
 651 730 l 1
 643 684 l 1
 391 684 l 1
 282 0 l 1
 233 0 l 1
 342 684 l 1
220 980 m 1
 278 980 l 1
 374 796 l 1
 376 796 l 1
 531 980 l 1
 589 980 l 1
 412 770 l 1
 330 770 l 1
 220 980 l 1
EndSplineSet
EndChar

StartChar: uni0162
Encoding: 354 354 158
Width: 605
Flags: W
LayerCount: 2
Fore
SplineSet
391 684 m 1
 284 13 l 1
 314 -8 336 -31 350 -54 c 0
 365 -78 370 -102 366 -127 c 0
 362 -153 348 -175 324 -192 c 0
 300 -210 264 -219 215 -219 c 0
 178 -219 145 -212 116 -198 c 1
 133 -158 l 1
 158 -171 186 -177 219 -177 c 0
 246 -177 268 -173 288 -164 c 0
 306 -155 318 -141 321 -121 c 0
 324 -102 318 -82 303 -60 c 0
 288 -40 264 -19 232 0 c 1
 233 0 l 1
 342 684 l 1
 89 684 l 1
 96 730 l 1
 651 730 l 1
 643 684 l 1
 391 684 l 1
EndSplineSet
EndChar

StartChar: uni021A
Encoding: 538 538 159
Width: 622
Flags: W
LayerCount: 2
Fore
SplineSet
342 684 m 1
 89 684 l 1
 96 730 l 1
 651 730 l 1
 643 684 l 1
 391 684 l 1
 282 0 l 1
 233 0 l 1
 342 684 l 1
129 -250 m 1
 78 -250 l 1
 222 -40 l 1
 281 -40 l 1
 129 -250 l 1
EndSplineSet
EndChar

StartChar: U
Encoding: 85 85 160
Width: 669
Flags: W
LayerCount: 2
Fore
SplineSet
104 61 m 0
 68 108 57 178 71 270 c 2
 144 730 l 1
 192 730 l 1
 120 274 l 2
 107 193 115 134 144 94 c 0
 173 56 223 36 295 36 c 0
 367 36 424 56 464 94 c 0
 506 134 532 193 545 274 c 2
 618 730 l 1
 667 730 l 1
 594 270 l 2
 579 178 546 108 494 61 c 0
 443 14 374 -10 288 -10 c 0
 202 -10 141 14 104 61 c 0
EndSplineSet
EndChar

StartChar: Uacute
Encoding: 218 218 161
Width: 695
Flags: W
LayerCount: 2
Fore
SplineSet
104 61 m 0
 68 108 57 178 71 270 c 2
 144 730 l 1
 192 730 l 1
 120 274 l 2
 107 193 115 134 144 94 c 0
 173 56 223 36 295 36 c 0
 367 36 424 56 464 94 c 0
 506 134 532 193 545 274 c 2
 618 730 l 1
 667 730 l 1
 594 270 l 2
 579 178 546 108 494 61 c 0
 443 14 374 -10 288 -10 c 0
 202 -10 141 14 104 61 c 0
412 770 m 1
 361 770 l 1
 505 980 l 1
 565 980 l 1
 412 770 l 1
EndSplineSet
EndChar

StartChar: Ubreve
Encoding: 364 364 162
Width: 695
Flags: W
LayerCount: 2
Fore
SplineSet
104 61 m 0
 68 108 57 178 71 270 c 2
 144 730 l 1
 192 730 l 1
 120 274 l 2
 107 193 115 134 144 94 c 0
 173 56 223 36 295 36 c 0
 367 36 424 56 464 94 c 0
 506 134 532 193 545 274 c 2
 618 730 l 1
 667 730 l 1
 594 270 l 2
 579 178 546 108 494 61 c 0
 443 14 374 -10 288 -10 c 0
 202 -10 141 14 104 61 c 0
298 836 m 0
 271 860 258 893 259 934 c 1
 309 934 l 1
 310 905 319 882 338 865 c 0
 357 848 382 840 414 840 c 0
 446 840 474 848 498 865 c 0
 522 882 539 905 549 934 c 1
 600 934 l 1
 588 893 564 860 529 836 c 0
 494 810 453 798 408 798 c 0
 363 798 326 810 298 836 c 0
EndSplineSet
EndChar

StartChar: Ucircumflex
Encoding: 219 219 163
Width: 695
Flags: W
LayerCount: 2
Fore
SplineSet
104 61 m 0
 68 108 57 178 71 270 c 2
 144 730 l 1
 192 730 l 1
 120 274 l 2
 107 193 115 134 144 94 c 0
 173 56 223 36 295 36 c 0
 367 36 424 56 464 94 c 0
 506 134 532 193 545 274 c 2
 618 730 l 1
 667 730 l 1
 594 270 l 2
 579 178 546 108 494 61 c 0
 443 14 374 -10 288 -10 c 0
 202 -10 141 14 104 61 c 0
398 980 m 1
 481 980 l 1
 591 770 l 1
 533 770 l 1
 436 954 l 1
 434 954 l 1
 280 770 l 1
 222 770 l 1
 398 980 l 1
EndSplineSet
EndChar

StartChar: uni0214
Encoding: 532 532 164
Width: 695
Flags: W
LayerCount: 2
Fore
SplineSet
104 61 m 0
 68 108 57 178 71 270 c 2
 144 730 l 1
 192 730 l 1
 120 274 l 2
 107 193 115 134 144 94 c 0
 173 56 223 36 295 36 c 0
 367 36 424 56 464 94 c 0
 506 134 532 193 545 274 c 2
 618 730 l 1
 667 730 l 1
 594 270 l 2
 579 178 546 108 494 61 c 0
 443 14 374 -10 288 -10 c 0
 202 -10 141 14 104 61 c 0
218 980 m 1
 279 980 l 1
 356 770 l 1
 306 770 l 1
 218 980 l 1
409 980 m 1
 470 980 l 1
 547 770 l 1
 497 770 l 1
 409 980 l 1
EndSplineSet
EndChar

StartChar: Udieresis
Encoding: 220 220 165
Width: 695
Flags: W
LayerCount: 2
Fore
SplineSet
104 61 m 0
 68 108 57 178 71 270 c 2
 144 730 l 1
 192 730 l 1
 120 274 l 2
 107 193 115 134 144 94 c 0
 173 56 223 36 295 36 c 0
 367 36 424 56 464 94 c 0
 506 134 532 193 545 274 c 2
 618 730 l 1
 667 730 l 1
 594 270 l 2
 579 178 546 108 494 61 c 0
 443 14 374 -10 288 -10 c 0
 202 -10 141 14 104 61 c 0
316 916 m 1
 396 916 l 1
 383 834 l 1
 303 834 l 1
 316 916 l 1
556 916 m 1
 635 916 l 1
 622 834 l 1
 543 834 l 1
 556 916 l 1
EndSplineSet
EndChar

StartChar: uni1EE4
Encoding: 7908 7908 166
Width: 695
Flags: W
LayerCount: 2
Fore
SplineSet
104 61 m 0
 68 108 57 178 71 270 c 2
 144 730 l 1
 192 730 l 1
 120 274 l 2
 107 193 115 134 144 94 c 0
 173 56 223 36 295 36 c 0
 367 36 424 56 464 94 c 0
 506 134 532 193 545 274 c 2
 618 730 l 1
 667 730 l 1
 594 270 l 2
 579 178 546 108 494 61 c 0
 443 14 374 -10 288 -10 c 0
 202 -10 141 14 104 61 c 0
255 -104 m 1
 335 -104 l 1
 322 -186 l 1
 242 -186 l 1
 255 -104 l 1
EndSplineSet
EndChar

StartChar: Ugrave
Encoding: 217 217 167
Width: 695
Flags: W
LayerCount: 2
Fore
SplineSet
104 61 m 0
 68 108 57 178 71 270 c 2
 144 730 l 1
 192 730 l 1
 120 274 l 2
 107 193 115 134 144 94 c 0
 173 56 223 36 295 36 c 0
 367 36 424 56 464 94 c 0
 506 134 532 193 545 274 c 2
 618 730 l 1
 667 730 l 1
 594 270 l 2
 579 178 546 108 494 61 c 0
 443 14 374 -10 288 -10 c 0
 202 -10 141 14 104 61 c 0
304 980 m 1
 365 980 l 1
 441 770 l 1
 391 770 l 1
 304 980 l 1
EndSplineSet
EndChar

StartChar: uni1EE6
Encoding: 7910 7910 168
Width: 695
Flags: W
LayerCount: 2
Fore
SplineSet
104 61 m 0
 68 108 57 178 71 270 c 2
 144 730 l 1
 192 730 l 1
 120 274 l 2
 107 193 115 134 144 94 c 0
 173 56 223 36 295 36 c 0
 367 36 424 56 464 94 c 0
 506 134 532 193 545 274 c 2
 618 730 l 1
 667 730 l 1
 594 270 l 2
 579 178 546 108 494 61 c 0
 443 14 374 -10 288 -10 c 0
 202 -10 141 14 104 61 c 0
538 847 m 0
 543 863 547 877 549 888 c 0
 552 907 547 919 536 926 c 0
 525 933 501 936 466 936 c 0
 429 936 389 931 346 920 c 1
 346 961 l 1
 393 972 439 978 482 978 c 0
 531 978 565 972 582 962 c 0
 600 950 607 931 602 902 c 0
 600 889 596 873 590 855 c 0
 584 837 578 821 571 808 c 1
 521 808 l 1
 526 818 532 831 538 847 c 0
EndSplineSet
EndChar

StartChar: Uhorn
Encoding: 431 431 169
Width: 735
Flags: W
LayerCount: 2
Fore
SplineSet
829 742 m 0
 823 706 810 678 790 658 c 0
 770 638 745 628 714 628 c 0
 694 628 674 632 653 641 c 1
 594 270 l 2
 579 178 546 108 494 61 c 0
 443 14 374 -10 288 -10 c 0
 203 -10 142 14 105 61 c 0
 68 108 57 178 71 270 c 2
 144 730 l 1
 192 730 l 1
 120 274 l 2
 107 193 115 134 144 94 c 0
 173 56 223 36 295 36 c 0
 367 36 424 56 464 94 c 0
 506 134 532 193 545 274 c 2
 618 730 l 1
 667 730 l 1
 660 687 l 1
 673 677 689 672 708 672 c 0
 748 672 772 697 780 746 c 0
 782 761 783 778 783 796 c 0
 783 816 781 831 778 843 c 1
 828 843 l 1
 834 809 834 775 829 742 c 0
EndSplineSet
EndChar

StartChar: uni1EE8
Encoding: 7912 7912 170
Width: 755
Flags: W
LayerCount: 2
Fore
SplineSet
829 742 m 0
 823 706 810 678 790 658 c 0
 770 638 745 628 714 628 c 0
 694 628 674 632 653 641 c 1
 594 270 l 2
 579 178 546 108 494 61 c 0
 443 14 374 -10 288 -10 c 0
 203 -10 142 14 105 61 c 0
 68 108 57 178 71 270 c 2
 144 730 l 1
 192 730 l 1
 120 274 l 2
 107 193 115 134 144 94 c 0
 173 56 223 36 295 36 c 0
 367 36 424 56 464 94 c 0
 506 134 532 193 545 274 c 2
 618 730 l 1
 667 730 l 1
 660 687 l 1
 673 677 689 672 708 672 c 0
 748 672 772 697 780 746 c 0
 782 761 783 778 783 796 c 0
 783 816 781 831 778 843 c 1
 828 843 l 1
 834 809 834 775 829 742 c 0
412 770 m 1
 361 770 l 1
 505 980 l 1
 565 980 l 1
 412 770 l 1
EndSplineSet
EndChar

StartChar: uni1EF0
Encoding: 7920 7920 171
Width: 755
Flags: W
LayerCount: 2
Fore
SplineSet
829 742 m 0
 823 706 810 678 790 658 c 0
 770 638 745 628 714 628 c 0
 694 628 674 632 653 641 c 1
 594 270 l 2
 579 178 546 108 494 61 c 0
 443 14 374 -10 288 -10 c 0
 203 -10 142 14 105 61 c 0
 68 108 57 178 71 270 c 2
 144 730 l 1
 192 730 l 1
 120 274 l 2
 107 193 115 134 144 94 c 0
 173 56 223 36 295 36 c 0
 367 36 424 56 464 94 c 0
 506 134 532 193 545 274 c 2
 618 730 l 1
 667 730 l 1
 660 687 l 1
 673 677 689 672 708 672 c 0
 748 672 772 697 780 746 c 0
 782 761 783 778 783 796 c 0
 783 816 781 831 778 843 c 1
 828 843 l 1
 834 809 834 775 829 742 c 0
255 -104 m 1
 335 -104 l 1
 322 -186 l 1
 242 -186 l 1
 255 -104 l 1
EndSplineSet
EndChar

StartChar: uni1EEA
Encoding: 7914 7914 172
Width: 755
Flags: W
LayerCount: 2
Fore
SplineSet
829 742 m 0
 823 706 810 678 790 658 c 0
 770 638 745 628 714 628 c 0
 694 628 674 632 653 641 c 1
 594 270 l 2
 579 178 546 108 494 61 c 0
 443 14 374 -10 288 -10 c 0
 203 -10 142 14 105 61 c 0
 68 108 57 178 71 270 c 2
 144 730 l 1
 192 730 l 1
 120 274 l 2
 107 193 115 134 144 94 c 0
 173 56 223 36 295 36 c 0
 367 36 424 56 464 94 c 0
 506 134 532 193 545 274 c 2
 618 730 l 1
 667 730 l 1
 660 687 l 1
 673 677 689 672 708 672 c 0
 748 672 772 697 780 746 c 0
 782 761 783 778 783 796 c 0
 783 816 781 831 778 843 c 1
 828 843 l 1
 834 809 834 775 829 742 c 0
304 980 m 1
 365 980 l 1
 441 770 l 1
 391 770 l 1
 304 980 l 1
EndSplineSet
EndChar

StartChar: uni1EEC
Encoding: 7916 7916 173
Width: 755
Flags: W
LayerCount: 2
Fore
SplineSet
829 742 m 0
 823 706 810 678 790 658 c 0
 770 638 745 628 714 628 c 0
 694 628 674 632 653 641 c 1
 594 270 l 2
 579 178 546 108 494 61 c 0
 443 14 374 -10 288 -10 c 0
 203 -10 142 14 105 61 c 0
 68 108 57 178 71 270 c 2
 144 730 l 1
 192 730 l 1
 120 274 l 2
 107 193 115 134 144 94 c 0
 173 56 223 36 295 36 c 0
 367 36 424 56 464 94 c 0
 506 134 532 193 545 274 c 2
 618 730 l 1
 667 730 l 1
 660 687 l 1
 673 677 689 672 708 672 c 0
 748 672 772 697 780 746 c 0
 782 761 783 778 783 796 c 0
 783 816 781 831 778 843 c 1
 828 843 l 1
 834 809 834 775 829 742 c 0
538 847 m 0
 543 863 547 877 549 888 c 0
 552 907 547 919 536 926 c 0
 525 933 501 936 466 936 c 0
 429 936 389 931 346 920 c 1
 346 961 l 1
 393 972 439 978 482 978 c 0
 531 978 565 972 582 962 c 0
 600 950 607 931 602 902 c 0
 600 889 596 873 590 855 c 0
 584 837 578 821 571 808 c 1
 521 808 l 1
 526 818 532 831 538 847 c 0
EndSplineSet
EndChar

StartChar: uni1EEE
Encoding: 7918 7918 174
Width: 755
Flags: W
LayerCount: 2
Fore
SplineSet
829 742 m 0
 823 706 810 678 790 658 c 0
 770 638 745 628 714 628 c 0
 694 628 674 632 653 641 c 1
 594 270 l 2
 579 178 546 108 494 61 c 0
 443 14 374 -10 288 -10 c 0
 203 -10 142 14 105 61 c 0
 68 108 57 178 71 270 c 2
 144 730 l 1
 192 730 l 1
 120 274 l 2
 107 193 115 134 144 94 c 0
 173 56 223 36 295 36 c 0
 367 36 424 56 464 94 c 0
 506 134 532 193 545 274 c 2
 618 730 l 1
 667 730 l 1
 660 687 l 1
 673 677 689 672 708 672 c 0
 748 672 772 697 780 746 c 0
 782 761 783 778 783 796 c 0
 783 816 781 831 778 843 c 1
 828 843 l 1
 834 809 834 775 829 742 c 0
462 820 m 0
 444 828 428 841 412 857 c 0
 387 883 364 896 343 896 c 0
 332 896 322 890 316 878 c 0
 308 866 303 845 298 816 c 1
 251 816 l 1
 264 901 297 944 350 944 c 0
 366 944 383 940 400 930 c 0
 417 922 434 909 449 893 c 0
 474 867 498 854 519 854 c 0
 530 854 540 860 546 872 c 0
 554 884 559 905 564 934 c 1
 611 934 l 1
 598 849 564 806 511 806 c 0
 495 806 478 810 462 820 c 0
EndSplineSet
EndChar

StartChar: Uhungarumlaut
Encoding: 368 368 175
Width: 695
Flags: W
LayerCount: 2
Fore
SplineSet
104 61 m 0
 68 108 57 178 71 270 c 2
 144 730 l 1
 192 730 l 1
 120 274 l 2
 107 193 115 134 144 94 c 0
 173 56 223 36 295 36 c 0
 367 36 424 56 464 94 c 0
 506 134 532 193 545 274 c 2
 618 730 l 1
 667 730 l 1
 594 270 l 2
 579 178 546 108 494 61 c 0
 443 14 374 -10 288 -10 c 0
 202 -10 141 14 104 61 c 0
322 770 m 1
 271 770 l 1
 415 980 l 1
 475 980 l 1
 322 770 l 1
517 770 m 1
 466 770 l 1
 610 980 l 1
 670 980 l 1
 517 770 l 1
EndSplineSet
EndChar

StartChar: uni0216
Encoding: 534 534 176
Width: 695
Flags: W
LayerCount: 2
Fore
SplineSet
104 61 m 0
 68 108 57 178 71 270 c 2
 144 730 l 1
 192 730 l 1
 120 274 l 2
 107 193 115 134 144 94 c 0
 173 56 223 36 295 36 c 0
 367 36 424 56 464 94 c 0
 506 134 532 193 545 274 c 2
 618 730 l 1
 667 730 l 1
 594 270 l 2
 579 178 546 108 494 61 c 0
 443 14 374 -10 288 -10 c 0
 202 -10 141 14 104 61 c 0
542 914 m 0
 569 890 582 857 581 816 c 1
 530 816 l 1
 529 845 520 868 501 885 c 0
 482 902 457 910 425 910 c 0
 393 910 365 902 342 885 c 0
 318 868 301 845 291 816 c 1
 240 816 l 1
 252 857 276 890 310 914 c 0
 346 940 386 952 432 952 c 0
 477 952 514 940 542 914 c 0
EndSplineSet
EndChar

StartChar: Umacron
Encoding: 362 362 177
Width: 695
Flags: W
LayerCount: 2
Fore
SplineSet
104 61 m 0
 68 108 57 178 71 270 c 2
 144 730 l 1
 192 730 l 1
 120 274 l 2
 107 193 115 134 144 94 c 0
 173 56 223 36 295 36 c 0
 367 36 424 56 464 94 c 0
 506 134 532 193 545 274 c 2
 618 730 l 1
 667 730 l 1
 594 270 l 2
 579 178 546 108 494 61 c 0
 443 14 374 -10 288 -10 c 0
 202 -10 141 14 104 61 c 0
254 896 m 1
 596 896 l 1
 589 854 l 1
 247 854 l 1
 254 896 l 1
EndSplineSet
EndChar

StartChar: Uogonek
Encoding: 370 370 178
Width: 669
Flags: W
LayerCount: 2
Fore
SplineSet
310 -54 m 0
 291 -73 280 -92 277 -111 c 0
 274 -131 280 -145 296 -154 c 0
 313 -163 334 -167 361 -167 c 0
 394 -167 424 -161 453 -148 c 1
 458 -188 l 1
 425 -202 389 -209 351 -209 c 0
 302 -209 269 -200 251 -182 c 0
 233 -165 226 -143 230 -117 c 0
 236 -80 261 -45 306 -10 c 1
 288 -10 l 2
 203 -10 142 14 105 61 c 0
 68 108 57 178 71 270 c 2
 144 730 l 1
 192 730 l 1
 120 274 l 2
 107 193 115 134 144 94 c 0
 173 56 223 36 295 36 c 0
 367 36 424 56 464 94 c 0
 506 134 532 193 545 274 c 2
 618 730 l 1
 667 730 l 1
 594 270 l 2
 583 199 560 141 526 96 c 0
 492 51 448 21 393 4 c 1
 358 -15 330 -34 310 -54 c 0
EndSplineSet
EndChar

StartChar: Uring
Encoding: 366 366 179
Width: 695
Flags: W
LayerCount: 2
Fore
SplineSet
104 61 m 0
 68 108 57 178 71 270 c 2
 144 730 l 1
 192 730 l 1
 120 274 l 2
 107 193 115 134 144 94 c 0
 173 56 223 36 295 36 c 0
 367 36 424 56 464 94 c 0
 506 134 532 193 545 274 c 2
 618 730 l 1
 667 730 l 1
 594 270 l 2
 579 178 546 108 494 61 c 0
 443 14 374 -10 288 -10 c 0
 202 -10 141 14 104 61 c 0
329 750 m 0
 311 762 298 778 289 798 c 0
 280 819 278 841 282 865 c 0
 286 889 295 911 310 932 c 0
 325 952 343 968 365 980 c 0
 387 992 410 998 433 998 c 0
 457 998 478 992 496 980 c 0
 514 968 527 952 536 932 c 0
 545 911 547 889 543 865 c 0
 539 841 530 819 515 798 c 0
 500 778 482 762 460 750 c 0
 438 738 415 732 391 732 c 0
 368 732 347 738 329 750 c 0
467 799 m 0
 488 817 500 839 504 865 c 0
 508 891 502 913 488 931 c 0
 472 949 452 958 427 958 c 0
 402 958 380 949 358 931 c 0
 338 913 325 891 321 865 c 0
 317 839 322 817 338 799 c 0
 352 781 372 772 397 772 c 0
 423 772 446 781 467 799 c 0
EndSplineSet
EndChar

StartChar: Utilde
Encoding: 360 360 180
Width: 695
Flags: W
LayerCount: 2
Fore
SplineSet
104 61 m 0
 68 108 57 178 71 270 c 2
 144 730 l 1
 192 730 l 1
 120 274 l 2
 107 193 115 134 144 94 c 0
 173 56 223 36 295 36 c 0
 367 36 424 56 464 94 c 0
 506 134 532 193 545 274 c 2
 618 730 l 1
 667 730 l 1
 594 270 l 2
 579 178 546 108 494 61 c 0
 443 14 374 -10 288 -10 c 0
 202 -10 141 14 104 61 c 0
462 820 m 0
 444 828 428 841 412 857 c 0
 387 883 364 896 343 896 c 0
 332 896 322 890 316 878 c 0
 308 866 303 845 298 816 c 1
 251 816 l 1
 264 901 297 944 350 944 c 0
 366 944 383 940 400 930 c 0
 417 922 434 909 449 893 c 0
 474 867 498 854 519 854 c 0
 530 854 540 860 546 872 c 0
 554 884 559 905 564 934 c 1
 611 934 l 1
 598 849 564 806 511 806 c 0
 495 806 478 810 462 820 c 0
EndSplineSet
EndChar

StartChar: V
Encoding: 86 86 181
Width: 641
Flags: W
LayerCount: 2
Fore
SplineSet
86 730 m 1
 139 730 l 1
 282 50 l 1
 284 50 l 1
 643 730 l 1
 697 730 l 1
 309 0 l 1
 242 0 l 1
 86 730 l 1
EndSplineSet
EndChar

StartChar: W
Encoding: 87 87 182
Width: 881
Flags: W
LayerCount: 2
Fore
SplineSet
504 679 m 1
 502 679 l 1
 226 0 l 1
 162 0 l 1
 97 730 l 1
 147 730 l 1
 201 51 l 1
 203 51 l 1
 479 730 l 1
 546 730 l 1
 606 51 l 1
 608 51 l 1
 877 730 l 1
 926 730 l 1
 630 0 l 1
 565 0 l 1
 504 679 l 1
EndSplineSet
EndChar

StartChar: Wacute
Encoding: 7810 7810 183
Width: 904
Flags: W
LayerCount: 2
Fore
SplineSet
504 679 m 1
 502 679 l 1
 226 0 l 1
 162 0 l 1
 97 730 l 1
 147 730 l 1
 201 51 l 1
 203 51 l 1
 479 730 l 1
 546 730 l 1
 606 51 l 1
 608 51 l 1
 877 730 l 1
 926 730 l 1
 630 0 l 1
 565 0 l 1
 504 679 l 1
516 770 m 1
 465 770 l 1
 609 980 l 1
 669 980 l 1
 516 770 l 1
EndSplineSet
EndChar

StartChar: Wcircumflex
Encoding: 372 372 184
Width: 904
Flags: W
LayerCount: 2
Fore
SplineSet
504 679 m 1
 502 679 l 1
 226 0 l 1
 162 0 l 1
 97 730 l 1
 147 730 l 1
 201 51 l 1
 203 51 l 1
 479 730 l 1
 546 730 l 1
 606 51 l 1
 608 51 l 1
 877 730 l 1
 926 730 l 1
 630 0 l 1
 565 0 l 1
 504 679 l 1
503 980 m 1
 586 980 l 1
 696 770 l 1
 638 770 l 1
 541 954 l 1
 539 954 l 1
 385 770 l 1
 327 770 l 1
 503 980 l 1
EndSplineSet
EndChar

StartChar: Wdieresis
Encoding: 7812 7812 185
Width: 904
Flags: W
LayerCount: 2
Fore
SplineSet
504 679 m 1
 502 679 l 1
 226 0 l 1
 162 0 l 1
 97 730 l 1
 147 730 l 1
 201 51 l 1
 203 51 l 1
 479 730 l 1
 546 730 l 1
 606 51 l 1
 608 51 l 1
 877 730 l 1
 926 730 l 1
 630 0 l 1
 565 0 l 1
 504 679 l 1
420 916 m 1
 500 916 l 1
 487 834 l 1
 407 834 l 1
 420 916 l 1
660 916 m 1
 739 916 l 1
 726 834 l 1
 647 834 l 1
 660 916 l 1
EndSplineSet
EndChar

StartChar: Wgrave
Encoding: 7808 7808 186
Width: 904
Flags: W
LayerCount: 2
Fore
SplineSet
504 679 m 1
 502 679 l 1
 226 0 l 1
 162 0 l 1
 97 730 l 1
 147 730 l 1
 201 51 l 1
 203 51 l 1
 479 730 l 1
 546 730 l 1
 606 51 l 1
 608 51 l 1
 877 730 l 1
 926 730 l 1
 630 0 l 1
 565 0 l 1
 504 679 l 1
408 980 m 1
 469 980 l 1
 545 770 l 1
 495 770 l 1
 408 980 l 1
EndSplineSet
EndChar

StartChar: X
Encoding: 88 88 187
Width: 666
Flags: W
LayerCount: 2
Fore
SplineSet
312 368 m 1
 127 730 l 1
 184 730 l 1
 351 402 l 1
 353 402 l 1
 623 730 l 1
 680 730 l 1
 381 368 l 1
 569 0 l 1
 513 0 l 1
 342 336 l 1
 340 336 l 1
 64 0 l 1
 7 0 l 1
 312 368 l 1
EndSplineSet
EndChar

StartChar: Y
Encoding: 89 89 188
Width: 618
Flags: W
LayerCount: 2
Fore
SplineSet
288 309 m 1
 80 730 l 1
 136 730 l 1
 320 357 l 1
 322 357 l 1
 624 730 l 1
 680 730 l 1
 338 309 l 1
 289 0 l 1
 239 0 l 1
 288 309 l 1
EndSplineSet
EndChar

StartChar: Yacute
Encoding: 221 221 189
Width: 633
Flags: W
LayerCount: 2
Fore
SplineSet
288 309 m 1
 80 730 l 1
 136 730 l 1
 320 357 l 1
 322 357 l 1
 624 730 l 1
 680 730 l 1
 338 309 l 1
 289 0 l 1
 239 0 l 1
 288 309 l 1
381 770 m 1
 330 770 l 1
 474 980 l 1
 534 980 l 1
 381 770 l 1
EndSplineSet
EndChar

StartChar: Ycircumflex
Encoding: 374 374 190
Width: 633
Flags: W
LayerCount: 2
Fore
SplineSet
288 309 m 1
 80 730 l 1
 136 730 l 1
 320 357 l 1
 322 357 l 1
 624 730 l 1
 680 730 l 1
 338 309 l 1
 289 0 l 1
 239 0 l 1
 288 309 l 1
367 980 m 1
 450 980 l 1
 560 770 l 1
 502 770 l 1
 405 954 l 1
 403 954 l 1
 249 770 l 1
 191 770 l 1
 367 980 l 1
EndSplineSet
EndChar

StartChar: Ydieresis
Encoding: 376 376 191
Width: 633
Flags: W
LayerCount: 2
Fore
SplineSet
288 309 m 1
 80 730 l 1
 136 730 l 1
 320 357 l 1
 322 357 l 1
 624 730 l 1
 680 730 l 1
 338 309 l 1
 289 0 l 1
 239 0 l 1
 288 309 l 1
285 916 m 1
 365 916 l 1
 352 834 l 1
 272 834 l 1
 285 916 l 1
525 916 m 1
 604 916 l 1
 591 834 l 1
 512 834 l 1
 525 916 l 1
EndSplineSet
EndChar

StartChar: uni1EF4
Encoding: 7924 7924 192
Width: 633
Flags: W
LayerCount: 2
Fore
SplineSet
288 309 m 1
 80 730 l 1
 136 730 l 1
 320 357 l 1
 322 357 l 1
 624 730 l 1
 680 730 l 1
 338 309 l 1
 289 0 l 1
 239 0 l 1
 288 309 l 1
224 -104 m 1
 304 -104 l 1
 291 -186 l 1
 211 -186 l 1
 224 -104 l 1
EndSplineSet
EndChar

StartChar: Ygrave
Encoding: 7922 7922 193
Width: 633
Flags: W
LayerCount: 2
Fore
SplineSet
288 309 m 1
 80 730 l 1
 136 730 l 1
 320 357 l 1
 322 357 l 1
 624 730 l 1
 680 730 l 1
 338 309 l 1
 289 0 l 1
 239 0 l 1
 288 309 l 1
273 980 m 1
 334 980 l 1
 410 770 l 1
 360 770 l 1
 273 980 l 1
EndSplineSet
EndChar

StartChar: uni1EF6
Encoding: 7926 7926 194
Width: 633
Flags: W
LayerCount: 2
Fore
SplineSet
288 309 m 1
 80 730 l 1
 136 730 l 1
 320 357 l 1
 322 357 l 1
 624 730 l 1
 680 730 l 1
 338 309 l 1
 289 0 l 1
 239 0 l 1
 288 309 l 1
506 847 m 0
 512 863 516 877 518 888 c 0
 521 907 516 919 505 926 c 0
 494 933 470 936 435 936 c 0
 398 936 358 931 315 920 c 1
 315 961 l 1
 362 972 408 978 451 978 c 0
 500 978 534 972 552 962 c 0
 569 950 576 931 571 902 c 0
 569 889 565 873 559 855 c 0
 553 837 547 821 540 808 c 1
 490 808 l 1
 495 818 501 831 506 847 c 0
EndSplineSet
EndChar

StartChar: uni0232
Encoding: 562 562 195
Width: 633
Flags: W
LayerCount: 2
Fore
SplineSet
288 309 m 1
 80 730 l 1
 136 730 l 1
 320 357 l 1
 322 357 l 1
 624 730 l 1
 680 730 l 1
 338 309 l 1
 289 0 l 1
 239 0 l 1
 288 309 l 1
223 896 m 1
 565 896 l 1
 558 854 l 1
 216 854 l 1
 223 896 l 1
EndSplineSet
EndChar

StartChar: uni1EF8
Encoding: 7928 7928 196
Width: 633
Flags: W
LayerCount: 2
Fore
SplineSet
288 309 m 1
 80 730 l 1
 136 730 l 1
 320 357 l 1
 322 357 l 1
 624 730 l 1
 680 730 l 1
 338 309 l 1
 289 0 l 1
 239 0 l 1
 288 309 l 1
430 820 m 0
 414 828 397 841 381 857 c 0
 356 883 333 896 312 896 c 0
 301 896 292 890 284 878 c 0
 278 866 272 845 267 816 c 1
 220 816 l 1
 233 901 266 944 319 944 c 0
 335 944 352 940 369 930 c 0
 386 922 403 909 418 893 c 0
 443 867 467 854 488 854 c 0
 499 854 508 860 516 872 c 0
 522 884 528 905 533 934 c 1
 580 934 l 1
 567 849 533 806 480 806 c 0
 464 806 448 810 430 820 c 0
EndSplineSet
EndChar

StartChar: Z
Encoding: 90 90 197
Width: 611
Flags: W
LayerCount: 2
Fore
SplineSet
28 46 m 1
 548 682 l 1
 548 684 l 1
 129 684 l 1
 136 730 l 1
 616 730 l 1
 609 684 l 1
 89 48 l 1
 89 46 l 1
 508 46 l 1
 501 0 l 1
 21 0 l 1
 28 46 l 1
EndSplineSet
EndChar

StartChar: Zacute
Encoding: 377 377 198
Width: 634
Flags: W
LayerCount: 2
Fore
SplineSet
28 46 m 1
 548 682 l 1
 548 684 l 1
 129 684 l 1
 136 730 l 1
 616 730 l 1
 609 684 l 1
 89 48 l 1
 89 46 l 1
 508 46 l 1
 501 0 l 1
 21 0 l 1
 28 46 l 1
381 770 m 1
 330 770 l 1
 474 980 l 1
 534 980 l 1
 381 770 l 1
EndSplineSet
EndChar

StartChar: Zcaron
Encoding: 381 381 199
Width: 634
Flags: W
LayerCount: 2
Fore
SplineSet
28 46 m 1
 548 682 l 1
 548 684 l 1
 129 684 l 1
 136 730 l 1
 616 730 l 1
 609 684 l 1
 89 48 l 1
 89 46 l 1
 508 46 l 1
 501 0 l 1
 21 0 l 1
 28 46 l 1
225 980 m 1
 283 980 l 1
 379 796 l 1
 381 796 l 1
 536 980 l 1
 594 980 l 1
 417 770 l 1
 335 770 l 1
 225 980 l 1
EndSplineSet
EndChar

StartChar: Zdotaccent
Encoding: 379 379 200
Width: 634
Flags: W
LayerCount: 2
Fore
SplineSet
28 46 m 1
 548 682 l 1
 548 684 l 1
 129 684 l 1
 136 730 l 1
 616 730 l 1
 609 684 l 1
 89 48 l 1
 89 46 l 1
 508 46 l 1
 501 0 l 1
 21 0 l 1
 28 46 l 1
386 916 m 1
 466 916 l 1
 453 834 l 1
 373 834 l 1
 386 916 l 1
EndSplineSet
EndChar

StartChar: a
Encoding: 97 97 201
Width: 491
Flags: W
LayerCount: 2
Fore
SplineSet
416 484 m 0
 439 453 444 401 432 328 c 2
 380 0 l 1
 335 0 l 1
 349 85 l 1
 347 85 l 1
 326 56 296 33 260 16 c 0
 222 -1 184 -10 145 -10 c 0
 96 -10 58 4 34 32 c 0
 8 59 0 96 7 142 c 0
 16 202 49 248 106 280 c 0
 163 313 238 329 333 329 c 2
 386 329 l 1
 386 330 l 1
 392 369 393 400 388 423 c 0
 383 446 372 462 354 472 c 0
 337 482 311 487 277 487 c 0
 212 487 148 472 87 441 c 1
 79 480 l 1
 144 513 213 530 286 530 c 0
 351 530 394 515 416 484 c 0
254 56 m 0
 284 71 309 92 329 119 c 0
 349 146 362 175 367 208 c 2
 380 288 l 1
 327 288 l 2
 246 288 182 276 135 251 c 0
 88 226 60 191 53 145 c 0
 48 111 55 84 74 63 c 0
 94 42 123 32 160 32 c 0
 193 32 224 40 254 56 c 0
EndSplineSet
EndChar

StartChar: aacute
Encoding: 225 225 202
Width: 523
Flags: W
LayerCount: 2
Fore
SplineSet
416 484 m 0
 439 453 444 401 432 328 c 2
 380 0 l 1
 335 0 l 1
 349 85 l 1
 347 85 l 1
 326 56 296 33 260 16 c 0
 222 -1 184 -10 145 -10 c 0
 96 -10 58 4 34 32 c 0
 8 59 0 96 7 142 c 0
 16 202 49 248 106 280 c 0
 163 313 238 329 333 329 c 2
 386 329 l 1
 386 330 l 1
 392 369 393 400 388 423 c 0
 383 446 372 462 354 472 c 0
 337 482 311 487 277 487 c 0
 212 487 148 472 87 441 c 1
 79 480 l 1
 144 513 213 530 286 530 c 0
 351 530 394 515 416 484 c 0
254 56 m 0
 284 71 309 92 329 119 c 0
 349 146 362 175 367 208 c 2
 380 288 l 1
 327 288 l 2
 246 288 182 276 135 251 c 0
 88 226 60 191 53 145 c 0
 48 111 55 84 74 63 c 0
 94 42 123 32 160 32 c 0
 193 32 224 40 254 56 c 0
293 560 m 1
 242 560 l 1
 386 770 l 1
 446 770 l 1
 293 560 l 1
EndSplineSet
EndChar

StartChar: abreve
Encoding: 259 259 203
Width: 523
Flags: W
LayerCount: 2
Fore
SplineSet
416 484 m 0
 439 453 444 401 432 328 c 2
 380 0 l 1
 335 0 l 1
 349 85 l 1
 347 85 l 1
 326 56 296 33 260 16 c 0
 222 -1 184 -10 145 -10 c 0
 96 -10 58 4 34 32 c 0
 8 59 0 96 7 142 c 0
 16 202 49 248 106 280 c 0
 163 313 238 329 333 329 c 2
 386 329 l 1
 386 330 l 1
 392 369 393 400 388 423 c 0
 383 446 372 462 354 472 c 0
 337 482 311 487 277 487 c 0
 212 487 148 472 87 441 c 1
 79 480 l 1
 144 513 213 530 286 530 c 0
 351 530 394 515 416 484 c 0
254 56 m 0
 284 71 309 92 329 119 c 0
 349 146 362 175 367 208 c 2
 380 288 l 1
 327 288 l 2
 246 288 182 276 135 251 c 0
 88 226 60 191 53 145 c 0
 48 111 55 84 74 63 c 0
 94 42 123 32 160 32 c 0
 193 32 224 40 254 56 c 0
180 626 m 0
 153 650 140 683 141 724 c 1
 191 724 l 1
 192 695 201 672 220 655 c 0
 239 638 264 630 296 630 c 0
 328 630 356 638 380 655 c 0
 404 672 421 695 431 724 c 1
 482 724 l 1
 470 683 446 650 411 626 c 0
 376 600 335 588 290 588 c 0
 245 588 208 600 180 626 c 0
EndSplineSet
EndChar

StartChar: uni1EAF
Encoding: 7855 7855 204
Width: 523
Flags: W
LayerCount: 2
Fore
SplineSet
416 484 m 0
 439 453 444 401 432 328 c 2
 380 0 l 1
 335 0 l 1
 349 85 l 1
 347 85 l 1
 326 56 296 33 260 16 c 0
 222 -1 184 -10 145 -10 c 0
 96 -10 58 4 34 32 c 0
 8 59 0 96 7 142 c 0
 16 202 49 248 106 280 c 0
 163 313 238 329 333 329 c 2
 386 329 l 1
 386 330 l 1
 392 369 393 400 388 423 c 0
 383 446 372 462 354 472 c 0
 337 482 311 487 277 487 c 0
 212 487 148 472 87 441 c 1
 79 480 l 1
 144 513 213 530 286 530 c 0
 351 530 394 515 416 484 c 0
254 56 m 0
 284 71 309 92 329 119 c 0
 349 146 362 175 367 208 c 2
 380 288 l 1
 327 288 l 2
 246 288 182 276 135 251 c 0
 88 226 60 191 53 145 c 0
 48 111 55 84 74 63 c 0
 94 42 123 32 160 32 c 0
 193 32 224 40 254 56 c 0
180 626 m 0
 153 650 140 683 141 724 c 1
 191 724 l 1
 192 695 201 672 220 655 c 0
 239 638 264 630 296 630 c 0
 328 630 356 638 380 655 c 0
 404 672 421 695 431 724 c 1
 482 724 l 1
 470 683 446 650 411 626 c 0
 376 600 335 588 290 588 c 0
 245 588 208 600 180 626 c 0
317 710 m 1
 266 710 l 1
 410 920 l 1
 470 920 l 1
 317 710 l 1
EndSplineSet
EndChar

StartChar: uni1EB7
Encoding: 7863 7863 205
Width: 523
Flags: W
LayerCount: 2
Fore
SplineSet
416 484 m 0
 439 453 444 401 432 328 c 2
 380 0 l 1
 335 0 l 1
 349 85 l 1
 347 85 l 1
 326 56 296 33 260 16 c 0
 222 -1 184 -10 145 -10 c 0
 96 -10 58 4 34 32 c 0
 8 59 0 96 7 142 c 0
 16 202 49 248 106 280 c 0
 163 313 238 329 333 329 c 2
 386 329 l 1
 386 330 l 1
 392 369 393 400 388 423 c 0
 383 446 372 462 354 472 c 0
 337 482 311 487 277 487 c 0
 212 487 148 472 87 441 c 1
 79 480 l 1
 144 513 213 530 286 530 c 0
 351 530 394 515 416 484 c 0
254 56 m 0
 284 71 309 92 329 119 c 0
 349 146 362 175 367 208 c 2
 380 288 l 1
 327 288 l 2
 246 288 182 276 135 251 c 0
 88 226 60 191 53 145 c 0
 48 111 55 84 74 63 c 0
 94 42 123 32 160 32 c 0
 193 32 224 40 254 56 c 0
170 -104 m 1
 250 -104 l 1
 237 -186 l 1
 157 -186 l 1
 170 -104 l 1
180 626 m 0
 153 650 140 683 141 724 c 1
 191 724 l 1
 192 695 201 672 220 655 c 0
 239 638 264 630 296 630 c 0
 328 630 356 638 380 655 c 0
 404 672 421 695 431 724 c 1
 482 724 l 1
 470 683 446 650 411 626 c 0
 376 600 335 588 290 588 c 0
 245 588 208 600 180 626 c 0
EndSplineSet
EndChar

StartChar: uni1EB1
Encoding: 7857 7857 206
Width: 523
Flags: W
LayerCount: 2
Fore
SplineSet
416 484 m 0
 439 453 444 401 432 328 c 2
 380 0 l 1
 335 0 l 1
 349 85 l 1
 347 85 l 1
 326 56 296 33 260 16 c 0
 222 -1 184 -10 145 -10 c 0
 96 -10 58 4 34 32 c 0
 8 59 0 96 7 142 c 0
 16 202 49 248 106 280 c 0
 163 313 238 329 333 329 c 2
 386 329 l 1
 386 330 l 1
 392 369 393 400 388 423 c 0
 383 446 372 462 354 472 c 0
 337 482 311 487 277 487 c 0
 212 487 148 472 87 441 c 1
 79 480 l 1
 144 513 213 530 286 530 c 0
 351 530 394 515 416 484 c 0
254 56 m 0
 284 71 309 92 329 119 c 0
 349 146 362 175 367 208 c 2
 380 288 l 1
 327 288 l 2
 246 288 182 276 135 251 c 0
 88 226 60 191 53 145 c 0
 48 111 55 84 74 63 c 0
 94 42 123 32 160 32 c 0
 193 32 224 40 254 56 c 0
180 626 m 0
 153 650 140 683 141 724 c 1
 191 724 l 1
 192 695 201 672 220 655 c 0
 239 638 264 630 296 630 c 0
 328 630 356 638 380 655 c 0
 404 672 421 695 431 724 c 1
 482 724 l 1
 470 683 446 650 411 626 c 0
 376 600 335 588 290 588 c 0
 245 588 208 600 180 626 c 0
210 920 m 1
 271 920 l 1
 347 710 l 1
 297 710 l 1
 210 920 l 1
EndSplineSet
EndChar

StartChar: uni1EB3
Encoding: 7859 7859 207
Width: 490
Flags: W
LayerCount: 2
Fore
SplineSet
380 652 m 0
 402 668 418 688 429 715 c 1
 381 715 l 1
 386 725 392 738 398 754 c 0
 404 770 408 784 409 795 c 0
 412 814 408 826 397 833 c 0
 386 840 364 843 329 843 c 0
 293 843 254 838 213 827 c 1
 213 868 l 1
 259 879 303 885 344 885 c 0
 392 885 424 880 442 868 c 0
 458 858 465 838 460 809 c 0
 458 797 455 783 450 768 c 0
 445 752 440 737 434 724 c 1
 481 724 l 1
 470 683 447 650 412 626 c 0
 378 600 339 588 295 588 c 0
 251 588 216 600 189 626 c 0
 162 650 150 683 151 724 c 1
 200 724 l 1
 201 695 210 672 228 655 c 0
 246 638 270 630 301 630 c 0
 331 630 357 638 380 652 c 0
416 484 m 0
 438 453 443 401 431 328 c 2
 379 0 l 1
 334 0 l 1
 348 85 l 1
 346 85 l 1
 325 56 296 33 258 16 c 0
 222 -1 183 -10 144 -10 c 0
 95 -10 58 4 33 32 c 0
 8 59 0 96 7 142 c 0
 16 202 49 248 106 280 c 0
 162 313 237 329 332 329 c 2
 385 329 l 1
 385 330 l 1
 391 369 392 400 387 423 c 0
 382 446 371 462 354 472 c 0
 336 482 310 487 277 487 c 0
 212 487 149 472 87 441 c 1
 79 480 l 1
 144 513 213 530 285 530 c 0
 350 530 393 515 416 484 c 0
254 56 m 0
 283 71 308 92 328 119 c 0
 348 146 361 175 366 208 c 2
 379 288 l 1
 326 288 l 2
 246 288 182 276 135 251 c 0
 88 226 60 191 53 145 c 0
 48 111 55 84 74 63 c 0
 93 42 122 32 159 32 c 0
 192 32 224 40 254 56 c 0
EndSplineSet
EndChar

StartChar: uni1EB5
Encoding: 7861 7861 208
Width: 523
Flags: W
LayerCount: 2
Fore
SplineSet
416 484 m 0
 439 453 444 401 432 328 c 2
 380 0 l 1
 335 0 l 1
 349 85 l 1
 347 85 l 1
 326 56 296 33 260 16 c 0
 222 -1 184 -10 145 -10 c 0
 96 -10 58 4 34 32 c 0
 8 59 0 96 7 142 c 0
 16 202 49 248 106 280 c 0
 163 313 238 329 333 329 c 2
 386 329 l 1
 386 330 l 1
 392 369 393 400 388 423 c 0
 383 446 372 462 354 472 c 0
 337 482 311 487 277 487 c 0
 212 487 148 472 87 441 c 1
 79 480 l 1
 144 513 213 530 286 530 c 0
 351 530 394 515 416 484 c 0
254 56 m 0
 284 71 309 92 329 119 c 0
 349 146 362 175 367 208 c 2
 380 288 l 1
 327 288 l 2
 246 288 182 276 135 251 c 0
 88 226 60 191 53 145 c 0
 48 111 55 84 74 63 c 0
 94 42 123 32 160 32 c 0
 193 32 224 40 254 56 c 0
180 626 m 0
 153 650 140 683 141 724 c 1
 191 724 l 1
 192 695 201 672 220 655 c 0
 239 638 264 630 296 630 c 0
 328 630 356 638 380 655 c 0
 404 672 421 695 431 724 c 1
 482 724 l 1
 470 683 446 650 411 626 c 0
 376 600 335 588 290 588 c 0
 245 588 208 600 180 626 c 0
372 792 m 0
 356 802 339 814 323 830 c 0
 298 856 275 869 254 869 c 0
 243 869 234 863 226 851 c 0
 220 839 214 818 209 789 c 1
 162 789 l 1
 175 874 208 917 261 917 c 0
 277 917 294 912 311 904 c 0
 328 894 345 882 360 866 c 0
 385 840 409 827 430 827 c 0
 441 827 450 833 458 845 c 0
 464 857 470 878 475 907 c 1
 522 907 l 1
 509 822 475 779 422 779 c 0
 406 779 390 784 372 792 c 0
EndSplineSet
EndChar

StartChar: acircumflex
Encoding: 226 226 209
Width: 523
Flags: W
LayerCount: 2
Fore
SplineSet
416 484 m 0
 439 453 444 401 432 328 c 2
 380 0 l 1
 335 0 l 1
 349 85 l 1
 347 85 l 1
 326 56 296 33 260 16 c 0
 222 -1 184 -10 145 -10 c 0
 96 -10 58 4 34 32 c 0
 8 59 0 96 7 142 c 0
 16 202 49 248 106 280 c 0
 163 313 238 329 333 329 c 2
 386 329 l 1
 386 330 l 1
 392 369 393 400 388 423 c 0
 383 446 372 462 354 472 c 0
 337 482 311 487 277 487 c 0
 212 487 148 472 87 441 c 1
 79 480 l 1
 144 513 213 530 286 530 c 0
 351 530 394 515 416 484 c 0
254 56 m 0
 284 71 309 92 329 119 c 0
 349 146 362 175 367 208 c 2
 380 288 l 1
 327 288 l 2
 246 288 182 276 135 251 c 0
 88 226 60 191 53 145 c 0
 48 111 55 84 74 63 c 0
 94 42 123 32 160 32 c 0
 193 32 224 40 254 56 c 0
280 770 m 1
 363 770 l 1
 473 560 l 1
 415 560 l 1
 318 744 l 1
 316 744 l 1
 162 560 l 1
 104 560 l 1
 280 770 l 1
EndSplineSet
EndChar

StartChar: uni1EA5
Encoding: 7845 7845 210
Width: 523
Flags: W
LayerCount: 2
Fore
SplineSet
416 484 m 0
 439 453 444 401 432 328 c 2
 380 0 l 1
 335 0 l 1
 349 85 l 1
 347 85 l 1
 326 56 296 33 260 16 c 0
 222 -1 184 -10 145 -10 c 0
 96 -10 58 4 34 32 c 0
 8 59 0 96 7 142 c 0
 16 202 49 248 106 280 c 0
 163 313 238 329 333 329 c 2
 386 329 l 1
 386 330 l 1
 392 369 393 400 388 423 c 0
 383 446 372 462 354 472 c 0
 337 482 311 487 277 487 c 0
 212 487 148 472 87 441 c 1
 79 480 l 1
 144 513 213 530 286 530 c 0
 351 530 394 515 416 484 c 0
254 56 m 0
 284 71 309 92 329 119 c 0
 349 146 362 175 367 208 c 2
 380 288 l 1
 327 288 l 2
 246 288 182 276 135 251 c 0
 88 226 60 191 53 145 c 0
 48 111 55 84 74 63 c 0
 94 42 123 32 160 32 c 0
 193 32 224 40 254 56 c 0
280 770 m 1
 363 770 l 1
 473 560 l 1
 415 560 l 1
 318 744 l 1
 316 744 l 1
 162 560 l 1
 104 560 l 1
 280 770 l 1
493 740 m 1
 442 740 l 1
 586 950 l 1
 646 950 l 1
 493 740 l 1
EndSplineSet
EndChar

StartChar: uni1EAD
Encoding: 7853 7853 211
Width: 523
Flags: W
LayerCount: 2
Fore
SplineSet
416 484 m 0
 439 453 444 401 432 328 c 2
 380 0 l 1
 335 0 l 1
 349 85 l 1
 347 85 l 1
 326 56 296 33 260 16 c 0
 222 -1 184 -10 145 -10 c 0
 96 -10 58 4 34 32 c 0
 8 59 0 96 7 142 c 0
 16 202 49 248 106 280 c 0
 163 313 238 329 333 329 c 2
 386 329 l 1
 386 330 l 1
 392 369 393 400 388 423 c 0
 383 446 372 462 354 472 c 0
 337 482 311 487 277 487 c 0
 212 487 148 472 87 441 c 1
 79 480 l 1
 144 513 213 530 286 530 c 0
 351 530 394 515 416 484 c 0
254 56 m 0
 284 71 309 92 329 119 c 0
 349 146 362 175 367 208 c 2
 380 288 l 1
 327 288 l 2
 246 288 182 276 135 251 c 0
 88 226 60 191 53 145 c 0
 48 111 55 84 74 63 c 0
 94 42 123 32 160 32 c 0
 193 32 224 40 254 56 c 0
170 -104 m 1
 250 -104 l 1
 237 -186 l 1
 157 -186 l 1
 170 -104 l 1
280 770 m 1
 363 770 l 1
 473 560 l 1
 415 560 l 1
 318 744 l 1
 316 744 l 1
 162 560 l 1
 104 560 l 1
 280 770 l 1
EndSplineSet
EndChar

StartChar: uni1EA7
Encoding: 7847 7847 212
Width: 523
Flags: W
LayerCount: 2
Fore
SplineSet
416 484 m 0
 439 453 444 401 432 328 c 2
 380 0 l 1
 335 0 l 1
 349 85 l 1
 347 85 l 1
 326 56 296 33 260 16 c 0
 222 -1 184 -10 145 -10 c 0
 96 -10 58 4 34 32 c 0
 8 59 0 96 7 142 c 0
 16 202 49 248 106 280 c 0
 163 313 238 329 333 329 c 2
 386 329 l 1
 386 330 l 1
 392 369 393 400 388 423 c 0
 383 446 372 462 354 472 c 0
 337 482 311 487 277 487 c 0
 212 487 148 472 87 441 c 1
 79 480 l 1
 144 513 213 530 286 530 c 0
 351 530 394 515 416 484 c 0
254 56 m 0
 284 71 309 92 329 119 c 0
 349 146 362 175 367 208 c 2
 380 288 l 1
 327 288 l 2
 246 288 182 276 135 251 c 0
 88 226 60 191 53 145 c 0
 48 111 55 84 74 63 c 0
 94 42 123 32 160 32 c 0
 193 32 224 40 254 56 c 0
280 770 m 1
 363 770 l 1
 473 560 l 1
 415 560 l 1
 318 744 l 1
 316 744 l 1
 162 560 l 1
 104 560 l 1
 280 770 l 1
45 950 m 1
 106 950 l 1
 182 740 l 1
 132 740 l 1
 45 950 l 1
EndSplineSet
EndChar

StartChar: uni1EA9
Encoding: 7849 7849 213
Width: 523
Flags: W
LayerCount: 2
Fore
SplineSet
416 484 m 0
 439 453 444 401 432 328 c 2
 380 0 l 1
 335 0 l 1
 349 85 l 1
 347 85 l 1
 326 56 296 33 260 16 c 0
 222 -1 184 -10 145 -10 c 0
 96 -10 58 4 34 32 c 0
 8 59 0 96 7 142 c 0
 16 202 49 248 106 280 c 0
 163 313 238 329 333 329 c 2
 386 329 l 1
 386 330 l 1
 392 369 393 400 388 423 c 0
 383 446 372 462 354 472 c 0
 337 482 311 487 277 487 c 0
 212 487 148 472 87 441 c 1
 79 480 l 1
 144 513 213 530 286 530 c 0
 351 530 394 515 416 484 c 0
254 56 m 0
 284 71 309 92 329 119 c 0
 349 146 362 175 367 208 c 2
 380 288 l 1
 327 288 l 2
 246 288 182 276 135 251 c 0
 88 226 60 191 53 145 c 0
 48 111 55 84 74 63 c 0
 94 42 123 32 160 32 c 0
 193 32 224 40 254 56 c 0
280 770 m 1
 363 770 l 1
 473 560 l 1
 415 560 l 1
 318 744 l 1
 316 744 l 1
 162 560 l 1
 104 560 l 1
 280 770 l 1
494 767 m 0
 499 783 503 797 505 808 c 0
 508 827 503 839 492 846 c 0
 481 853 457 856 422 856 c 0
 385 856 345 851 302 840 c 1
 302 881 l 1
 349 892 395 898 438 898 c 0
 487 898 521 892 538 882 c 0
 556 870 563 851 558 822 c 0
 556 809 552 793 546 775 c 0
 540 757 534 741 527 728 c 1
 477 728 l 1
 482 738 488 751 494 767 c 0
EndSplineSet
EndChar

StartChar: uni1EAB
Encoding: 7851 7851 214
Width: 523
Flags: W
LayerCount: 2
Fore
SplineSet
416 484 m 0
 439 453 444 401 432 328 c 2
 380 0 l 1
 335 0 l 1
 349 85 l 1
 347 85 l 1
 326 56 296 33 260 16 c 0
 222 -1 184 -10 145 -10 c 0
 96 -10 58 4 34 32 c 0
 8 59 0 96 7 142 c 0
 16 202 49 248 106 280 c 0
 163 313 238 329 333 329 c 2
 386 329 l 1
 386 330 l 1
 392 369 393 400 388 423 c 0
 383 446 372 462 354 472 c 0
 337 482 311 487 277 487 c 0
 212 487 148 472 87 441 c 1
 79 480 l 1
 144 513 213 530 286 530 c 0
 351 530 394 515 416 484 c 0
254 56 m 0
 284 71 309 92 329 119 c 0
 349 146 362 175 367 208 c 2
 380 288 l 1
 327 288 l 2
 246 288 182 276 135 251 c 0
 88 226 60 191 53 145 c 0
 48 111 55 84 74 63 c 0
 94 42 123 32 160 32 c 0
 193 32 224 40 254 56 c 0
280 770 m 1
 363 770 l 1
 473 560 l 1
 415 560 l 1
 318 744 l 1
 316 744 l 1
 162 560 l 1
 104 560 l 1
 280 770 l 1
372 792 m 0
 356 802 339 814 323 830 c 0
 298 856 275 869 254 869 c 0
 243 869 234 863 226 851 c 0
 220 839 214 818 209 789 c 1
 162 789 l 1
 175 874 208 917 261 917 c 0
 277 917 294 912 311 904 c 0
 328 894 345 882 360 866 c 0
 385 840 409 827 430 827 c 0
 441 827 450 833 458 845 c 0
 464 857 470 878 475 907 c 1
 522 907 l 1
 509 822 475 779 422 779 c 0
 406 779 390 784 372 792 c 0
EndSplineSet
EndChar

StartChar: uni0201
Encoding: 513 513 215
Width: 523
Flags: W
LayerCount: 2
Fore
SplineSet
416 484 m 0
 439 453 444 401 432 328 c 2
 380 0 l 1
 335 0 l 1
 349 85 l 1
 347 85 l 1
 326 56 296 33 260 16 c 0
 222 -1 184 -10 145 -10 c 0
 96 -10 58 4 34 32 c 0
 8 59 0 96 7 142 c 0
 16 202 49 248 106 280 c 0
 163 313 238 329 333 329 c 2
 386 329 l 1
 386 330 l 1
 392 369 393 400 388 423 c 0
 383 446 372 462 354 472 c 0
 337 482 311 487 277 487 c 0
 212 487 148 472 87 441 c 1
 79 480 l 1
 144 513 213 530 286 530 c 0
 351 530 394 515 416 484 c 0
254 56 m 0
 284 71 309 92 329 119 c 0
 349 146 362 175 367 208 c 2
 380 288 l 1
 327 288 l 2
 246 288 182 276 135 251 c 0
 88 226 60 191 53 145 c 0
 48 111 55 84 74 63 c 0
 94 42 123 32 160 32 c 0
 193 32 224 40 254 56 c 0
100 770 m 1
 161 770 l 1
 238 560 l 1
 188 560 l 1
 100 770 l 1
291 770 m 1
 352 770 l 1
 429 560 l 1
 379 560 l 1
 291 770 l 1
EndSplineSet
EndChar

StartChar: adieresis
Encoding: 228 228 216
Width: 523
Flags: W
LayerCount: 2
Fore
SplineSet
416 484 m 0
 439 453 444 401 432 328 c 2
 380 0 l 1
 335 0 l 1
 349 85 l 1
 347 85 l 1
 326 56 296 33 260 16 c 0
 222 -1 184 -10 145 -10 c 0
 96 -10 58 4 34 32 c 0
 8 59 0 96 7 142 c 0
 16 202 49 248 106 280 c 0
 163 313 238 329 333 329 c 2
 386 329 l 1
 386 330 l 1
 392 369 393 400 388 423 c 0
 383 446 372 462 354 472 c 0
 337 482 311 487 277 487 c 0
 212 487 148 472 87 441 c 1
 79 480 l 1
 144 513 213 530 286 530 c 0
 351 530 394 515 416 484 c 0
254 56 m 0
 284 71 309 92 329 119 c 0
 349 146 362 175 367 208 c 2
 380 288 l 1
 327 288 l 2
 246 288 182 276 135 251 c 0
 88 226 60 191 53 145 c 0
 48 111 55 84 74 63 c 0
 94 42 123 32 160 32 c 0
 193 32 224 40 254 56 c 0
198 706 m 1
 278 706 l 1
 265 624 l 1
 185 624 l 1
 198 706 l 1
438 706 m 1
 517 706 l 1
 504 624 l 1
 425 624 l 1
 438 706 l 1
EndSplineSet
EndChar

StartChar: uni1EA1
Encoding: 7841 7841 217
Width: 523
Flags: W
LayerCount: 2
Fore
SplineSet
416 484 m 0
 439 453 444 401 432 328 c 2
 380 0 l 1
 335 0 l 1
 349 85 l 1
 347 85 l 1
 326 56 296 33 260 16 c 0
 222 -1 184 -10 145 -10 c 0
 96 -10 58 4 34 32 c 0
 8 59 0 96 7 142 c 0
 16 202 49 248 106 280 c 0
 163 313 238 329 333 329 c 2
 386 329 l 1
 386 330 l 1
 392 369 393 400 388 423 c 0
 383 446 372 462 354 472 c 0
 337 482 311 487 277 487 c 0
 212 487 148 472 87 441 c 1
 79 480 l 1
 144 513 213 530 286 530 c 0
 351 530 394 515 416 484 c 0
254 56 m 0
 284 71 309 92 329 119 c 0
 349 146 362 175 367 208 c 2
 380 288 l 1
 327 288 l 2
 246 288 182 276 135 251 c 0
 88 226 60 191 53 145 c 0
 48 111 55 84 74 63 c 0
 94 42 123 32 160 32 c 0
 193 32 224 40 254 56 c 0
170 -104 m 1
 250 -104 l 1
 237 -186 l 1
 157 -186 l 1
 170 -104 l 1
EndSplineSet
EndChar

StartChar: agrave
Encoding: 224 224 218
Width: 523
Flags: W
LayerCount: 2
Fore
SplineSet
416 484 m 0
 439 453 444 401 432 328 c 2
 380 0 l 1
 335 0 l 1
 349 85 l 1
 347 85 l 1
 326 56 296 33 260 16 c 0
 222 -1 184 -10 145 -10 c 0
 96 -10 58 4 34 32 c 0
 8 59 0 96 7 142 c 0
 16 202 49 248 106 280 c 0
 163 313 238 329 333 329 c 2
 386 329 l 1
 386 330 l 1
 392 369 393 400 388 423 c 0
 383 446 372 462 354 472 c 0
 337 482 311 487 277 487 c 0
 212 487 148 472 87 441 c 1
 79 480 l 1
 144 513 213 530 286 530 c 0
 351 530 394 515 416 484 c 0
254 56 m 0
 284 71 309 92 329 119 c 0
 349 146 362 175 367 208 c 2
 380 288 l 1
 327 288 l 2
 246 288 182 276 135 251 c 0
 88 226 60 191 53 145 c 0
 48 111 55 84 74 63 c 0
 94 42 123 32 160 32 c 0
 193 32 224 40 254 56 c 0
186 770 m 1
 247 770 l 1
 323 560 l 1
 273 560 l 1
 186 770 l 1
EndSplineSet
EndChar

StartChar: uni1EA3
Encoding: 7843 7843 219
Width: 523
Flags: W
LayerCount: 2
Fore
SplineSet
416 484 m 0
 439 453 444 401 432 328 c 2
 380 0 l 1
 335 0 l 1
 349 85 l 1
 347 85 l 1
 326 56 296 33 260 16 c 0
 222 -1 184 -10 145 -10 c 0
 96 -10 58 4 34 32 c 0
 8 59 0 96 7 142 c 0
 16 202 49 248 106 280 c 0
 163 313 238 329 333 329 c 2
 386 329 l 1
 386 330 l 1
 392 369 393 400 388 423 c 0
 383 446 372 462 354 472 c 0
 337 482 311 487 277 487 c 0
 212 487 148 472 87 441 c 1
 79 480 l 1
 144 513 213 530 286 530 c 0
 351 530 394 515 416 484 c 0
254 56 m 0
 284 71 309 92 329 119 c 0
 349 146 362 175 367 208 c 2
 380 288 l 1
 327 288 l 2
 246 288 182 276 135 251 c 0
 88 226 60 191 53 145 c 0
 48 111 55 84 74 63 c 0
 94 42 123 32 160 32 c 0
 193 32 224 40 254 56 c 0
418 637 m 0
 424 653 428 667 430 678 c 0
 433 697 428 709 417 716 c 0
 406 723 382 726 347 726 c 0
 310 726 270 721 227 710 c 1
 227 751 l 1
 274 762 320 768 363 768 c 0
 412 768 446 762 464 752 c 0
 481 740 488 721 483 692 c 0
 481 679 477 663 471 645 c 0
 465 627 459 611 452 598 c 1
 402 598 l 1
 407 608 413 621 418 637 c 0
EndSplineSet
EndChar

StartChar: uni0203
Encoding: 515 515 220
Width: 523
Flags: W
LayerCount: 2
Fore
SplineSet
416 484 m 0
 439 453 444 401 432 328 c 2
 380 0 l 1
 335 0 l 1
 349 85 l 1
 347 85 l 1
 326 56 296 33 260 16 c 0
 222 -1 184 -10 145 -10 c 0
 96 -10 58 4 34 32 c 0
 8 59 0 96 7 142 c 0
 16 202 49 248 106 280 c 0
 163 313 238 329 333 329 c 2
 386 329 l 1
 386 330 l 1
 392 369 393 400 388 423 c 0
 383 446 372 462 354 472 c 0
 337 482 311 487 277 487 c 0
 212 487 148 472 87 441 c 1
 79 480 l 1
 144 513 213 530 286 530 c 0
 351 530 394 515 416 484 c 0
254 56 m 0
 284 71 309 92 329 119 c 0
 349 146 362 175 367 208 c 2
 380 288 l 1
 327 288 l 2
 246 288 182 276 135 251 c 0
 88 226 60 191 53 145 c 0
 48 111 55 84 74 63 c 0
 94 42 123 32 160 32 c 0
 193 32 224 40 254 56 c 0
424 704 m 0
 451 680 464 647 463 606 c 1
 412 606 l 1
 411 635 402 658 383 675 c 0
 364 692 339 700 307 700 c 0
 275 700 247 692 224 675 c 0
 200 658 183 635 173 606 c 1
 122 606 l 1
 134 647 158 680 192 704 c 0
 228 730 268 742 314 742 c 0
 359 742 396 730 424 704 c 0
EndSplineSet
EndChar

StartChar: amacron
Encoding: 257 257 221
Width: 523
Flags: W
LayerCount: 2
Fore
SplineSet
416 484 m 0
 439 453 444 401 432 328 c 2
 380 0 l 1
 335 0 l 1
 349 85 l 1
 347 85 l 1
 326 56 296 33 260 16 c 0
 222 -1 184 -10 145 -10 c 0
 96 -10 58 4 34 32 c 0
 8 59 0 96 7 142 c 0
 16 202 49 248 106 280 c 0
 163 313 238 329 333 329 c 2
 386 329 l 1
 386 330 l 1
 392 369 393 400 388 423 c 0
 383 446 372 462 354 472 c 0
 337 482 311 487 277 487 c 0
 212 487 148 472 87 441 c 1
 79 480 l 1
 144 513 213 530 286 530 c 0
 351 530 394 515 416 484 c 0
254 56 m 0
 284 71 309 92 329 119 c 0
 349 146 362 175 367 208 c 2
 380 288 l 1
 327 288 l 2
 246 288 182 276 135 251 c 0
 88 226 60 191 53 145 c 0
 48 111 55 84 74 63 c 0
 94 42 123 32 160 32 c 0
 193 32 224 40 254 56 c 0
136 686 m 1
 478 686 l 1
 471 644 l 1
 129 644 l 1
 136 686 l 1
EndSplineSet
EndChar

StartChar: aogonek
Encoding: 261 261 222
Width: 494
Flags: W
LayerCount: 2
Fore
SplineSet
431 -198 m 1
 398 -212 364 -219 328 -219 c 0
 281 -219 249 -210 232 -192 c 0
 214 -175 207 -153 211 -127 c 0
 215 -102 228 -78 250 -54 c 0
 272 -29 301 -6 337 15 c 1
 348 85 l 1
 346 85 l 1
 325 56 296 33 258 16 c 0
 222 -1 184 -10 145 -10 c 0
 96 -10 58 4 34 32 c 0
 8 59 0 96 7 142 c 0
 16 202 49 248 106 280 c 0
 163 313 238 329 333 329 c 2
 386 329 l 1
 386 330 l 1
 392 369 392 400 388 423 c 0
 382 446 371 462 354 472 c 0
 336 482 310 487 277 487 c 0
 212 487 148 472 87 441 c 1
 79 480 l 1
 144 513 213 530 286 530 c 0
 351 530 394 515 416 484 c 0
 438 453 443 401 432 328 c 2
 380 0 l 1
 343 -19 314 -40 293 -60 c 0
 272 -82 260 -102 257 -121 c 0
 254 -141 260 -155 276 -164 c 0
 291 -173 312 -177 338 -177 c 0
 369 -177 399 -171 427 -158 c 1
 431 -198 l 1
254 56 m 0
 284 71 309 92 329 119 c 0
 349 146 362 175 367 208 c 2
 379 288 l 1
 326 288 l 2
 246 288 182 276 135 251 c 0
 88 226 60 191 53 145 c 0
 48 111 55 84 74 63 c 0
 94 42 123 32 160 32 c 0
 193 32 224 40 254 56 c 0
EndSplineSet
EndChar

StartChar: aring
Encoding: 229 229 223
Width: 490
Flags: W
LayerCount: 2
Fore
SplineSet
422 473 m 0
 439 442 442 393 431 328 c 2
 379 0 l 1
 334 0 l 1
 348 85 l 1
 346 85 l 1
 325 56 296 33 258 16 c 0
 222 -1 183 -10 144 -10 c 0
 95 -10 58 4 33 32 c 0
 8 59 0 96 7 142 c 0
 16 202 49 248 106 280 c 0
 163 313 238 329 332 329 c 2
 385 329 l 1
 386 330 l 1
 392 369 392 400 388 423 c 0
 382 446 371 462 354 472 c 0
 336 482 310 487 277 487 c 0
 212 487 148 472 87 441 c 1
 79 480 l 1
 132 507 188 523 246 528 c 1
 222 537 204 553 192 576 c 0
 179 599 175 626 180 655 c 0
 184 679 193 701 208 722 c 0
 222 742 240 758 260 770 c 0
 282 782 304 788 327 788 c 0
 350 788 371 782 388 770 c 0
 405 758 418 742 426 722 c 0
 434 701 436 679 432 655 c 0
 427 626 415 599 395 576 c 0
 375 553 351 537 324 528 c 1
 373 523 405 504 422 473 c 0
233 589 m 0
 248 571 267 562 291 562 c 0
 316 562 338 571 358 589 c 0
 379 607 391 629 395 655 c 0
 399 681 394 703 379 721 c 0
 364 739 345 748 320 748 c 0
 296 748 274 739 254 721 c 0
 233 703 221 681 217 655 c 0
 213 629 218 607 233 589 c 0
254 56 m 0
 284 71 309 92 329 119 c 0
 349 146 361 175 366 208 c 2
 379 288 l 1
 326 288 l 2
 246 288 182 276 135 251 c 0
 88 226 60 191 53 145 c 0
 48 111 55 84 74 63 c 0
 93 42 122 32 159 32 c 0
 192 32 224 40 254 56 c 0
EndSplineSet
EndChar

StartChar: aringacute
Encoding: 507 507 224
Width: 490
Flags: W
LayerCount: 2
Fore
SplineSet
422 473 m 0
 439 442 442 393 431 328 c 2
 379 0 l 1
 334 0 l 1
 348 85 l 1
 346 85 l 1
 325 56 296 33 258 16 c 0
 222 -1 183 -10 144 -10 c 0
 95 -10 58 4 33 32 c 0
 8 59 0 96 7 142 c 0
 16 202 49 248 106 280 c 0
 163 313 238 329 332 329 c 2
 385 329 l 1
 386 330 l 1
 392 369 392 400 388 423 c 0
 382 446 371 462 354 472 c 0
 336 482 310 487 277 487 c 0
 212 487 148 472 87 441 c 1
 79 480 l 1
 132 507 188 523 246 528 c 1
 222 537 204 553 192 576 c 0
 179 599 175 626 180 655 c 0
 183 676 191 696 203 715 c 0
 215 734 230 749 248 762 c 1
 384 967 l 1
 442 967 l 1
 315 787 l 1
 318 788 322 788 327 788 c 0
 350 788 371 782 388 770 c 0
 405 758 418 742 426 722 c 0
 434 701 436 679 432 655 c 0
 427 626 415 599 395 576 c 0
 375 553 351 537 324 528 c 1
 373 523 405 504 422 473 c 0
233 589 m 0
 248 571 267 562 291 562 c 0
 316 562 338 571 358 589 c 0
 379 607 391 629 395 655 c 0
 399 681 394 703 379 721 c 0
 364 739 345 748 320 748 c 0
 296 748 274 739 254 721 c 0
 233 703 221 681 217 655 c 0
 213 629 218 607 233 589 c 0
254 56 m 0
 284 71 309 92 329 119 c 0
 349 146 361 175 366 208 c 2
 379 288 l 1
 326 288 l 2
 246 288 182 276 135 251 c 0
 88 226 60 191 53 145 c 0
 48 111 55 84 74 63 c 0
 93 42 122 32 159 32 c 0
 192 32 224 40 254 56 c 0
EndSplineSet
EndChar

StartChar: atilde
Encoding: 227 227 225
Width: 523
Flags: W
LayerCount: 2
Fore
SplineSet
416 484 m 0
 439 453 444 401 432 328 c 2
 380 0 l 1
 335 0 l 1
 349 85 l 1
 347 85 l 1
 326 56 296 33 260 16 c 0
 222 -1 184 -10 145 -10 c 0
 96 -10 58 4 34 32 c 0
 8 59 0 96 7 142 c 0
 16 202 49 248 106 280 c 0
 163 313 238 329 333 329 c 2
 386 329 l 1
 386 330 l 1
 392 369 393 400 388 423 c 0
 383 446 372 462 354 472 c 0
 337 482 311 487 277 487 c 0
 212 487 148 472 87 441 c 1
 79 480 l 1
 144 513 213 530 286 530 c 0
 351 530 394 515 416 484 c 0
254 56 m 0
 284 71 309 92 329 119 c 0
 349 146 362 175 367 208 c 2
 380 288 l 1
 327 288 l 2
 246 288 182 276 135 251 c 0
 88 226 60 191 53 145 c 0
 48 111 55 84 74 63 c 0
 94 42 123 32 160 32 c 0
 193 32 224 40 254 56 c 0
344 610 m 0
 326 618 310 631 294 647 c 0
 269 673 246 686 225 686 c 0
 214 686 204 680 198 668 c 0
 190 656 185 635 180 606 c 1
 133 606 l 1
 146 691 179 734 232 734 c 0
 248 734 265 730 282 720 c 0
 299 712 316 699 331 683 c 0
 356 657 380 644 401 644 c 0
 412 644 422 650 428 662 c 0
 436 674 441 695 446 724 c 1
 493 724 l 1
 480 639 446 596 393 596 c 0
 377 596 360 600 344 610 c 0
EndSplineSet
EndChar

StartChar: ae
Encoding: 230 230 226
Width: 845
Flags: W
LayerCount: 2
Fore
SplineSet
803 244 m 1
 418 244 l 1
 409 175 418 123 444 87 c 0
 472 51 515 33 575 33 c 0
 602 33 630 36 660 44 c 0
 688 50 715 60 739 73 c 1
 748 35 l 1
 721 20 692 9 660 2 c 0
 629 -6 598 -10 567 -10 c 0
 516 -10 474 1 442 22 c 0
 411 44 389 76 378 118 c 1
 354 78 322 47 283 24 c 0
 244 1 200 -10 152 -10 c 0
 100 -10 61 4 35 31 c 0
 9 58 0 95 7 142 c 0
 16 202 49 248 106 280 c 0
 163 313 238 329 333 329 c 2
 386 329 l 1
 386 330 l 1
 392 369 393 400 388 423 c 0
 383 446 372 462 354 472 c 0
 337 482 311 487 277 487 c 0
 213 487 150 472 87 441 c 1
 79 480 l 1
 146 513 215 530 286 530 c 0
 333 530 369 522 393 506 c 0
 417 489 431 463 435 426 c 1
 459 460 488 486 522 504 c 0
 555 521 593 530 635 530 c 0
 703 530 752 507 782 460 c 0
 812 413 820 347 807 260 c 1
 803 244 l 1
497 436 m 0
 462 402 438 352 424 285 c 1
 766 285 l 1
 774 352 766 402 742 436 c 0
 719 471 681 488 629 488 c 0
 576 488 532 471 497 436 c 0
380 288 m 1
 327 288 l 2
 246 288 182 276 135 251 c 0
 88 226 60 191 53 145 c 0
 48 111 55 84 74 63 c 0
 94 42 123 32 160 32 c 0
 193 32 224 40 254 56 c 0
 284 71 309 92 329 119 c 0
 349 146 362 175 367 208 c 2
 380 288 l 1
EndSplineSet
EndChar

StartChar: aeacute
Encoding: 509 509 227
Width: 894
Flags: W
LayerCount: 2
Fore
SplineSet
803 244 m 1
 418 244 l 1
 409 175 418 123 444 87 c 0
 472 51 515 33 575 33 c 0
 602 33 630 36 660 44 c 0
 688 50 715 60 739 73 c 1
 748 35 l 1
 721 20 692 9 660 2 c 0
 629 -6 598 -10 567 -10 c 0
 516 -10 474 1 442 22 c 0
 411 44 389 76 378 118 c 1
 354 78 322 47 283 24 c 0
 244 1 200 -10 152 -10 c 0
 100 -10 61 4 35 31 c 0
 9 58 0 95 7 142 c 0
 16 202 49 248 106 280 c 0
 163 313 238 329 333 329 c 2
 386 329 l 1
 386 330 l 1
 392 369 393 400 388 423 c 0
 383 446 372 462 354 472 c 0
 337 482 311 487 277 487 c 0
 213 487 150 472 87 441 c 1
 79 480 l 1
 146 513 215 530 286 530 c 0
 333 530 369 522 393 506 c 0
 417 489 431 463 435 426 c 1
 459 460 488 486 522 504 c 0
 555 521 593 530 635 530 c 0
 703 530 752 507 782 460 c 0
 812 413 820 347 807 260 c 1
 803 244 l 1
497 436 m 0
 462 402 438 352 424 285 c 1
 766 285 l 1
 774 352 766 402 742 436 c 0
 719 471 681 488 629 488 c 0
 576 488 532 471 497 436 c 0
380 288 m 1
 327 288 l 2
 246 288 182 276 135 251 c 0
 88 226 60 191 53 145 c 0
 48 111 55 84 74 63 c 0
 94 42 123 32 160 32 c 0
 193 32 224 40 254 56 c 0
 284 71 309 92 329 119 c 0
 349 146 362 175 367 208 c 2
 380 288 l 1
479 560 m 1
 428 560 l 1
 572 770 l 1
 632 770 l 1
 479 560 l 1
EndSplineSet
EndChar

StartChar: b
Encoding: 98 98 228
Width: 532
Flags: W
LayerCount: 2
Fore
SplineSet
467 458 m 0
 494 411 501 345 488 260 c 0
 475 175 447 109 404 62 c 0
 362 14 310 -10 248 -10 c 0
 210 -10 177 -1 148 16 c 0
 120 34 100 58 89 89 c 1
 87 89 l 1
 73 0 l 1
 29 0 l 1
 147 750 l 1
 194 750 l 1
 143 431 l 1
 145 431 l 1
 166 462 193 486 226 504 c 0
 259 521 295 530 333 530 c 0
 395 530 440 506 467 458 c 0
372 94 m 0
 407 134 430 189 441 260 c 0
 452 331 447 386 425 426 c 0
 403 467 367 487 317 487 c 0
 285 487 255 478 228 462 c 0
 200 444 176 421 158 390 c 0
 138 359 126 324 120 284 c 2
 112 236 l 2
 105 196 107 161 116 130 c 0
 125 99 141 76 164 58 c 0
 186 42 213 33 245 33 c 0
 295 33 337 53 372 94 c 0
EndSplineSet
EndChar

StartChar: c
Encoding: 99 99 229
Width: 486
Flags: W
LayerCount: 2
Fore
SplineSet
68 62 m 0
 32 110 20 176 33 260 c 0
 46 344 78 410 130 458 c 0
 180 506 244 530 320 530 c 0
 370 530 415 518 455 494 c 1
 432 455 l 1
 395 476 356 487 314 487 c 0
 252 487 200 467 158 427 c 0
 117 387 91 331 80 260 c 0
 69 189 77 133 106 93 c 0
 135 53 180 33 242 33 c 0
 285 33 328 44 371 65 c 1
 381 26 l 1
 334 2 285 -10 235 -10 c 0
 159 -10 103 14 68 62 c 0
EndSplineSet
EndChar

StartChar: cacute
Encoding: 263 263 230
Width: 517
Flags: W
LayerCount: 2
Fore
SplineSet
68 62 m 0
 32 110 20 176 33 260 c 0
 46 344 78 410 130 458 c 0
 180 506 244 530 320 530 c 0
 370 530 415 518 455 494 c 1
 432 455 l 1
 395 476 356 487 314 487 c 0
 252 487 200 467 158 427 c 0
 117 387 91 331 80 260 c 0
 69 189 77 133 106 93 c 0
 135 53 180 33 242 33 c 0
 285 33 328 44 371 65 c 1
 381 26 l 1
 334 2 285 -10 235 -10 c 0
 159 -10 103 14 68 62 c 0
301 560 m 1
 250 560 l 1
 394 770 l 1
 454 770 l 1
 301 560 l 1
EndSplineSet
EndChar

StartChar: ccaron
Encoding: 269 269 231
Width: 517
Flags: W
LayerCount: 2
Fore
SplineSet
68 62 m 0
 32 110 20 176 33 260 c 0
 46 344 78 410 130 458 c 0
 180 506 244 530 320 530 c 0
 370 530 415 518 455 494 c 1
 432 455 l 1
 395 476 356 487 314 487 c 0
 252 487 200 467 158 427 c 0
 117 387 91 331 80 260 c 0
 69 189 77 133 106 93 c 0
 135 53 180 33 242 33 c 0
 285 33 328 44 371 65 c 1
 381 26 l 1
 334 2 285 -10 235 -10 c 0
 159 -10 103 14 68 62 c 0
145 770 m 1
 203 770 l 1
 299 586 l 1
 301 586 l 1
 456 770 l 1
 514 770 l 1
 337 560 l 1
 255 560 l 1
 145 770 l 1
EndSplineSet
EndChar

StartChar: ccedilla
Encoding: 231 231 232
Width: 485
Flags: W
LayerCount: 2
Fore
SplineSet
380 26 m 1
 340 6 299 -6 258 -9 c 1
 299 -48 317 -88 311 -128 c 0
 307 -154 293 -176 270 -194 c 0
 247 -211 212 -220 165 -220 c 0
 128 -220 96 -213 68 -199 c 1
 84 -159 l 1
 109 -172 138 -178 169 -178 c 0
 195 -178 217 -174 235 -165 c 0
 253 -156 264 -142 267 -122 c 0
 270 -103 264 -84 252 -64 c 0
 238 -45 219 -26 192 -7 c 1
 130 2 85 30 58 77 c 0
 30 124 22 185 33 260 c 0
 46 344 78 410 130 458 c 0
 180 506 244 530 320 530 c 0
 370 530 415 518 454 494 c 1
 432 455 l 1
 395 476 356 487 314 487 c 0
 252 487 200 467 158 427 c 0
 117 387 91 331 80 260 c 0
 69 189 77 133 106 93 c 0
 135 53 180 33 242 33 c 0
 285 33 327 44 370 65 c 1
 380 26 l 1
EndSplineSet
EndChar

StartChar: ccircumflex
Encoding: 265 265 233
Width: 517
Flags: W
LayerCount: 2
Fore
SplineSet
68 62 m 0
 32 110 20 176 33 260 c 0
 46 344 78 410 130 458 c 0
 180 506 244 530 320 530 c 0
 370 530 415 518 455 494 c 1
 432 455 l 1
 395 476 356 487 314 487 c 0
 252 487 200 467 158 427 c 0
 117 387 91 331 80 260 c 0
 69 189 77 133 106 93 c 0
 135 53 180 33 242 33 c 0
 285 33 328 44 371 65 c 1
 381 26 l 1
 334 2 285 -10 235 -10 c 0
 159 -10 103 14 68 62 c 0
288 770 m 1
 371 770 l 1
 481 560 l 1
 423 560 l 1
 326 744 l 1
 324 744 l 1
 170 560 l 1
 112 560 l 1
 288 770 l 1
EndSplineSet
EndChar

StartChar: cdotaccent
Encoding: 267 267 234
Width: 517
Flags: W
LayerCount: 2
Fore
SplineSet
68 62 m 0
 32 110 20 176 33 260 c 0
 46 344 78 410 130 458 c 0
 180 506 244 530 320 530 c 0
 370 530 415 518 455 494 c 1
 432 455 l 1
 395 476 356 487 314 487 c 0
 252 487 200 467 158 427 c 0
 117 387 91 331 80 260 c 0
 69 189 77 133 106 93 c 0
 135 53 180 33 242 33 c 0
 285 33 328 44 371 65 c 1
 381 26 l 1
 334 2 285 -10 235 -10 c 0
 159 -10 103 14 68 62 c 0
306 706 m 1
 386 706 l 1
 373 624 l 1
 293 624 l 1
 306 706 l 1
EndSplineSet
EndChar

StartChar: d
Encoding: 100 100 235
Width: 532
Flags: W
LayerCount: 2
Fore
SplineSet
533 750 m 1
 414 0 l 1
 370 0 l 1
 384 89 l 1
 382 89 l 1
 361 58 333 34 300 16 c 0
 266 -1 230 -10 192 -10 c 0
 130 -10 85 14 58 62 c 0
 31 109 24 175 37 260 c 0
 50 345 78 411 120 458 c 0
 163 506 215 530 277 530 c 0
 315 530 348 521 376 504 c 0
 404 486 423 462 434 431 c 1
 436 431 l 1
 487 750 l 1
 533 750 l 1
298 58 m 0
 325 76 348 99 368 130 c 0
 386 161 399 196 405 236 c 2
 413 284 l 2
 420 324 418 359 409 390 c 0
 400 421 384 444 362 462 c 0
 339 478 312 487 280 487 c 0
 230 487 188 467 153 426 c 0
 118 386 95 331 84 260 c 0
 73 189 78 134 100 94 c 0
 122 53 158 33 208 33 c 0
 240 33 270 42 298 58 c 0
EndSplineSet
EndChar

StartChar: eth
Encoding: 240 240 236
Width: 539
Flags: W
LayerCount: 2
Fore
SplineSet
420 622 m 1
 451 568 472 508 485 440 c 0
 498 374 499 308 489 244 c 0
 476 165 446 102 398 58 c 0
 351 12 291 -10 219 -10 c 0
 148 -10 96 12 62 56 c 0
 29 100 18 161 30 238 c 0
 42 313 71 372 118 415 c 0
 165 458 223 480 292 480 c 0
 359 480 408 461 441 422 c 1
 443 423 l 1
 431 489 408 550 375 605 c 1
 136 511 l 1
 127 551 l 1
 353 640 l 1
 333 668 311 692 286 710 c 0
 261 730 236 742 209 749 c 1
 230 790 l 1
 262 781 292 766 321 742 c 0
 350 720 375 691 398 658 c 1
 572 726 l 1
 582 686 l 1
 420 622 l 1
370 88 m 0
 408 124 432 174 442 238 c 0
 452 301 444 350 417 384 c 0
 390 420 348 437 290 437 c 0
 233 437 185 420 148 385 c 0
 110 350 86 301 76 238 c 0
 66 174 74 124 100 88 c 0
 127 51 169 33 226 33 c 0
 283 33 331 51 370 88 c 0
EndSplineSet
EndChar

StartChar: dcaron
Encoding: 271 271 237
Width: 743
Flags: W
LayerCount: 2
Fore
SplineSet
533 750 m 1
 414 0 l 1
 370 0 l 1
 384 89 l 1
 382 89 l 1
 361 58 333 34 300 16 c 0
 266 -1 230 -10 192 -10 c 0
 130 -10 85 14 58 62 c 0
 31 109 24 175 37 260 c 0
 50 345 78 411 120 458 c 0
 163 506 215 530 277 530 c 0
 315 530 348 521 376 504 c 0
 404 486 423 462 434 431 c 1
 436 431 l 1
 487 750 l 1
 533 750 l 1
298 58 m 0
 325 76 348 99 368 130 c 0
 386 161 399 196 405 236 c 2
 413 284 l 2
 420 324 418 359 409 390 c 0
 400 421 384 444 362 462 c 0
 339 478 312 487 280 487 c 0
 230 487 188 467 153 426 c 0
 118 386 95 331 84 260 c 0
 73 189 78 134 100 94 c 0
 122 53 158 33 208 33 c 0
 240 33 270 42 298 58 c 0
704 770 m 1
 761 770 l 1
 604 470 l 1
 557 470 l 1
 704 770 l 1
EndSplineSet
EndChar

StartChar: dcroat
Encoding: 273 273 238
Width: 596
Flags: W
LayerCount: 2
Fore
SplineSet
620 603 m 1
 509 603 l 1
 414 0 l 1
 370 0 l 1
 384 89 l 1
 382 89 l 1
 361 58 333 34 300 16 c 0
 266 -1 230 -10 192 -10 c 0
 130 -10 85 14 58 62 c 0
 31 109 24 175 37 260 c 0
 50 345 78 411 120 458 c 0
 163 506 215 530 277 530 c 0
 315 530 348 521 376 504 c 0
 404 486 423 462 434 431 c 1
 436 431 l 1
 463 603 l 1
 221 603 l 1
 228 647 l 1
 470 647 l 1
 487 750 l 1
 533 750 l 1
 516 647 l 1
 627 647 l 1
 620 603 l 1
298 58 m 0
 325 76 348 99 368 130 c 0
 386 161 399 196 405 236 c 2
 413 284 l 2
 420 324 418 359 409 390 c 0
 400 421 384 444 362 462 c 0
 339 478 312 487 280 487 c 0
 230 487 188 467 153 426 c 0
 118 386 95 331 84 260 c 0
 73 189 78 134 100 94 c 0
 122 53 158 33 208 33 c 0
 240 33 270 42 298 58 c 0
EndSplineSet
EndChar

StartChar: uni01C6
Encoding: 454 454 239
Width: 1057
Flags: W
LayerCount: 2
Fore
SplineSet
533 750 m 1
 414 0 l 1
 370 0 l 1
 384 89 l 1
 382 89 l 1
 361 58 333 34 300 16 c 0
 266 -1 230 -10 192 -10 c 0
 130 -10 85 14 58 62 c 0
 31 109 24 175 37 260 c 0
 50 345 78 411 120 458 c 0
 163 506 215 530 277 530 c 0
 315 530 348 521 376 504 c 0
 404 486 423 462 434 431 c 1
 436 431 l 1
 487 750 l 1
 533 750 l 1
298 58 m 0
 325 76 348 99 368 130 c 0
 386 161 399 196 405 236 c 2
 413 284 l 2
 420 324 418 359 409 390 c 0
 400 421 384 444 362 462 c 0
 339 478 312 487 280 487 c 0
 230 487 188 467 153 426 c 0
 118 386 95 331 84 260 c 0
 73 189 78 134 100 94 c 0
 122 53 158 33 208 33 c 0
 240 33 270 42 298 58 c 0
576 43 m 1
 952 475 l 1
 953 477 l 1
 645 477 l 1
 652 520 l 1
 1018 520 l 1
 1012 477 l 1
 635 45 l 1
 635 43 l 1
 943 43 l 1
 936 0 l 1
 569 0 l 1
 576 43 l 1
688 770 m 1
 746 770 l 1
 842 586 l 1
 844 586 l 1
 999 770 l 1
 1057 770 l 1
 880 560 l 1
 798 560 l 1
 688 770 l 1
EndSplineSet
EndChar

StartChar: e
Encoding: 101 101 240
Width: 504
Flags: W
LayerCount: 2
Fore
SplineSet
461 244 m 2
 76 244 l 1
 67 175 76 123 104 87 c 0
 132 51 178 33 241 33 c 0
 295 33 348 45 399 68 c 1
 405 28 l 1
 378 16 350 7 320 0 c 0
 290 -7 261 -10 233 -10 c 0
 155 -10 99 13 64 60 c 0
 30 107 20 173 33 260 c 0
 46 346 76 412 122 460 c 0
 167 506 224 530 293 530 c 0
 362 530 411 507 440 460 c 0
 470 413 478 347 465 260 c 0
 464 252 462 247 461 244 c 2
155 436 m 0
 120 402 96 352 83 285 c 1
 425 285 l 1
 433 352 425 402 402 436 c 0
 378 471 340 488 287 488 c 0
 234 488 190 471 155 436 c 0
EndSplineSet
EndChar

StartChar: eacute
Encoding: 233 233 241
Width: 535
Flags: W
LayerCount: 2
Fore
SplineSet
461 244 m 2
 76 244 l 1
 67 175 76 123 104 87 c 0
 132 51 178 33 241 33 c 0
 295 33 348 45 399 68 c 1
 405 28 l 1
 378 16 350 7 320 0 c 0
 290 -7 261 -10 233 -10 c 0
 155 -10 99 13 64 60 c 0
 30 107 20 173 33 260 c 0
 46 346 76 412 122 460 c 0
 167 506 224 530 293 530 c 0
 362 530 411 507 440 460 c 0
 470 413 478 347 465 260 c 0
 464 252 462 247 461 244 c 2
155 436 m 0
 120 402 96 352 83 285 c 1
 425 285 l 1
 433 352 425 402 402 436 c 0
 378 471 340 488 287 488 c 0
 234 488 190 471 155 436 c 0
301 560 m 1
 250 560 l 1
 394 770 l 1
 454 770 l 1
 301 560 l 1
EndSplineSet
EndChar

StartChar: ebreve
Encoding: 277 277 242
Width: 535
Flags: W
LayerCount: 2
Fore
SplineSet
461 244 m 2
 76 244 l 1
 67 175 76 123 104 87 c 0
 132 51 178 33 241 33 c 0
 295 33 348 45 399 68 c 1
 405 28 l 1
 378 16 350 7 320 0 c 0
 290 -7 261 -10 233 -10 c 0
 155 -10 99 13 64 60 c 0
 30 107 20 173 33 260 c 0
 46 346 76 412 122 460 c 0
 167 506 224 530 293 530 c 0
 362 530 411 507 440 460 c 0
 470 413 478 347 465 260 c 0
 464 252 462 247 461 244 c 2
155 436 m 0
 120 402 96 352 83 285 c 1
 425 285 l 1
 433 352 425 402 402 436 c 0
 378 471 340 488 287 488 c 0
 234 488 190 471 155 436 c 0
188 626 m 0
 161 650 148 683 149 724 c 1
 199 724 l 1
 200 695 209 672 228 655 c 0
 247 638 272 630 304 630 c 0
 336 630 364 638 388 655 c 0
 412 672 429 695 439 724 c 1
 490 724 l 1
 478 683 454 650 419 626 c 0
 384 600 343 588 298 588 c 0
 253 588 216 600 188 626 c 0
EndSplineSet
EndChar

StartChar: ecaron
Encoding: 283 283 243
Width: 535
Flags: W
LayerCount: 2
Fore
SplineSet
461 244 m 2
 76 244 l 1
 67 175 76 123 104 87 c 0
 132 51 178 33 241 33 c 0
 295 33 348 45 399 68 c 1
 405 28 l 1
 378 16 350 7 320 0 c 0
 290 -7 261 -10 233 -10 c 0
 155 -10 99 13 64 60 c 0
 30 107 20 173 33 260 c 0
 46 346 76 412 122 460 c 0
 167 506 224 530 293 530 c 0
 362 530 411 507 440 460 c 0
 470 413 478 347 465 260 c 0
 464 252 462 247 461 244 c 2
155 436 m 0
 120 402 96 352 83 285 c 1
 425 285 l 1
 433 352 425 402 402 436 c 0
 378 471 340 488 287 488 c 0
 234 488 190 471 155 436 c 0
145 770 m 1
 203 770 l 1
 299 586 l 1
 301 586 l 1
 456 770 l 1
 514 770 l 1
 337 560 l 1
 255 560 l 1
 145 770 l 1
EndSplineSet
EndChar

StartChar: ecircumflex
Encoding: 234 234 244
Width: 535
Flags: W
LayerCount: 2
Fore
SplineSet
461 244 m 2
 76 244 l 1
 67 175 76 123 104 87 c 0
 132 51 178 33 241 33 c 0
 295 33 348 45 399 68 c 1
 405 28 l 1
 378 16 350 7 320 0 c 0
 290 -7 261 -10 233 -10 c 0
 155 -10 99 13 64 60 c 0
 30 107 20 173 33 260 c 0
 46 346 76 412 122 460 c 0
 167 506 224 530 293 530 c 0
 362 530 411 507 440 460 c 0
 470 413 478 347 465 260 c 0
 464 252 462 247 461 244 c 2
155 436 m 0
 120 402 96 352 83 285 c 1
 425 285 l 1
 433 352 425 402 402 436 c 0
 378 471 340 488 287 488 c 0
 234 488 190 471 155 436 c 0
288 770 m 1
 371 770 l 1
 481 560 l 1
 423 560 l 1
 326 744 l 1
 324 744 l 1
 170 560 l 1
 112 560 l 1
 288 770 l 1
EndSplineSet
EndChar

StartChar: uni1EBF
Encoding: 7871 7871 245
Width: 535
Flags: W
LayerCount: 2
Fore
SplineSet
461 244 m 2
 76 244 l 1
 67 175 76 123 104 87 c 0
 132 51 178 33 241 33 c 0
 295 33 348 45 399 68 c 1
 405 28 l 1
 378 16 350 7 320 0 c 0
 290 -7 261 -10 233 -10 c 0
 155 -10 99 13 64 60 c 0
 30 107 20 173 33 260 c 0
 46 346 76 412 122 460 c 0
 167 506 224 530 293 530 c 0
 362 530 411 507 440 460 c 0
 470 413 478 347 465 260 c 0
 464 252 462 247 461 244 c 2
155 436 m 0
 120 402 96 352 83 285 c 1
 425 285 l 1
 433 352 425 402 402 436 c 0
 378 471 340 488 287 488 c 0
 234 488 190 471 155 436 c 0
288 770 m 1
 371 770 l 1
 481 560 l 1
 423 560 l 1
 326 744 l 1
 324 744 l 1
 170 560 l 1
 112 560 l 1
 288 770 l 1
501 740 m 1
 450 740 l 1
 594 950 l 1
 654 950 l 1
 501 740 l 1
EndSplineSet
EndChar

StartChar: uni1EC7
Encoding: 7879 7879 246
Width: 535
Flags: W
LayerCount: 2
Fore
SplineSet
461 244 m 2
 76 244 l 1
 67 175 76 123 104 87 c 0
 132 51 178 33 241 33 c 0
 295 33 348 45 399 68 c 1
 405 28 l 1
 378 16 350 7 320 0 c 0
 290 -7 261 -10 233 -10 c 0
 155 -10 99 13 64 60 c 0
 30 107 20 173 33 260 c 0
 46 346 76 412 122 460 c 0
 167 506 224 530 293 530 c 0
 362 530 411 507 440 460 c 0
 470 413 478 347 465 260 c 0
 464 252 462 247 461 244 c 2
155 436 m 0
 120 402 96 352 83 285 c 1
 425 285 l 1
 433 352 425 402 402 436 c 0
 378 471 340 488 287 488 c 0
 234 488 190 471 155 436 c 0
178 -104 m 1
 258 -104 l 1
 245 -186 l 1
 165 -186 l 1
 178 -104 l 1
288 770 m 1
 371 770 l 1
 481 560 l 1
 423 560 l 1
 326 744 l 1
 324 744 l 1
 170 560 l 1
 112 560 l 1
 288 770 l 1
EndSplineSet
EndChar

StartChar: uni1EC1
Encoding: 7873 7873 247
Width: 535
Flags: W
LayerCount: 2
Fore
SplineSet
461 244 m 2
 76 244 l 1
 67 175 76 123 104 87 c 0
 132 51 178 33 241 33 c 0
 295 33 348 45 399 68 c 1
 405 28 l 1
 378 16 350 7 320 0 c 0
 290 -7 261 -10 233 -10 c 0
 155 -10 99 13 64 60 c 0
 30 107 20 173 33 260 c 0
 46 346 76 412 122 460 c 0
 167 506 224 530 293 530 c 0
 362 530 411 507 440 460 c 0
 470 413 478 347 465 260 c 0
 464 252 462 247 461 244 c 2
155 436 m 0
 120 402 96 352 83 285 c 1
 425 285 l 1
 433 352 425 402 402 436 c 0
 378 471 340 488 287 488 c 0
 234 488 190 471 155 436 c 0
288 770 m 1
 371 770 l 1
 481 560 l 1
 423 560 l 1
 326 744 l 1
 324 744 l 1
 170 560 l 1
 112 560 l 1
 288 770 l 1
53 950 m 1
 114 950 l 1
 190 740 l 1
 140 740 l 1
 53 950 l 1
EndSplineSet
EndChar

StartChar: uni1EC3
Encoding: 7875 7875 248
Width: 535
Flags: W
LayerCount: 2
Fore
SplineSet
461 244 m 2
 76 244 l 1
 67 175 76 123 104 87 c 0
 132 51 178 33 241 33 c 0
 295 33 348 45 399 68 c 1
 405 28 l 1
 378 16 350 7 320 0 c 0
 290 -7 261 -10 233 -10 c 0
 155 -10 99 13 64 60 c 0
 30 107 20 173 33 260 c 0
 46 346 76 412 122 460 c 0
 167 506 224 530 293 530 c 0
 362 530 411 507 440 460 c 0
 470 413 478 347 465 260 c 0
 464 252 462 247 461 244 c 2
155 436 m 0
 120 402 96 352 83 285 c 1
 425 285 l 1
 433 352 425 402 402 436 c 0
 378 471 340 488 287 488 c 0
 234 488 190 471 155 436 c 0
288 770 m 1
 371 770 l 1
 481 560 l 1
 423 560 l 1
 326 744 l 1
 324 744 l 1
 170 560 l 1
 112 560 l 1
 288 770 l 1
502 767 m 0
 507 783 511 797 513 808 c 0
 516 827 511 839 500 846 c 0
 489 853 465 856 430 856 c 0
 393 856 353 851 310 840 c 1
 310 881 l 1
 357 892 403 898 446 898 c 0
 495 898 529 892 546 882 c 0
 564 870 571 851 566 822 c 0
 564 809 560 793 554 775 c 0
 548 757 542 741 535 728 c 1
 485 728 l 1
 490 738 496 751 502 767 c 0
EndSplineSet
EndChar

StartChar: uni1EC5
Encoding: 7877 7877 249
Width: 535
Flags: W
LayerCount: 2
Fore
SplineSet
461 244 m 2
 76 244 l 1
 67 175 76 123 104 87 c 0
 132 51 178 33 241 33 c 0
 295 33 348 45 399 68 c 1
 405 28 l 1
 378 16 350 7 320 0 c 0
 290 -7 261 -10 233 -10 c 0
 155 -10 99 13 64 60 c 0
 30 107 20 173 33 260 c 0
 46 346 76 412 122 460 c 0
 167 506 224 530 293 530 c 0
 362 530 411 507 440 460 c 0
 470 413 478 347 465 260 c 0
 464 252 462 247 461 244 c 2
155 436 m 0
 120 402 96 352 83 285 c 1
 425 285 l 1
 433 352 425 402 402 436 c 0
 378 471 340 488 287 488 c 0
 234 488 190 471 155 436 c 0
288 770 m 1
 371 770 l 1
 481 560 l 1
 423 560 l 1
 326 744 l 1
 324 744 l 1
 170 560 l 1
 112 560 l 1
 288 770 l 1
380 792 m 0
 364 802 347 814 331 830 c 0
 306 856 283 869 262 869 c 0
 251 869 242 863 234 851 c 0
 228 839 222 818 217 789 c 1
 170 789 l 1
 183 874 216 917 269 917 c 0
 285 917 302 912 319 904 c 0
 336 894 353 882 368 866 c 0
 393 840 417 827 438 827 c 0
 449 827 458 833 466 845 c 0
 472 857 478 878 483 907 c 1
 530 907 l 1
 517 822 483 779 430 779 c 0
 414 779 398 784 380 792 c 0
EndSplineSet
EndChar

StartChar: uni0205
Encoding: 517 517 250
Width: 535
Flags: W
LayerCount: 2
Fore
SplineSet
461 244 m 2
 76 244 l 1
 67 175 76 123 104 87 c 0
 132 51 178 33 241 33 c 0
 295 33 348 45 399 68 c 1
 405 28 l 1
 378 16 350 7 320 0 c 0
 290 -7 261 -10 233 -10 c 0
 155 -10 99 13 64 60 c 0
 30 107 20 173 33 260 c 0
 46 346 76 412 122 460 c 0
 167 506 224 530 293 530 c 0
 362 530 411 507 440 460 c 0
 470 413 478 347 465 260 c 0
 464 252 462 247 461 244 c 2
155 436 m 0
 120 402 96 352 83 285 c 1
 425 285 l 1
 433 352 425 402 402 436 c 0
 378 471 340 488 287 488 c 0
 234 488 190 471 155 436 c 0
108 770 m 1
 169 770 l 1
 246 560 l 1
 196 560 l 1
 108 770 l 1
299 770 m 1
 360 770 l 1
 437 560 l 1
 387 560 l 1
 299 770 l 1
EndSplineSet
EndChar

StartChar: edieresis
Encoding: 235 235 251
Width: 535
Flags: W
LayerCount: 2
Fore
SplineSet
461 244 m 2
 76 244 l 1
 67 175 76 123 104 87 c 0
 132 51 178 33 241 33 c 0
 295 33 348 45 399 68 c 1
 405 28 l 1
 378 16 350 7 320 0 c 0
 290 -7 261 -10 233 -10 c 0
 155 -10 99 13 64 60 c 0
 30 107 20 173 33 260 c 0
 46 346 76 412 122 460 c 0
 167 506 224 530 293 530 c 0
 362 530 411 507 440 460 c 0
 470 413 478 347 465 260 c 0
 464 252 462 247 461 244 c 2
155 436 m 0
 120 402 96 352 83 285 c 1
 425 285 l 1
 433 352 425 402 402 436 c 0
 378 471 340 488 287 488 c 0
 234 488 190 471 155 436 c 0
206 706 m 1
 286 706 l 1
 273 624 l 1
 193 624 l 1
 206 706 l 1
446 706 m 1
 525 706 l 1
 512 624 l 1
 433 624 l 1
 446 706 l 1
EndSplineSet
EndChar

StartChar: edotaccent
Encoding: 279 279 252
Width: 535
Flags: W
LayerCount: 2
Fore
SplineSet
461 244 m 2
 76 244 l 1
 67 175 76 123 104 87 c 0
 132 51 178 33 241 33 c 0
 295 33 348 45 399 68 c 1
 405 28 l 1
 378 16 350 7 320 0 c 0
 290 -7 261 -10 233 -10 c 0
 155 -10 99 13 64 60 c 0
 30 107 20 173 33 260 c 0
 46 346 76 412 122 460 c 0
 167 506 224 530 293 530 c 0
 362 530 411 507 440 460 c 0
 470 413 478 347 465 260 c 0
 464 252 462 247 461 244 c 2
155 436 m 0
 120 402 96 352 83 285 c 1
 425 285 l 1
 433 352 425 402 402 436 c 0
 378 471 340 488 287 488 c 0
 234 488 190 471 155 436 c 0
306 706 m 1
 386 706 l 1
 373 624 l 1
 293 624 l 1
 306 706 l 1
EndSplineSet
EndChar

StartChar: uni1EB9
Encoding: 7865 7865 253
Width: 535
Flags: W
LayerCount: 2
Fore
SplineSet
461 244 m 2
 76 244 l 1
 67 175 76 123 104 87 c 0
 132 51 178 33 241 33 c 0
 295 33 348 45 399 68 c 1
 405 28 l 1
 378 16 350 7 320 0 c 0
 290 -7 261 -10 233 -10 c 0
 155 -10 99 13 64 60 c 0
 30 107 20 173 33 260 c 0
 46 346 76 412 122 460 c 0
 167 506 224 530 293 530 c 0
 362 530 411 507 440 460 c 0
 470 413 478 347 465 260 c 0
 464 252 462 247 461 244 c 2
155 436 m 0
 120 402 96 352 83 285 c 1
 425 285 l 1
 433 352 425 402 402 436 c 0
 378 471 340 488 287 488 c 0
 234 488 190 471 155 436 c 0
178 -104 m 1
 258 -104 l 1
 245 -186 l 1
 165 -186 l 1
 178 -104 l 1
EndSplineSet
EndChar

StartChar: egrave
Encoding: 232 232 254
Width: 535
Flags: W
LayerCount: 2
Fore
SplineSet
461 244 m 2
 76 244 l 1
 67 175 76 123 104 87 c 0
 132 51 178 33 241 33 c 0
 295 33 348 45 399 68 c 1
 405 28 l 1
 378 16 350 7 320 0 c 0
 290 -7 261 -10 233 -10 c 0
 155 -10 99 13 64 60 c 0
 30 107 20 173 33 260 c 0
 46 346 76 412 122 460 c 0
 167 506 224 530 293 530 c 0
 362 530 411 507 440 460 c 0
 470 413 478 347 465 260 c 0
 464 252 462 247 461 244 c 2
155 436 m 0
 120 402 96 352 83 285 c 1
 425 285 l 1
 433 352 425 402 402 436 c 0
 378 471 340 488 287 488 c 0
 234 488 190 471 155 436 c 0
194 770 m 1
 255 770 l 1
 331 560 l 1
 281 560 l 1
 194 770 l 1
EndSplineSet
EndChar

StartChar: uni1EBB
Encoding: 7867 7867 255
Width: 535
Flags: W
LayerCount: 2
Fore
SplineSet
461 244 m 2
 76 244 l 1
 67 175 76 123 104 87 c 0
 132 51 178 33 241 33 c 0
 295 33 348 45 399 68 c 1
 405 28 l 1
 378 16 350 7 320 0 c 0
 290 -7 261 -10 233 -10 c 0
 155 -10 99 13 64 60 c 0
 30 107 20 173 33 260 c 0
 46 346 76 412 122 460 c 0
 167 506 224 530 293 530 c 0
 362 530 411 507 440 460 c 0
 470 413 478 347 465 260 c 0
 464 252 462 247 461 244 c 2
155 436 m 0
 120 402 96 352 83 285 c 1
 425 285 l 1
 433 352 425 402 402 436 c 0
 378 471 340 488 287 488 c 0
 234 488 190 471 155 436 c 0
426 637 m 0
 432 653 436 667 438 678 c 0
 441 697 436 709 425 716 c 0
 414 723 390 726 355 726 c 0
 318 726 278 721 235 710 c 1
 235 751 l 1
 282 762 328 768 371 768 c 0
 420 768 454 762 472 752 c 0
 489 740 496 721 491 692 c 0
 489 679 485 663 479 645 c 0
 473 627 467 611 460 598 c 1
 410 598 l 1
 415 608 421 621 426 637 c 0
EndSplineSet
EndChar

StartChar: uni0207
Encoding: 519 519 256
Width: 535
Flags: W
LayerCount: 2
Fore
SplineSet
461 244 m 2
 76 244 l 1
 67 175 76 123 104 87 c 0
 132 51 178 33 241 33 c 0
 295 33 348 45 399 68 c 1
 405 28 l 1
 378 16 350 7 320 0 c 0
 290 -7 261 -10 233 -10 c 0
 155 -10 99 13 64 60 c 0
 30 107 20 173 33 260 c 0
 46 346 76 412 122 460 c 0
 167 506 224 530 293 530 c 0
 362 530 411 507 440 460 c 0
 470 413 478 347 465 260 c 0
 464 252 462 247 461 244 c 2
155 436 m 0
 120 402 96 352 83 285 c 1
 425 285 l 1
 433 352 425 402 402 436 c 0
 378 471 340 488 287 488 c 0
 234 488 190 471 155 436 c 0
432 704 m 0
 459 680 472 647 471 606 c 1
 420 606 l 1
 419 635 410 658 391 675 c 0
 372 692 347 700 315 700 c 0
 283 700 255 692 232 675 c 0
 208 658 191 635 181 606 c 1
 130 606 l 1
 142 647 166 680 200 704 c 0
 236 730 276 742 322 742 c 0
 367 742 404 730 432 704 c 0
EndSplineSet
EndChar

StartChar: emacron
Encoding: 275 275 257
Width: 535
Flags: W
LayerCount: 2
Fore
SplineSet
461 244 m 2
 76 244 l 1
 67 175 76 123 104 87 c 0
 132 51 178 33 241 33 c 0
 295 33 348 45 399 68 c 1
 405 28 l 1
 378 16 350 7 320 0 c 0
 290 -7 261 -10 233 -10 c 0
 155 -10 99 13 64 60 c 0
 30 107 20 173 33 260 c 0
 46 346 76 412 122 460 c 0
 167 506 224 530 293 530 c 0
 362 530 411 507 440 460 c 0
 470 413 478 347 465 260 c 0
 464 252 462 247 461 244 c 2
155 436 m 0
 120 402 96 352 83 285 c 1
 425 285 l 1
 433 352 425 402 402 436 c 0
 378 471 340 488 287 488 c 0
 234 488 190 471 155 436 c 0
144 686 m 1
 486 686 l 1
 479 644 l 1
 137 644 l 1
 144 686 l 1
EndSplineSet
EndChar

StartChar: eogonek
Encoding: 281 281 258
Width: 506
Flags: W
LayerCount: 2
Fore
SplineSet
458 -165 m 1
 425 -179 391 -186 355 -186 c 0
 308 -186 276 -177 258 -160 c 0
 241 -142 234 -120 238 -94 c 0
 243 -64 260 -35 291 -6 c 1
 265 -9 245 -10 232 -10 c 0
 154 -10 98 13 64 60 c 0
 30 107 20 173 33 260 c 0
 46 346 76 412 122 460 c 0
 167 506 224 530 293 530 c 0
 362 530 411 507 440 460 c 0
 470 413 478 347 464 260 c 0
 463 252 462 247 461 244 c 2
 76 244 l 1
 67 175 76 123 104 87 c 0
 132 51 178 33 241 33 c 0
 295 33 347 45 398 68 c 1
 404 34 l 1
 407 33 l 1
 405 32 l 1
 405 28 l 1
 380 17 l 2
 351 0 329 -17 312 -35 c 0
 295 -53 286 -71 283 -88 c 0
 280 -108 286 -122 302 -131 c 0
 318 -140 339 -144 364 -144 c 0
 395 -144 425 -138 454 -125 c 1
 458 -165 l 1
155 436 m 0
 120 402 96 352 83 285 c 1
 424 285 l 1
 432 352 424 402 400 436 c 0
 377 471 339 488 286 488 c 0
 233 488 190 471 155 436 c 0
EndSplineSet
EndChar

StartChar: uni1EBD
Encoding: 7869 7869 259
Width: 535
Flags: W
LayerCount: 2
Fore
SplineSet
461 244 m 2
 76 244 l 1
 67 175 76 123 104 87 c 0
 132 51 178 33 241 33 c 0
 295 33 348 45 399 68 c 1
 405 28 l 1
 378 16 350 7 320 0 c 0
 290 -7 261 -10 233 -10 c 0
 155 -10 99 13 64 60 c 0
 30 107 20 173 33 260 c 0
 46 346 76 412 122 460 c 0
 167 506 224 530 293 530 c 0
 362 530 411 507 440 460 c 0
 470 413 478 347 465 260 c 0
 464 252 462 247 461 244 c 2
155 436 m 0
 120 402 96 352 83 285 c 1
 425 285 l 1
 433 352 425 402 402 436 c 0
 378 471 340 488 287 488 c 0
 234 488 190 471 155 436 c 0
352 610 m 0
 334 618 318 631 302 647 c 0
 277 673 254 686 233 686 c 0
 222 686 212 680 206 668 c 0
 198 656 193 635 188 606 c 1
 141 606 l 1
 154 691 187 734 240 734 c 0
 256 734 273 730 290 720 c 0
 307 712 324 699 339 683 c 0
 364 657 388 644 409 644 c 0
 420 644 430 650 436 662 c 0
 444 674 449 695 454 724 c 1
 501 724 l 1
 488 639 454 596 401 596 c 0
 385 596 368 600 352 610 c 0
EndSplineSet
EndChar

StartChar: uni0259
Encoding: 601 601 260
Width: 504
Flags: W
LayerCount: 2
Fore
SplineSet
432 460 m 0
 467 413 477 347 463 260 c 0
 450 174 420 108 374 60 c 0
 329 14 272 -10 203 -10 c 0
 134 -10 85 13 56 60 c 0
 26 107 18 173 32 260 c 0
 33 268 34 273 35 276 c 2
 420 276 l 1
 429 345 420 397 392 433 c 0
 364 469 318 487 255 487 c 0
 201 487 149 475 98 452 c 1
 91 492 l 1
 118 504 146 513 176 520 c 0
 206 527 235 530 264 530 c 0
 342 530 398 507 432 460 c 0
342 84 m 0
 376 118 400 168 414 235 c 1
 72 235 l 1
 64 168 72 118 96 84 c 0
 119 49 157 32 210 32 c 0
 263 32 307 49 342 84 c 0
EndSplineSet
EndChar

StartChar: f
Encoding: 102 102 261
Width: 402
Flags: W
LayerCount: 2
Fore
SplineSet
53 477 m 1
 60 520 l 1
 202 520 l 1
 214 598 l 2
 223 653 240 694 266 720 c 0
 292 747 328 760 373 760 c 0
 399 760 425 755 452 745 c 1
 436 703 l 1
 416 712 394 717 371 717 c 0
 338 717 313 708 296 690 c 0
 279 671 267 641 260 598 c 2
 248 520 l 1
 414 520 l 1
 407 477 l 1
 241 477 l 1
 165 0 l 1
 119 0 l 1
 195 477 l 1
 53 477 l 1
EndSplineSet
EndChar

StartChar: g
Encoding: 103 103 262
Width: 531
Flags: W
LayerCount: 2
Fore
SplineSet
495 520 m 1
 419 35 l 2
 405 -54 376 -121 331 -164 c 0
 286 -208 226 -230 149 -230 c 0
 86 -230 30 -216 -21 -188 c 1
 -1 -149 l 1
 45 -174 96 -187 151 -187 c 0
 215 -187 265 -169 300 -134 c 0
 336 -98 360 -42 372 35 c 2
 381 89 l 1
 379 89 l 1
 359 58 332 34 298 16 c 0
 265 -1 229 -10 191 -10 c 0
 129 -10 84 14 58 62 c 0
 30 109 24 175 37 260 c 0
 50 345 78 411 120 458 c 0
 162 506 214 530 276 530 c 0
 314 530 347 521 376 504 c 0
 404 486 424 462 435 431 c 1
 437 431 l 1
 451 520 l 1
 495 520 l 1
296 58 m 0
 324 76 348 99 366 130 c 0
 386 161 398 196 404 236 c 2
 412 284 l 2
 419 324 417 359 408 390 c 0
 399 421 383 444 360 462 c 0
 338 478 311 487 279 487 c 0
 229 487 187 467 152 426 c 0
 117 386 94 331 83 260 c 0
 72 189 77 134 99 94 c 0
 121 53 157 33 207 33 c 0
 239 33 269 42 296 58 c 0
EndSplineSet
EndChar

StartChar: gbreve
Encoding: 287 287 263
Width: 566
Flags: W
LayerCount: 2
Fore
SplineSet
495 520 m 1
 419 35 l 2
 405 -54 376 -121 331 -164 c 0
 286 -208 226 -230 149 -230 c 0
 86 -230 30 -216 -21 -188 c 1
 -1 -149 l 1
 45 -174 96 -187 151 -187 c 0
 215 -187 265 -169 300 -134 c 0
 336 -98 360 -42 372 35 c 2
 381 89 l 1
 379 89 l 1
 359 58 332 34 298 16 c 0
 265 -1 229 -10 191 -10 c 0
 129 -10 84 14 58 62 c 0
 30 109 24 175 37 260 c 0
 50 345 78 411 120 458 c 0
 162 506 214 530 276 530 c 0
 314 530 347 521 376 504 c 0
 404 486 424 462 435 431 c 1
 437 431 l 1
 451 520 l 1
 495 520 l 1
296 58 m 0
 324 76 348 99 366 130 c 0
 386 161 398 196 404 236 c 2
 412 284 l 2
 419 324 417 359 408 390 c 0
 399 421 383 444 360 462 c 0
 338 478 311 487 279 487 c 0
 229 487 187 467 152 426 c 0
 117 386 94 331 83 260 c 0
 72 189 77 134 99 94 c 0
 121 53 157 33 207 33 c 0
 239 33 269 42 296 58 c 0
196 626 m 0
 169 650 156 683 157 724 c 1
 207 724 l 1
 208 695 217 672 236 655 c 0
 255 638 280 630 312 630 c 0
 344 630 372 638 396 655 c 0
 420 672 437 695 447 724 c 1
 498 724 l 1
 486 683 462 650 427 626 c 0
 392 600 351 588 306 588 c 0
 261 588 224 600 196 626 c 0
EndSplineSet
EndChar

StartChar: gcaron
Encoding: 487 487 264
Width: 566
Flags: W
LayerCount: 2
Fore
SplineSet
495 520 m 1
 419 35 l 2
 405 -54 376 -121 331 -164 c 0
 286 -208 226 -230 149 -230 c 0
 86 -230 30 -216 -21 -188 c 1
 -1 -149 l 1
 45 -174 96 -187 151 -187 c 0
 215 -187 265 -169 300 -134 c 0
 336 -98 360 -42 372 35 c 2
 381 89 l 1
 379 89 l 1
 359 58 332 34 298 16 c 0
 265 -1 229 -10 191 -10 c 0
 129 -10 84 14 58 62 c 0
 30 109 24 175 37 260 c 0
 50 345 78 411 120 458 c 0
 162 506 214 530 276 530 c 0
 314 530 347 521 376 504 c 0
 404 486 424 462 435 431 c 1
 437 431 l 1
 451 520 l 1
 495 520 l 1
296 58 m 0
 324 76 348 99 366 130 c 0
 386 161 398 196 404 236 c 2
 412 284 l 2
 419 324 417 359 408 390 c 0
 399 421 383 444 360 462 c 0
 338 478 311 487 279 487 c 0
 229 487 187 467 152 426 c 0
 117 386 94 331 83 260 c 0
 72 189 77 134 99 94 c 0
 121 53 157 33 207 33 c 0
 239 33 269 42 296 58 c 0
153 770 m 1
 211 770 l 1
 307 586 l 1
 309 586 l 1
 464 770 l 1
 522 770 l 1
 345 560 l 1
 263 560 l 1
 153 770 l 1
EndSplineSet
EndChar

StartChar: gcircumflex
Encoding: 285 285 265
Width: 566
Flags: W
LayerCount: 2
Fore
SplineSet
495 520 m 1
 419 35 l 2
 405 -54 376 -121 331 -164 c 0
 286 -208 226 -230 149 -230 c 0
 86 -230 30 -216 -21 -188 c 1
 -1 -149 l 1
 45 -174 96 -187 151 -187 c 0
 215 -187 265 -169 300 -134 c 0
 336 -98 360 -42 372 35 c 2
 381 89 l 1
 379 89 l 1
 359 58 332 34 298 16 c 0
 265 -1 229 -10 191 -10 c 0
 129 -10 84 14 58 62 c 0
 30 109 24 175 37 260 c 0
 50 345 78 411 120 458 c 0
 162 506 214 530 276 530 c 0
 314 530 347 521 376 504 c 0
 404 486 424 462 435 431 c 1
 437 431 l 1
 451 520 l 1
 495 520 l 1
296 58 m 0
 324 76 348 99 366 130 c 0
 386 161 398 196 404 236 c 2
 412 284 l 2
 419 324 417 359 408 390 c 0
 399 421 383 444 360 462 c 0
 338 478 311 487 279 487 c 0
 229 487 187 467 152 426 c 0
 117 386 94 331 83 260 c 0
 72 189 77 134 99 94 c 0
 121 53 157 33 207 33 c 0
 239 33 269 42 296 58 c 0
296 770 m 1
 379 770 l 1
 489 560 l 1
 431 560 l 1
 334 744 l 1
 332 744 l 1
 178 560 l 1
 120 560 l 1
 296 770 l 1
EndSplineSet
EndChar

StartChar: uni0123
Encoding: 291 291 266
Width: 566
Flags: W
LayerCount: 2
Fore
SplineSet
495 520 m 1
 419 35 l 2
 405 -54 376 -121 331 -164 c 0
 286 -208 226 -230 149 -230 c 0
 86 -230 30 -216 -21 -188 c 1
 -1 -149 l 1
 45 -174 96 -187 151 -187 c 0
 215 -187 265 -169 300 -134 c 0
 336 -98 360 -42 372 35 c 2
 381 89 l 1
 379 89 l 1
 359 58 332 34 298 16 c 0
 265 -1 229 -10 191 -10 c 0
 129 -10 84 14 58 62 c 0
 30 109 24 175 37 260 c 0
 50 345 78 411 120 458 c 0
 162 506 214 530 276 530 c 0
 314 530 347 521 376 504 c 0
 404 486 424 462 435 431 c 1
 437 431 l 1
 451 520 l 1
 495 520 l 1
296 58 m 0
 324 76 348 99 366 130 c 0
 386 161 398 196 404 236 c 2
 412 284 l 2
 419 324 417 359 408 390 c 0
 399 421 383 444 360 462 c 0
 338 478 311 487 279 487 c 0
 229 487 187 467 152 426 c 0
 117 386 94 331 83 260 c 0
 72 189 77 134 99 94 c 0
 121 53 157 33 207 33 c 0
 239 33 269 42 296 58 c 0
408 770 m 1
 458 770 l 1
 315 560 l 1
 254 560 l 1
 408 770 l 1
EndSplineSet
EndChar

StartChar: gdotaccent
Encoding: 289 289 267
Width: 566
Flags: W
LayerCount: 2
Fore
SplineSet
495 520 m 1
 419 35 l 2
 405 -54 376 -121 331 -164 c 0
 286 -208 226 -230 149 -230 c 0
 86 -230 30 -216 -21 -188 c 1
 -1 -149 l 1
 45 -174 96 -187 151 -187 c 0
 215 -187 265 -169 300 -134 c 0
 336 -98 360 -42 372 35 c 2
 381 89 l 1
 379 89 l 1
 359 58 332 34 298 16 c 0
 265 -1 229 -10 191 -10 c 0
 129 -10 84 14 58 62 c 0
 30 109 24 175 37 260 c 0
 50 345 78 411 120 458 c 0
 162 506 214 530 276 530 c 0
 314 530 347 521 376 504 c 0
 404 486 424 462 435 431 c 1
 437 431 l 1
 451 520 l 1
 495 520 l 1
296 58 m 0
 324 76 348 99 366 130 c 0
 386 161 398 196 404 236 c 2
 412 284 l 2
 419 324 417 359 408 390 c 0
 399 421 383 444 360 462 c 0
 338 478 311 487 279 487 c 0
 229 487 187 467 152 426 c 0
 117 386 94 331 83 260 c 0
 72 189 77 134 99 94 c 0
 121 53 157 33 207 33 c 0
 239 33 269 42 296 58 c 0
314 706 m 1
 394 706 l 1
 381 624 l 1
 301 624 l 1
 314 706 l 1
EndSplineSet
EndChar

StartChar: h
Encoding: 104 104 268
Width: 538
Flags: W
LayerCount: 2
Fore
SplineSet
462 476 m 0
 484 441 488 389 477 320 c 2
 427 0 l 1
 380 0 l 1
 429 313 l 2
 448 429 417 487 337 487 c 0
 304 487 272 478 240 459 c 0
 209 440 182 415 160 384 c 0
 139 353 125 319 119 282 c 2
 75 0 l 1
 29 0 l 1
 147 750 l 1
 194 750 l 1
 141 421 l 1
 143 421 l 1
 166 454 196 480 235 500 c 0
 274 520 313 530 353 530 c 0
 405 530 442 512 462 476 c 0
EndSplineSet
EndChar

StartChar: hbar
Encoding: 295 295 269
Width: 601
Flags: W
LayerCount: 2
Fore
SplineSet
526 476 m 0
 548 441 552 389 541 320 c 2
 491 0 l 1
 444 0 l 1
 493 313 l 2
 512 429 481 487 401 487 c 0
 368 487 336 478 304 459 c 0
 273 440 246 415 224 384 c 0
 203 353 189 319 183 282 c 2
 139 0 l 1
 93 0 l 1
 188 603 l 1
 77 603 l 1
 84 647 l 1
 195 647 l 1
 211 750 l 1
 257 750 l 1
 241 647 l 1
 482 647 l 1
 475 603 l 1
 234 603 l 1
 205 421 l 1
 207 421 l 1
 230 454 260 480 299 500 c 0
 338 520 377 530 417 530 c 0
 469 530 506 512 526 476 c 0
EndSplineSet
EndChar

StartChar: hcircumflex
Encoding: 293 293 270
Width: 574
Flags: W
LayerCount: 2
Fore
SplineSet
462 476 m 0
 484 441 488 389 477 320 c 2
 427 0 l 1
 380 0 l 1
 429 313 l 2
 448 429 417 487 337 487 c 0
 304 487 272 478 240 459 c 0
 209 440 182 415 160 384 c 0
 139 353 125 319 119 282 c 2
 75 0 l 1
 29 0 l 1
 147 750 l 1
 194 750 l 1
 141 421 l 1
 143 421 l 1
 166 454 196 480 235 500 c 0
 274 520 313 530 353 530 c 0
 405 530 442 512 462 476 c 0
331 1000 m 1
 414 1000 l 1
 524 790 l 1
 466 790 l 1
 369 974 l 1
 367 974 l 1
 213 790 l 1
 155 790 l 1
 331 1000 l 1
EndSplineSet
EndChar

StartChar: i
Encoding: 105 105 271
Width: 234
Flags: W
LayerCount: 2
Fore
SplineSet
152 733 m 1
 224 733 l 1
 212 657 l 1
 140 657 l 1
 152 733 l 1
131 520 m 1
 178 520 l 1
 95 0 l 1
 48 0 l 1
 131 520 l 1
EndSplineSet
EndChar

StartChar: dotlessi
Encoding: 305 305 272
Width: 208
Flags: W
LayerCount: 2
Fore
SplineSet
118 520 m 1
 165 520 l 1
 83 0 l 1
 36 0 l 1
 118 520 l 1
EndSplineSet
EndChar

StartChar: iacute
Encoding: 237 237 273
Width: 228
Flags: W
LayerCount: 2
Fore
SplineSet
118 520 m 1
 165 520 l 1
 83 0 l 1
 36 0 l 1
 118 520 l 1
145 560 m 1
 94 560 l 1
 238 770 l 1
 298 770 l 1
 145 560 l 1
EndSplineSet
EndChar

StartChar: ibreve
Encoding: 301 301 274
Width: 228
Flags: W
LayerCount: 2
Fore
SplineSet
118 520 m 1
 165 520 l 1
 83 0 l 1
 36 0 l 1
 118 520 l 1
32 626 m 0
 5 650 -8 683 -7 724 c 1
 43 724 l 1
 44 695 53 672 72 655 c 0
 91 638 116 630 148 630 c 0
 180 630 208 638 232 655 c 0
 256 672 273 695 283 724 c 1
 334 724 l 1
 322 683 298 650 263 626 c 0
 228 600 187 588 142 588 c 0
 97 588 60 600 32 626 c 0
EndSplineSet
EndChar

StartChar: icircumflex
Encoding: 238 238 275
Width: 228
Flags: W
LayerCount: 2
Fore
SplineSet
118 520 m 1
 165 520 l 1
 83 0 l 1
 36 0 l 1
 118 520 l 1
132 770 m 1
 215 770 l 1
 325 560 l 1
 267 560 l 1
 170 744 l 1
 168 744 l 1
 14 560 l 1
 -44 560 l 1
 132 770 l 1
EndSplineSet
EndChar

StartChar: uni0209
Encoding: 521 521 276
Width: 228
Flags: W
LayerCount: 2
Fore
SplineSet
118 520 m 1
 165 520 l 1
 83 0 l 1
 36 0 l 1
 118 520 l 1
-48 770 m 1
 13 770 l 1
 90 560 l 1
 40 560 l 1
 -48 770 l 1
143 770 m 1
 204 770 l 1
 281 560 l 1
 231 560 l 1
 143 770 l 1
EndSplineSet
EndChar

StartChar: idieresis
Encoding: 239 239 277
Width: 228
Flags: W
LayerCount: 2
Fore
SplineSet
118 520 m 1
 165 520 l 1
 83 0 l 1
 36 0 l 1
 118 520 l 1
50 706 m 1
 130 706 l 1
 117 624 l 1
 37 624 l 1
 50 706 l 1
290 706 m 1
 369 706 l 1
 356 624 l 1
 277 624 l 1
 290 706 l 1
EndSplineSet
EndChar

StartChar: i.loclTRK
Encoding: 1114113 -1 278
Width: 228
Flags: W
LayerCount: 2
Fore
SplineSet
118 520 m 1
 165 520 l 1
 83 0 l 1
 36 0 l 1
 118 520 l 1
150 706 m 1
 230 706 l 1
 217 624 l 1
 137 624 l 1
 150 706 l 1
EndSplineSet
EndChar

StartChar: uni1ECB
Encoding: 7883 7883 279
Width: 255
Flags: W
LayerCount: 2
Fore
SplineSet
152 733 m 1
 224 733 l 1
 212 657 l 1
 140 657 l 1
 152 733 l 1
131 520 m 1
 178 520 l 1
 95 0 l 1
 48 0 l 1
 131 520 l 1
35 -104 m 1
 115 -104 l 1
 102 -186 l 1
 22 -186 l 1
 35 -104 l 1
EndSplineSet
EndChar

StartChar: igrave
Encoding: 236 236 280
Width: 228
Flags: W
LayerCount: 2
Fore
SplineSet
118 520 m 1
 165 520 l 1
 83 0 l 1
 36 0 l 1
 118 520 l 1
38 770 m 1
 99 770 l 1
 175 560 l 1
 125 560 l 1
 38 770 l 1
EndSplineSet
EndChar

StartChar: uni1EC9
Encoding: 7881 7881 281
Width: 228
Flags: W
LayerCount: 2
Fore
SplineSet
118 520 m 1
 165 520 l 1
 83 0 l 1
 36 0 l 1
 118 520 l 1
270 637 m 0
 276 653 280 667 282 678 c 0
 285 697 280 709 269 716 c 0
 258 723 234 726 199 726 c 0
 162 726 122 721 79 710 c 1
 79 751 l 1
 126 762 172 768 215 768 c 0
 264 768 298 762 316 752 c 0
 333 740 340 721 335 692 c 0
 333 679 329 663 323 645 c 0
 317 627 311 611 304 598 c 1
 254 598 l 1
 259 608 265 621 270 637 c 0
EndSplineSet
EndChar

StartChar: uni020B
Encoding: 523 523 282
Width: 228
Flags: W
LayerCount: 2
Fore
SplineSet
118 520 m 1
 165 520 l 1
 83 0 l 1
 36 0 l 1
 118 520 l 1
276 704 m 0
 303 680 316 647 315 606 c 1
 264 606 l 1
 263 635 254 658 235 675 c 0
 216 692 191 700 159 700 c 0
 127 700 99 692 76 675 c 0
 52 658 35 635 25 606 c 1
 -26 606 l 1
 -14 647 10 680 44 704 c 0
 80 730 120 742 166 742 c 0
 211 742 248 730 276 704 c 0
EndSplineSet
EndChar

StartChar: imacron
Encoding: 299 299 283
Width: 228
Flags: W
LayerCount: 2
Fore
SplineSet
118 520 m 1
 165 520 l 1
 83 0 l 1
 36 0 l 1
 118 520 l 1
-12 686 m 1
 330 686 l 1
 323 644 l 1
 -19 644 l 1
 -12 686 l 1
EndSplineSet
EndChar

StartChar: iogonek
Encoding: 303 303 284
Width: 215
Flags: W
LayerCount: 2
Fore
SplineSet
213 706 m 1
 201 624 l 1
 123 624 l 1
 136 706 l 1
 213 706 l 1
138 -198 m 1
 105 -212 71 -219 35 -219 c 0
 -12 -219 -44 -210 -62 -192 c 0
 -79 -175 -86 -153 -81 -127 c 0
 -77 -102 -64 -78 -44 -54 c 0
 -22 -30 6 -7 42 14 c 1
 122 520 l 1
 169 520 l 1
 87 0 l 1
 50 -19 21 -40 0 -60 c 0
 -21 -82 -33 -102 -36 -121 c 0
 -39 -141 -33 -155 -18 -164 c 0
 -2 -173 19 -177 45 -177 c 0
 76 -177 106 -171 134 -158 c 1
 138 -198 l 1
EndSplineSet
EndChar

StartChar: itilde
Encoding: 297 297 285
Width: 228
Flags: W
LayerCount: 2
Fore
SplineSet
118 520 m 1
 165 520 l 1
 83 0 l 1
 36 0 l 1
 118 520 l 1
196 610 m 0
 178 618 162 631 146 647 c 0
 121 673 98 686 77 686 c 0
 66 686 56 680 50 668 c 0
 42 656 37 635 32 606 c 1
 -15 606 l 1
 -2 691 31 734 84 734 c 0
 100 734 117 730 134 720 c 0
 151 712 168 699 183 683 c 0
 208 657 232 644 253 644 c 0
 264 644 274 650 280 662 c 0
 288 674 293 695 298 724 c 1
 345 724 l 1
 332 639 298 596 245 596 c 0
 229 596 212 600 196 610 c 0
EndSplineSet
EndChar

StartChar: j
Encoding: 106 106 286
Width: 290
Flags: W
LayerCount: 2
Fore
SplineSet
209 733 m 1
 280 733 l 1
 268 657 l 1
 197 657 l 1
 209 733 l 1
0 -172 m 0
 30 -161 54 -142 70 -116 c 0
 85 -88 97 -48 106 7 c 2
 187 520 l 1
 234 520 l 1
 153 7 l 2
 143 -57 128 -106 107 -139 c 0
 86 -172 57 -196 18 -210 c 0
 -20 -223 -74 -230 -143 -230 c 1
 -137 -187 l 1
 -77 -187 -32 -182 0 -172 c 0
EndSplineSet
EndChar

StartChar: uni0237
Encoding: 567 567 287
Width: 278
Flags: W
LayerCount: 2
Fore
SplineSet
0 -172 m 0
 30 -161 54 -142 70 -116 c 0
 85 -88 97 -48 106 7 c 2
 187 520 l 1
 234 520 l 1
 153 7 l 2
 143 -57 128 -106 108 -139 c 0
 87 -172 58 -196 19 -210 c 0
 -20 -223 -74 -230 -143 -230 c 1
 -137 -187 l 1
 -77 -187 -32 -182 0 -172 c 0
EndSplineSet
EndChar

StartChar: jcircumflex
Encoding: 309 309 288
Width: 294
Flags: W
LayerCount: 2
Fore
SplineSet
0 -172 m 0
 30 -161 54 -142 70 -116 c 0
 85 -88 97 -48 106 7 c 2
 187 520 l 1
 234 520 l 1
 153 7 l 2
 143 -57 128 -106 108 -139 c 0
 87 -172 58 -196 19 -210 c 0
 -20 -223 -74 -230 -143 -230 c 1
 -137 -187 l 1
 -77 -187 -32 -182 0 -172 c 0
165 770 m 1
 248 770 l 1
 358 560 l 1
 300 560 l 1
 203 744 l 1
 201 744 l 1
 47 560 l 1
 -11 560 l 1
 165 770 l 1
EndSplineSet
EndChar

StartChar: k
Encoding: 107 107 289
Width: 503
Flags: W
LayerCount: 2
Fore
SplineSet
147 750 m 1
 194 750 l 1
 120 286 l 1
 122 286 l 1
 430 520 l 1
 494 520 l 1
 162 270 l 1
 425 0 l 1
 361 0 l 1
 117 253 l 1
 115 253 l 1
 75 0 l 1
 29 0 l 1
 147 750 l 1
EndSplineSet
EndChar

StartChar: uni0137
Encoding: 311 311 290
Width: 536
Flags: W
LayerCount: 2
Fore
SplineSet
147 750 m 1
 194 750 l 1
 120 286 l 1
 122 286 l 1
 430 520 l 1
 494 520 l 1
 162 270 l 1
 425 0 l 1
 361 0 l 1
 117 253 l 1
 115 253 l 1
 75 0 l 1
 29 0 l 1
 147 750 l 1
51 -250 m 1
 0 -250 l 1
 144 -40 l 1
 203 -40 l 1
 51 -250 l 1
EndSplineSet
EndChar

StartChar: kgreenlandic
Encoding: 312 312 291
Width: 503
Flags: W
LayerCount: 2
Fore
SplineSet
111 520 m 1
 157 520 l 1
 120 286 l 1
 122 286 l 1
 430 520 l 1
 494 520 l 1
 162 270 l 1
 425 0 l 1
 361 0 l 1
 117 253 l 1
 115 253 l 1
 75 0 l 1
 29 0 l 1
 111 520 l 1
EndSplineSet
EndChar

StartChar: l
Encoding: 108 108 292
Width: 292
Flags: W
LayerCount: 2
Fore
SplineSet
155 750 m 1
 200 750 l 1
 105 153 l 2
 97 103 98 70 110 54 c 0
 120 38 145 30 182 30 c 0
 213 30 240 35 265 45 c 1
 269 7 l 1
 237 -4 204 -10 171 -10 c 0
 120 -10 86 2 70 24 c 0
 53 48 50 88 59 147 c 2
 155 750 l 1
EndSplineSet
EndChar

StartChar: lacute
Encoding: 314 314 293
Width: 292
Flags: W
LayerCount: 2
Fore
SplineSet
155 750 m 1
 200 750 l 1
 105 153 l 2
 97 103 98 70 110 54 c 0
 120 38 145 30 182 30 c 0
 213 30 240 35 265 45 c 1
 269 7 l 1
 237 -4 204 -10 171 -10 c 0
 120 -10 86 2 70 24 c 0
 53 48 50 88 59 147 c 2
 155 750 l 1
181 790 m 1
 130 790 l 1
 274 1000 l 1
 334 1000 l 1
 181 790 l 1
EndSplineSet
EndChar

StartChar: lcaron
Encoding: 318 318 294
Width: 406
Flags: W
LayerCount: 2
Fore
SplineSet
155 750 m 1
 200 750 l 1
 105 153 l 2
 97 103 98 70 110 54 c 0
 120 38 145 30 182 30 c 0
 213 30 240 35 265 45 c 1
 269 7 l 1
 237 -4 204 -10 171 -10 c 0
 120 -10 86 2 70 24 c 0
 53 48 50 88 59 147 c 2
 155 750 l 1
367 770 m 1
 424 770 l 1
 267 470 l 1
 220 470 l 1
 367 770 l 1
EndSplineSet
EndChar

StartChar: uni013C
Encoding: 316 316 295
Width: 292
Flags: W
LayerCount: 2
Fore
SplineSet
155 750 m 1
 200 750 l 1
 105 153 l 2
 97 103 98 70 110 54 c 0
 120 38 145 30 182 30 c 0
 213 30 240 35 265 45 c 1
 269 7 l 1
 237 -4 204 -10 171 -10 c 0
 120 -10 86 2 70 24 c 0
 53 48 50 88 59 147 c 2
 155 750 l 1
31 -250 m 1
 -20 -250 l 1
 124 -40 l 1
 183 -40 l 1
 31 -250 l 1
EndSplineSet
EndChar

StartChar: ldot
Encoding: 320 320 296
Width: 368
Flags: W
LayerCount: 2
Fore
SplineSet
155 750 m 1
 200 750 l 1
 105 153 l 2
 97 103 98 70 110 54 c 0
 120 38 145 30 182 30 c 0
 213 30 240 35 265 45 c 1
 269 7 l 1
 237 -4 204 -10 171 -10 c 0
 120 -10 86 2 70 24 c 0
 53 48 50 88 59 147 c 2
 155 750 l 1
257 416 m 1
 339 416 l 1
 325 333 l 1
 244 333 l 1
 257 416 l 1
EndSplineSet
EndChar

StartChar: uni01C9
Encoding: 457 457 297
Width: 534
Flags: W
LayerCount: 2
Fore
SplineSet
155 750 m 1
 200 750 l 1
 105 153 l 2
 97 103 98 70 110 54 c 0
 120 38 145 30 182 30 c 0
 213 30 240 35 265 45 c 1
 269 7 l 1
 237 -4 204 -10 171 -10 c 0
 120 -10 86 2 70 24 c 0
 53 48 50 88 59 147 c 2
 155 750 l 1
436 733 m 1
 507 733 l 1
 495 657 l 1
 424 657 l 1
 436 733 l 1
226 -172 m 0
 258 -161 281 -142 296 -116 c 0
 312 -88 324 -48 333 7 c 2
 414 520 l 1
 461 520 l 1
 380 7 l 2
 370 -57 355 -106 334 -139 c 0
 313 -172 284 -196 246 -210 c 0
 207 -223 153 -230 84 -230 c 1
 90 -187 l 1
 150 -187 196 -182 226 -172 c 0
EndSplineSet
EndChar

StartChar: lslash
Encoding: 322 322 298
Width: 378
Flags: W
LayerCount: 2
Fore
SplineSet
387 423 m 1
 27 267 l 1
 17 307 l 1
 377 463 l 1
 387 423 l 1
240 750 m 1
 285 750 l 1
 190 153 l 2
 182 103 184 70 194 54 c 0
 206 38 230 30 267 30 c 0
 298 30 325 35 350 45 c 1
 354 7 l 1
 322 -4 289 -10 256 -10 c 0
 205 -10 171 2 154 24 c 0
 138 48 135 88 144 147 c 2
 240 750 l 1
EndSplineSet
EndChar

StartChar: m
Encoding: 109 109 299
Width: 750
Flags: W
LayerCount: 2
Fore
SplineSet
690 320 m 2
 639 0 l 1
 594 0 l 1
 644 313 l 2
 653 370 652 414 641 443 c 0
 630 472 608 487 576 487 c 0
 551 487 527 478 502 462 c 0
 477 444 456 422 438 394 c 0
 421 365 409 335 404 302 c 2
 356 0 l 1
 311 0 l 1
 361 313 l 2
 370 370 369 414 358 443 c 0
 347 472 325 487 293 487 c 0
 267 487 242 478 217 459 c 0
 192 440 171 415 154 383 c 0
 136 351 124 316 118 278 c 2
 74 0 l 1
 29 0 l 1
 111 520 l 1
 154 520 l 1
 141 431 l 1
 143 431 l 1
 164 462 189 486 218 504 c 0
 248 521 279 530 311 530 c 0
 370 530 404 497 412 431 c 1
 413 431 l 1
 435 460 462 484 496 502 c 0
 528 521 561 530 594 530 c 0
 680 530 712 460 690 320 c 2
EndSplineSet
EndChar

StartChar: n
Encoding: 110 110 300
Width: 538
Flags: W
LayerCount: 2
Fore
SplineSet
462 477 m 0
 483 442 488 389 477 320 c 2
 427 0 l 1
 380 0 l 1
 429 313 l 2
 448 429 416 487 335 487 c 0
 302 487 270 478 239 459 c 0
 208 440 181 415 160 384 c 0
 139 353 125 319 119 282 c 2
 75 0 l 1
 29 0 l 1
 111 520 l 1
 155 520 l 1
 140 421 l 1
 141 421 l 1
 164 454 195 481 234 500 c 0
 272 520 311 530 351 530 c 0
 404 530 441 512 462 477 c 0
EndSplineSet
EndChar

StartChar: nacute
Encoding: 324 324 301
Width: 574
Flags: W
LayerCount: 2
Fore
SplineSet
462 477 m 0
 483 442 488 389 477 320 c 2
 427 0 l 1
 380 0 l 1
 429 313 l 2
 448 429 416 487 335 487 c 0
 302 487 270 478 239 459 c 0
 208 440 181 415 160 384 c 0
 139 353 125 319 119 282 c 2
 75 0 l 1
 29 0 l 1
 111 520 l 1
 155 520 l 1
 140 421 l 1
 141 421 l 1
 164 454 195 481 234 500 c 0
 272 520 311 530 351 530 c 0
 404 530 441 512 462 477 c 0
318 560 m 1
 267 560 l 1
 411 770 l 1
 471 770 l 1
 318 560 l 1
EndSplineSet
EndChar

StartChar: ncaron
Encoding: 328 328 302
Width: 574
Flags: W
LayerCount: 2
Fore
SplineSet
462 477 m 0
 483 442 488 389 477 320 c 2
 427 0 l 1
 380 0 l 1
 429 313 l 2
 448 429 416 487 335 487 c 0
 302 487 270 478 239 459 c 0
 208 440 181 415 160 384 c 0
 139 353 125 319 119 282 c 2
 75 0 l 1
 29 0 l 1
 111 520 l 1
 155 520 l 1
 140 421 l 1
 141 421 l 1
 164 454 195 481 234 500 c 0
 272 520 311 530 351 530 c 0
 404 530 441 512 462 477 c 0
162 770 m 1
 220 770 l 1
 316 586 l 1
 318 586 l 1
 473 770 l 1
 531 770 l 1
 354 560 l 1
 272 560 l 1
 162 770 l 1
EndSplineSet
EndChar

StartChar: uni0146
Encoding: 326 326 303
Width: 574
Flags: W
LayerCount: 2
Fore
SplineSet
462 477 m 0
 483 442 488 389 477 320 c 2
 427 0 l 1
 380 0 l 1
 429 313 l 2
 448 429 416 487 335 487 c 0
 302 487 270 478 239 459 c 0
 208 440 181 415 160 384 c 0
 139 353 125 319 119 282 c 2
 75 0 l 1
 29 0 l 1
 111 520 l 1
 155 520 l 1
 140 421 l 1
 141 421 l 1
 164 454 195 481 234 500 c 0
 272 520 311 530 351 530 c 0
 404 530 441 512 462 477 c 0
104 -250 m 1
 53 -250 l 1
 197 -40 l 1
 256 -40 l 1
 104 -250 l 1
EndSplineSet
EndChar

StartChar: eng
Encoding: 331 331 304
Width: 538
Flags: W
LayerCount: 2
Fore
SplineSet
462 477 m 0
 483 442 488 389 477 320 c 2
 419 -49 l 2
 410 -106 392 -148 364 -174 c 0
 338 -201 299 -214 249 -214 c 0
 218 -214 190 -209 164 -199 c 1
 181 -156 l 1
 201 -165 223 -170 248 -170 c 0
 285 -170 314 -160 333 -142 c 0
 352 -122 365 -92 372 -49 c 2
 429 313 l 2
 448 429 416 487 335 487 c 0
 302 487 270 478 239 459 c 0
 208 440 181 415 160 384 c 0
 139 353 125 319 119 282 c 2
 75 0 l 1
 29 0 l 1
 111 520 l 1
 155 520 l 1
 137 406 l 1
 139 406 l 1
 164 444 195 474 232 496 c 0
 270 519 310 530 351 530 c 0
 404 530 441 512 462 477 c 0
EndSplineSet
EndChar

StartChar: uni01CC
Encoding: 460 460 305
Width: 881
Flags: W
LayerCount: 2
Fore
SplineSet
462 477 m 0
 483 442 488 389 477 320 c 2
 427 0 l 1
 380 0 l 1
 429 313 l 2
 448 429 416 487 335 487 c 0
 302 487 270 478 239 459 c 0
 208 440 181 415 160 384 c 0
 139 353 125 319 119 282 c 2
 75 0 l 1
 29 0 l 1
 111 520 l 1
 155 520 l 1
 140 421 l 1
 141 421 l 1
 164 454 195 481 234 500 c 0
 272 520 311 530 351 530 c 0
 404 530 441 512 462 477 c 0
783 733 m 1
 854 733 l 1
 842 657 l 1
 771 657 l 1
 783 733 l 1
574 -172 m 0
 604 -161 628 -142 644 -116 c 0
 659 -88 671 -48 680 7 c 2
 761 520 l 1
 808 520 l 1
 727 7 l 2
 717 -57 702 -106 681 -139 c 0
 660 -172 631 -196 592 -210 c 0
 554 -223 500 -230 431 -230 c 1
 437 -187 l 1
 497 -187 542 -182 574 -172 c 0
EndSplineSet
EndChar

StartChar: ntilde
Encoding: 241 241 306
Width: 574
Flags: W
LayerCount: 2
Fore
SplineSet
462 477 m 0
 483 442 488 389 477 320 c 2
 427 0 l 1
 380 0 l 1
 429 313 l 2
 448 429 416 487 335 487 c 0
 302 487 270 478 239 459 c 0
 208 440 181 415 160 384 c 0
 139 353 125 319 119 282 c 2
 75 0 l 1
 29 0 l 1
 111 520 l 1
 155 520 l 1
 140 421 l 1
 141 421 l 1
 164 454 195 481 234 500 c 0
 272 520 311 530 351 530 c 0
 404 530 441 512 462 477 c 0
368 610 m 0
 352 618 335 631 319 647 c 0
 294 673 271 686 250 686 c 0
 239 686 230 680 222 668 c 0
 216 656 210 635 205 606 c 1
 158 606 l 1
 171 691 204 734 257 734 c 0
 273 734 290 730 307 720 c 0
 324 712 341 699 356 683 c 0
 381 657 405 644 426 644 c 0
 437 644 446 650 454 662 c 0
 460 674 466 695 471 724 c 1
 518 724 l 1
 505 639 471 596 418 596 c 0
 402 596 386 600 368 610 c 0
EndSplineSet
EndChar

StartChar: o
Encoding: 111 111 307
Width: 524
Flags: W
LayerCount: 2
Fore
SplineSet
62 62 m 0
 29 109 20 175 33 260 c 0
 46 345 77 411 124 458 c 0
 172 506 231 530 301 530 c 0
 372 530 423 506 456 458 c 0
 488 411 497 345 484 260 c 0
 471 175 440 109 393 62 c 0
 346 14 286 -10 215 -10 c 0
 145 -10 94 14 62 62 c 0
364 92 m 0
 402 132 427 188 438 260 c 0
 449 332 442 388 418 428 c 0
 392 467 351 487 294 487 c 0
 237 487 190 467 153 428 c 0
 116 389 91 333 80 260 c 0
 69 187 76 131 100 92 c 0
 126 53 166 33 222 33 c 0
 279 33 327 53 364 92 c 0
EndSplineSet
EndChar

